{
.appVersion = "3108";
copyright = "Helsinki Type Studio";
customParameters = (
{
name = license;

glyphs = (
{
color = 5;
glyphname = A;
lastChange = "2018-05-16 00:33:18 +0000";
layers = (
{
anchors = (
{
name = bottom;
position = "{395, 0}";
},
{
name = ogonek;
position = "{554, 0}";
},
{
name = top;
position = "{373, 700}";
}
);
layerId = "6B2E1CAF-7E84-411F-9290-838331FE9C95";
rightMetricsKey = "=V";
paths = (
{
closed = 1;
nodes = (
"144 0 LINE",
"340 556 LINE SMOOTH",
"344 568 OFFCURVE",
"358 565 OFFCURVE",
"358 553 CURVE SMOOTH",
"358 397 LINE",
"396 0 LINE",
"554 0 LINE",
"472 700 LINE",
"252 700 LINE",
"-16 0 LINE"
);
},
{
closed = 1;
nodes = (
"399 162 LINE",
"388 292 LINE",
"231 292 LINE",
"183 162 LINE"
);
},
{
closed = 1;
nodes = (
"230 570 LINE",
"268 700 LINE",
"148 700 LINE",
"129 570 LINE"
);
}
);
width = 610;
},
{
anchors = (
{
name = bottom;
position = "{259, 0}";
},
{
name = ogonek;
position = "{511, 0}";
},
{
name = top;
position = "{342, 670}";
}
);
layerId = "3DBDB2C8-AF6E-4CF3-B71C-7D596AD599C8";
rightMetricsKey = "=V";
paths = (
{
closed = 1;
nodes = (
"71 0 LINE",
"334 625 LINE SMOOTH",
"337 633 OFFCURVE",
"347 631 OFFCURVE",
"347 623 CURVE SMOOTH",
"349 534 LINE",
"427 0 LINE",
"511 0 LINE",
"401 700 LINE",
"281 700 LINE",
"-15 0 LINE"
);
},
{
closed = 1;
nodes = (
"429 187 LINE",
"418 261 LINE",
"152 261 LINE",
"119 187 LINE"
);
},
{
closed = 1;
nodes = (
"301 627 LINE",
"308 700 LINE",
"167 700 LINE",
"157 627 LINE"
);
}
);
width = 566;
}
);
leftKerningGroup = A;
rightKerningGroup = A;
rightMetricsKey = V;
unicode = 0041;
userData = {
com.schriftgestaltung.Glyphs.ColorIndex = 3;
com.schriftgestaltung.Glyphs.layer.rightMetricsKey = "==V";
com.schriftgestaltung.Glyphs.rightMetricsKey = V;
};
},
{
color = 5;
glyphname = AE;
lastChange = "2018-05-16 00:32:49 +0000";
layers = (
{
anchors = (
{
name = bottom;
position = "{390, 0}";
},
{
name = top;
position = "{489, 700}";
}
);
layerId = "6B2E1CAF-7E84-411F-9290-838331FE9C95";
paths = (
{
closed = 1;
nodes = (
"145 0 LINE",
"202 162 LINE",
"368 162 LINE",
"345 0 LINE",
"775 0 LINE",
"795 140 LINE",
"510 140 LINE",
"530 285 LINE",
"798 285 LINE",
"816 415 LINE",
"548 415 LINE",
"570 565 LINE",
"855 565 LINE",
"874 700 LINE",
"149 700 LINE",
"130 565 LINE",
"201 565 LINE",
"-16 0 LINE"
);
},
{
closed = 1;
nodes = (
"344 565 LINE",
"425 565 LINE",
"386 292 LINE",
"248 292 LINE"
);
}
);
width = 861;
},
{
anchors = (
{
name = bottom;
position = "{381, 0}";
},
{
name = top;
position = "{479, 700}";
}
);
layerId = "3DBDB2C8-AF6E-4CF3-B71C-7D596AD599C8";
paths = (
{
closed = 1;
nodes = (
"71 0 LINE",
"149 187 LINE",
"368 187 LINE",
"342 0 LINE",
"745 0 LINE",
"756 78 LINE",
"431 78 LINE",
"464 311 LINE",
"772 311 LINE",
"783 389 LINE",
"475 389 LINE",
"507 622 LINE",
"832 622 LINE",
"843 700 LINE",
"167 700 LINE",
"156 622 LINE",
"248 622 LINE",
"-15 0 LINE"
);
},
{
closed = 1;
nodes = (
"330 622 LINE",
"429 622 LINE",
"379 261 LINE",
"180 261 LINE"
);
}
);
width = 840;
}
);
leftKerningGroup = A;
leftMetricsKey = A;
rightKerningGroup = E;
rightMetricsKey = E;
unicode = 00C6;
userData = {
com.schriftgestaltung.Glyphs.leftMetricsKey = A;
com.schriftgestaltung.Glyphs.rightMetricsKey = E;
};
},
{
color = 5;
glyphname = B;
lastChange = "2018-05-16 00:33:18 +0000";
layers = (
{
anchors = (
{
name = bottom;
position = "{247, 0}";
},
{
name = top;
position = "{345, 700}";
}
);
background = {
paths = (
{
closed = 1;
nodes = (
"325 0 LINE SMOOTH",
"467 0 OFFCURVE",
"548 72 OFFCURVE",
"548 198 CURVE SMOOTH",
"548 281 OFFCURVE",
"509 341 OFFCURVE",
"441 362 CURVE",
"497 389 OFFCURVE",
"529 442 OFFCURVE",
"529 509 CURVE SMOOTH",
"529 631 OFFCURVE",
"447 700 OFFCURVE",
"305 700 CURVE SMOOTH",
"66 700 LINE",
"66 0 LINE"
);
},
{
closed = 1;
nodes = (
"211 285 LINE",
"325 285 LINE SMOOTH",
"375 285 OFFCURVE",
"403 252 OFFCURVE",
"403 205 CURVE SMOOTH",
"403 156 OFFCURVE",
"375 130 OFFCURVE",
"325 130 CURVE SMOOTH",
"211 130 LINE"
);
},
{
closed = 1;
nodes = (
"211 570 LINE",
"305 570 LINE SMOOTH",
"356 570 OFFCURVE",
"385 543 OFFCURVE",
"385 495 CURVE SMOOTH",
"385 448 OFFCURVE",
"356 415 OFFCURVE",
"305 415 CURVE SMOOTH",
"211 415 LINE"
);
}
);
};
layerId = "6B2E1CAF-7E84-411F-9290-838331FE9C95";
leftMetricsKey = "=H";
paths = (
{
closed = 1;
nodes = (
"297 0 LINE SMOOTH",
"451 0 OFFCURVE",
"551 55 OFFCURVE",
"551 201 CURVE SMOOTH",
"551 261 OFFCURVE",
"522 328 OFFCURVE",
"453 360 CURVE",
"534 391 OFFCURVE",
"574 457 OFFCURVE",
"574 530 CURVE SMOOTH",
"574 636 OFFCURVE",
"494 700 OFFCURVE",
"379 700 CURVE SMOOTH",
"133 700 LINE",
"35 0 LINE"
);
},
{
closed = 1;
nodes = (
"220 285 LINE",
"337 285 LINE SMOOTH",
"379 285 OFFCURVE",
"404 258 OFFCURVE",
"404 218 CURVE SMOOTH",
"404 161 OFFCURVE",
"372 130 OFFCURVE",
"308 130 CURVE SMOOTH",
"198 130 LINE"
);
},
{
closed = 1;
nodes = (
"260 570 LINE",
"362 570 LINE SMOOTH",
"403 570 OFFCURVE",
"429 544 OFFCURVE",
"429 505 CURVE SMOOTH",
"429 458 OFFCURVE",
"396 415 OFFCURVE",
"333 415 CURVE SMOOTH",
"238 415 LINE"
);
}
);
width = 592;
},
{
anchors = (
{
name = bottom;
position = "{247, 0}";
},
{
name = top;
position = "{341, 670}";
}
);
background = {
paths = (
{
closed = 1;
nodes = (
"337 629 LINE",
"421 638 OFFCURVE",
"469 590 OFFCURVE",
"469 510 CURVE SMOOTH",
"469 425 OFFCURVE",
"421 378 OFFCURVE",
"337 387 CURVE",
"437 349 LINE",
"504 373 OFFCURVE",
"547 430 OFFCURVE",
"547 510 CURVE SMOOTH",
"547 638 OFFCURVE",
"468 709 OFFCURVE",
"336 699 CURVE"
);
},
{
closed = 1;
nodes = (
"291 1 LINE",
"433 -7 OFFCURVE",
"517 63 OFFCURVE",
"517 190 CURVE SMOOTH",
"517 281 OFFCURVE",
"461 349 OFFCURVE",
"376 364 CURVE",
"292 315 LINE",
"385 323 OFFCURVE",
"439 275 OFFCURVE",
"439 190 CURVE SMOOTH",
"439 109 OFFCURVE",
"385 63 OFFCURVE",
"292 71 CURVE"
);
}
);
};
layerId = "3DBDB2C8-AF6E-4CF3-B71C-7D596AD599C8";
leftMetricsKey = "=H";
paths = (
{
closed = 1;
nodes = (
"290 0 LINE SMOOTH",
"426 0 OFFCURVE",
"504 76 OFFCURVE",
"504 205 CURVE SMOOTH",
"504 273 OFFCURVE",
"462 328 OFFCURVE",
"418 346 CURVE",
"489 374 OFFCURVE",
"533 436 OFFCURVE",
"533 527 CURVE SMOOTH",
"533 633 OFFCURVE",
"465 700 OFFCURVE",
"346 700 CURVE SMOOTH",
"153 700 LINE",
"55 0 LINE"
);
},
{
closed = 1;
nodes = (
"177 316 LINE",
"305 316 LINE SMOOTH",
"377 316 OFFCURVE",
"425 282 OFFCURVE",
"425 204 CURVE SMOOTH",
"425 116 OFFCURVE",
"378 70 OFFCURVE",
"281 70 CURVE SMOOTH",
"143 70 LINE"
);
},
{
closed = 1;
nodes = (
"221 630 LINE",
"348 630 LINE SMOOTH",
"419 630 OFFCURVE",
"455 586 OFFCURVE",
"455 520 CURVE SMOOTH",
"455 445 OFFCURVE",
"417 386 OFFCURVE",
"343 386 CURVE SMOOTH",
"187 386 LINE"
);
}
);
width = 563;
}
);
leftKerningGroup = H;
leftMetricsKey = H;
rightKerningGroup = B;
unicode = 0042;
userData = {
com.schriftgestaltung.Glyphs.ColorIndex = 3;
com.schriftgestaltung.Glyphs.layer.leftMetricsKey = "==H";
com.schriftgestaltung.Glyphs.leftMetricsKey = H;
};
},
{
color = 5;
glyphname = C;
lastChange = "2018-05-16 00:33:18 +0000";
layers = (
{
anchors = (
{
name = bottom;
position = "{266, 0}";
},
{
name = top;
position = "{345, 700}";
}
);
layerId = "6B2E1CAF-7E84-411F-9290-838331FE9C95";
leftMetricsKey = "=O";
paths = (
{
closed = 1;
nodes = (
"362 -12 OFFCURVE",
"407 6 OFFCURVE",
"454 40 CURVE",
"407 165 LINE",
"375 143 OFFCURVE",
"346 129 OFFCURVE",
"294 129 CURVE SMOOTH",
"238 129 OFFCURVE",
"206 164 OFFCURVE",
"206 223 CURVE SMOOTH",
"206 277 OFFCURVE",
"234 452 OFFCURVE",
"246 491 CURVE SMOOTH",
"264 546 OFFCURVE",
"310 572 OFFCURVE",
"360 572 CURVE SMOOTH",
"413 572 OFFCURVE",
"446 562 OFFCURVE",
"482 537 CURVE",
"525 656 LINE",
"486 690 OFFCURVE",
"431 712 OFFCURVE",
"361 712 CURVE SMOOTH",
"215 712 OFFCURVE",
"129 634 OFFCURVE",
"96 524 CURVE SMOOTH",
"67 427 OFFCURVE",
"49 319 OFFCURVE",
"49 215 CURVE SMOOTH",
"49 108 OFFCURVE",
"130 -12 OFFCURVE",
"286 -12 CURVE SMOOTH"
);
}
);
width = 504;
},
{
anchors = (
{
name = bottom;
position = "{302, 0}";
},
{
name = top;
position = "{342, 670}";
}
);
layerId = "3DBDB2C8-AF6E-4CF3-B71C-7D596AD599C8";
leftMetricsKey = "=O";
paths = (
{
closed = 1;
nodes = (
"419 117 LINE",
"387 89 OFFCURVE",
"337 64 OFFCURVE",
"286 64 CURVE SMOOTH",
"195 64 OFFCURVE",
"143 119 OFFCURVE",
"143 215 CURVE SMOOTH",
"143 304 OFFCURVE",
"162 429 OFFCURVE",
"190 513 CURVE SMOOTH",
"219 606 OFFCURVE",
"280 636 OFFCURVE",
"348 636 CURVE SMOOTH",
"411 636 OFFCURVE",
"456 612 OFFCURVE",
"483 575 CURVE",
"517 644 LINE",
"481 685 OFFCURVE",
"428 712 OFFCURVE",
"356 712 CURVE SMOOTH",
"222 712 OFFCURVE",
"147 639 OFFCURVE",
"116 534 CURVE SMOOTH",
"84 439 OFFCURVE",
"64 308 OFFCURVE",
"64 214 CURVE SMOOTH",
"64 97 OFFCURVE",
"134 -12 OFFCURVE",
"278 -12 CURVE SMOOTH",
"346 -12 OFFCURVE",
"400 7 OFFCURVE",
"439 39 CURVE"
);
}
);
width = 503;
}
);
leftKerningGroup = O;
leftMetricsKey = O;
rightKerningGroup = C;
unicode = 0043;
userData = {
com.schriftgestaltung.Glyphs.ColorIndex = 3;
com.schriftgestaltung.Glyphs.layer.leftMetricsKey = "==O";
com.schriftgestaltung.Glyphs.leftMetricsKey = O;
};
},
{
color = 5;
glyphname = D;
lastChange = "2018-05-16 00:33:18 +0000";
layers = (
{
anchors = (
{
name = bottom;
position = "{265, 0}";
},
{
name = center;
position = "{163, 350}";
},
{
name = top;
position = "{364, 700}";
}
);
background = {
components = (
{
name = O;
transform = "{1, 0, 0, 1, -5, 0}";
}
);
};
layerId = "6B2E1CAF-7E84-411F-9290-838331FE9C95";
leftMetricsKey = "=H";
rightMetricsKey = "=O";
paths = (
{
closed = 1;
nodes = (
"243 0 LINE SMOOTH",
"398 0 OFFCURVE",
"513 30 OFFCURVE",
"554 207 CURVE SMOOTH",
"572 285 OFFCURVE",
"589 386 OFFCURVE",
"589 469 CURVE SMOOTH",
"589 624 OFFCURVE",
"508 700 OFFCURVE",
"334 700 CURVE SMOOTH",
"133 700 LINE",
"34 0 LINE"
);
},
{
closed = 1;
nodes = (
"274 570 LINE",
"323 570 LINE SMOOTH",
"408 570 OFFCURVE",
"437 539 OFFCURVE",
"437 466 CURVE SMOOTH",
"437 411 OFFCURVE",
"419 298 OFFCURVE",
"406 246 CURVE SMOOTH",
"379 136 OFFCURVE",
"334 130 OFFCURVE",
"254 130 CURVE SMOOTH",
"213 130 LINE"
);
}
);
width = 612;
},
{
anchors = (
{
name = bottom;
position = "{262, 0}";
},
{
name = center;
position = "{141, 350}";
},
{
name = top;
position = "{356, 670}";
}
);
background = {
components = (
{
name = O;
transform = "{1, 0, 0, 1, -13, 0}";
}
);
};
layerId = "3DBDB2C8-AF6E-4CF3-B71C-7D596AD599C8";
leftMetricsKey = "=H";
rightMetricsKey = "=O";
paths = (
{
closed = 1;
nodes = (
"245 0 LINE SMOOTH",
"406 0 OFFCURVE",
"498 86 OFFCURVE",
"525 225 CURVE SMOOTH",
"540 301 OFFCURVE",
"554 386 OFFCURVE",
"559 461 CURVE SMOOTH",
"568 592 OFFCURVE",
"506 700 OFFCURVE",
"339 700 CURVE SMOOTH",
"153 700 LINE",
"55 0 LINE"
);
},
{
closed = 1;
nodes = (
"223 627 LINE",
"333 627 LINE SMOOTH",
"450 627 OFFCURVE",
"487 556 OFFCURVE",
"482 462 CURVE SMOOTH",
"479 400 OFFCURVE",
"465 299 OFFCURVE",
"452 244 CURVE SMOOTH",
"428 144 OFFCURVE",
"368 72 OFFCURVE",
"251 72 CURVE SMOOTH",
"145 72 LINE"
);
}
);
width = 593;
}
);
leftKerningGroup = H;
leftMetricsKey = H;
rightKerningGroup = O;
rightMetricsKey = O;
unicode = 0044;
userData = {
com.schriftgestaltung.Glyphs.ColorIndex = 3;
com.schriftgestaltung.Glyphs.layer.leftMetricsKey = "==H";
com.schriftgestaltung.Glyphs.layer.rightMetricsKey = "==O";
com.schriftgestaltung.Glyphs.leftMetricsKey = H;
com.schriftgestaltung.Glyphs.rightMetricsKey = O;
};
},
{
color = 5;
glyphname = Eth;
lastChange = "2018-05-16 00:32:49 +0000";
layers = (
{
components = (
{
name = D;
transform = "{1, 0, 0, 1, 20, 0}";
}
);
layerId = "6B2E1CAF-7E84-411F-9290-838331FE9C95";
paths = (
{
closed = 1;
nodes = (
"332 293 LINE",
"348 407 LINE",
"8 407 LINE",
"-8 293 LINE"
);
}
);
width = 632;
},
{
components = (
{
name = D;
transform = "{1, 0, 0, 1, 20, 0}";
}
);
layerId = "3DBDB2C8-AF6E-4CF3-B71C-7D596AD599C8";
paths = (
{
closed = 1;
nodes = (
"286 315 LINE",
"296 384 LINE",
"5 384 LINE",
"-5 315 LINE"
);
}
);
width = 613;
}
);
leftKerningGroup = H;
rightKerningGroup = O;
rightMetricsKey = O;
unicode = 00D0;
userData = {
com.schriftgestaltung.Glyphs.rightMetricsKey = O;
};
},
{
color = 5;
glyphname = E;
lastChange = "2018-05-16 00:33:18 +0000";
layers = (
{
anchors = (
{
name = bottom;
position = "{259, 0}";
},
{
name = ogonek;
position = "{461, 10}";
},
{
name = top;
position = "{358, 700}";
},
{
name = topleft;
position = "{83, 700}";
}
);
layerId = "6B2E1CAF-7E84-411F-9290-838331FE9C95";
leftMetricsKey = "=H";
paths = (
{
closed = 1;
nodes = (
"464 0 LINE",
"484 140 LINE",
"199 140 LINE",
"219 285 LINE",
"487 285 LINE",
"505 415 LINE",
"237 415 LINE",
"258 560 LINE",
"543 560 LINE",
"563 700 LINE",
"133 700 LINE",
"34 0 LINE"
);
}
);
width = 550;
},
{
anchors = (
{
name = bottom;
position = "{262, 0}";
},
{
name = ogonek;
position = "{464, 10}";
},
{
name = top;
position = "{356, 670}";
},
{
name = topleft;
position = "{83, 700}";
}
);
layerId = "3DBDB2C8-AF6E-4CF3-B71C-7D596AD599C8";
leftMetricsKey = "=H";
paths = (
{
closed = 1;
nodes = (
"458 0 LINE",
"469 78 LINE",
"144 78 LINE",
"177 311 LINE",
"485 311 LINE",
"496 389 LINE",
"188 389 LINE",
"220 622 LINE",
"545 622 LINE",
"556 700 LINE",
"153 700 LINE",
"55 0 LINE"
);
}
);
width = 553;
}
);
leftKerningGroup = H;
leftMetricsKey = H;
rightKerningGroup = E;
unicode = 0045;
userData = {
com.schriftgestaltung.Glyphs.ColorIndex = 3;
com.schriftgestaltung.Glyphs.layer.leftMetricsKey = "==H";
com.schriftgestaltung.Glyphs.leftMetricsKey = H;
};
},
{
color = 5;
glyphname = F;
lastChange = "2018-05-16 00:33:18 +0000";
layers = (
{
anchors = (
{
name = bottom;
position = "{229, 0}";
},
{
name = top;
position = "{328, 700}";
}
);
layerId = "6B2E1CAF-7E84-411F-9290-838331FE9C95";
leftMetricsKey = "=H";
paths = (
{
closed = 1;
nodes = (
"194 0 LINE",
"234 280 LINE",
"487 280 LINE",
"506 420 LINE",
"253 420 LINE",
"273 560 LINE",
"543 560 LINE",
"563 700 LINE",
"133 700 LINE",
"34 0 LINE"
);
}
);
width = 530;
},
{
anchors = (
{
name = bottom;
position = "{226, 0}";
},
{
name = top;
position = "{320, 670}";
}
);
layerId = "3DBDB2C8-AF6E-4CF3-B71C-7D596AD599C8";
leftMetricsKey = "=H";
paths = (
{
closed = 1;
nodes = (
"138 0 LINE",
"182 311 LINE",
"465 311 LINE",
"476 389 LINE",
"193 389 LINE",
"225 622 LINE",
"534 622 LINE",
"545 700 LINE",
"153 700 LINE",
"55 0 LINE"
);
}
);
width = 522;
}
);
leftKerningGroup = H;
leftMetricsKey = H;
rightKerningGroup = F;
unicode = 0046;
userData = {
com.schriftgestaltung.Glyphs.ColorIndex = 3;
com.schriftgestaltung.Glyphs.layer.leftMetricsKey = "==H";
com.schriftgestaltung.Glyphs.leftMetricsKey = H;
};
},
{
color = 5;
glyphname = G;
lastChange = "2018-05-16 00:33:18 +0000";
layers = (
{
anchors = (
{
name = bottom;
position = "{263, 0}";
},
{
name = top;
position = "{382, 700}";
}
);
layerId = "6B2E1CAF-7E84-411F-9290-838331FE9C95";
leftMetricsKey = "=O";
paths = (
{
closed = 1;
nodes = (
"384 -11 OFFCURVE",
"451 11 OFFCURVE",
"496 41 CURVE",
"527 280 LINE",
"589 280 LINE",
"608 420 LINE",
"348 420 LINE",
"329 280 LINE",
"397 280 LINE",
"373 139 LINE",
"346 133 OFFCURVE",
"318 129 OFFCURVE",
"286 129 CURVE SMOOTH",
"233 129 OFFCURVE",
"200 165 OFFCURVE",
"200 212 CURVE SMOOTH",
"200 277 OFFCURVE",
"215 380 OFFCURVE",
"234 452 CURVE SMOOTH",
"258 544 OFFCURVE",
"301 572 OFFCURVE",
"385 572 CURVE SMOOTH",
"436 572 OFFCURVE",
"485 555 OFFCURVE",
"521 529 CURVE",
"583 648 LINE",
"533 688 OFFCURVE",
"468 712 OFFCURVE",
"390 712 CURVE SMOOTH",
"245 712 OFFCURVE",
"131 666 OFFCURVE",
"86 495 CURVE SMOOTH",
"63 407 OFFCURVE",
"48 281 OFFCURVE",
"48 212 CURVE SMOOTH",
"48 82 OFFCURVE",
"139 -14 OFFCURVE",
"291 -12 CURVE SMOOTH"
);
}
);
width = 598;
},
{
anchors = (
{
name = bottom;
position = "{300, 0}";
},
{
name = top;
position = "{381, 670}";
}
);
layerId = "3DBDB2C8-AF6E-4CF3-B71C-7D596AD599C8";
leftMetricsKey = "=O";
paths = (
{
closed = 1;
nodes = (
"358 -12 OFFCURVE",
"411 6 OFFCURVE",
"466 41 CURVE",
"502 311 LINE",
"576 311 LINE",
"587 389 LINE",
"349 389 LINE",
"338 311 LINE",
"419 311 LINE",
"386 85 LINE",
"366 73 OFFCURVE",
"322 66 OFFCURVE",
"283 66 CURVE SMOOTH",
"189 66 OFFCURVE",
"142 117 OFFCURVE",
"139 194 CURVE SMOOTH",
"136 267 OFFCURVE",
"159 385 OFFCURVE",
"176 471 CURVE SMOOTH",
"203 608 OFFCURVE",
"281 634 OFFCURVE",
"375 634 CURVE SMOOTH",
"436 634 OFFCURVE",
"474 619 OFFCURVE",
"514 581 CURVE",
"547 649 LINE",
"508 688 OFFCURVE",
"449 712 OFFCURVE",
"377 712 CURVE SMOOTH",
"244 712 OFFCURVE",
"145 672 OFFCURVE",
"103 500 CURVE SMOOTH",
"82 413 OFFCURVE",
"59 274 OFFCURVE",
"59 194 CURVE SMOOTH",
"59 75 OFFCURVE",
"143 -12 OFFCURVE",
"280 -12 CURVE SMOOTH"
);
}
);
width = 600;
}
);
leftKerningGroup = O;
leftMetricsKey = O;
rightKerningGroup = G;
unicode = 0047;
userData = {
com.schriftgestaltung.Glyphs.ColorIndex = 3;
com.schriftgestaltung.Glyphs.layer.leftMetricsKey = "==O";
com.schriftgestaltung.Glyphs.leftMetricsKey = O;
};
},
{
color = 5;
glyphname = Gstroke;
lastChange = "2018-05-16 00:32:49 +0000";
layers = (
{
anchors = (
{
name = bottom;
position = "{294, 0}";
},
{
name = top;
position = "{294, 700}";
}
);
layerId = "6B2E1CAF-7E84-411F-9290-838331FE9C95";
paths = (
{
closed = 1;
nodes = (
"579 203 LINE",
"598 343 LINE",
"338 343 LINE",
"319 203 LINE"
);
},
{
closed = 1;
nodes = (
"421 420 LINE",
"373 139 LINE",
"346 133 OFFCURVE",
"318 129 OFFCURVE",
"286 129 CURVE SMOOTH",
"233 129 OFFCURVE",
"200 165 OFFCURVE",
"200 212 CURVE SMOOTH",
"200 277 OFFCURVE",
"215 380 OFFCURVE",
"234 452 CURVE SMOOTH",
"258 544 OFFCURVE",
"301 572 OFFCURVE",
"385 572 CURVE SMOOTH",
"436 572 OFFCURVE",
"485 555 OFFCURVE",
"521 529 CURVE",
"583 648 LINE",
"533 688 OFFCURVE",
"468 712 OFFCURVE",
"390 712 CURVE SMOOTH",
"245 712 OFFCURVE",
"131 666 OFFCURVE",
"86 495 CURVE SMOOTH",
"63 407 OFFCURVE",
"48 281 OFFCURVE",
"48 212 CURVE SMOOTH",
"48 82 OFFCURVE",
"139 -14 OFFCURVE",
"291 -12 CURVE SMOOTH",
"384 -11 OFFCURVE",
"451 11 OFFCURVE",
"496 41 CURVE",
"550 420 LINE"
);
}
);
width = 598;
},
{
anchors = (
{
name = bottom;
position = "{300, 0}";
},
{
name = top;
position = "{358, 670}";
}
);
layerId = "3DBDB2C8-AF6E-4CF3-B71C-7D596AD599C8";
paths = (
{
closed = 1;
nodes = (
"358 -12 OFFCURVE",
"411 6 OFFCURVE",
"466 41 CURVE",
"513 389 LINE",
"430 389 LINE",
"386 85 LINE",
"366 73 OFFCURVE",
"322 66 OFFCURVE",
"283 66 CURVE SMOOTH",
"189 66 OFFCURVE",
"142 117 OFFCURVE",
"139 194 CURVE SMOOTH",
"136 267 OFFCURVE",
"159 385 OFFCURVE",
"176 471 CURVE SMOOTH",
"203 608 OFFCURVE",
"281 634 OFFCURVE",
"375 634 CURVE SMOOTH",
"436 634 OFFCURVE",
"474 619 OFFCURVE",
"514 581 CURVE",
"547 649 LINE",
"508 688 OFFCURVE",
"449 712 OFFCURVE",
"377 712 CURVE SMOOTH",
"244 712 OFFCURVE",
"145 672 OFFCURVE",
"103 500 CURVE SMOOTH",
"82 413 OFFCURVE",
"59 274 OFFCURVE",
"59 194 CURVE SMOOTH",
"59 75 OFFCURVE",
"143 -12 OFFCURVE",
"280 -12 CURVE SMOOTH"
);
},
{
closed = 1;
nodes = (
"559 196 LINE",
"570 274 LINE",
"332 274 LINE",
"321 196 LINE"
);
}
);
width = 600;
}
);
unicode = 01E4;
},
{
color = 5;
glyphname = H;
lastChange = "2018-05-16 00:33:18 +0000";
layers = (
{
anchors = (
{
name = bottom;
position = "{284, 0}";
},
{
name = center;
position = "{361, 550}";
},
{
name = top;
position = "{383, 700}";
},
{
name = topleft;
position = "{83, 700}";
}
);
layerId = "6B2E1CAF-7E84-411F-9290-838331FE9C95";
paths = (
{
closed = 1;
nodes = (
"194 0 LINE",
"234 280 LINE",
"414 280 LINE",
"374 0 LINE",
"534 0 LINE",
"633 700 LINE",
"473 700 LINE",
"433 420 LINE",
"253 420 LINE",
"293 700 LINE",
"133 700 LINE",
"34 0 LINE"
);
}
);
width = 640;
},
{
anchors = (
{
name = bottom;
position = "{240, 0}";
},
{
name = center;
position = "{388, 530}";
},
{
name = top;
position = "{428, 670}";
},
{
name = topleft;
position = "{146, 700}";
}
);
layerId = "3DBDB2C8-AF6E-4CF3-B71C-7D596AD599C8";
paths = (
{
closed = 1;
nodes = (
"138 0 LINE",
"182 311 LINE",
"456 311 LINE",
"412 0 LINE",
"495 0 LINE",
"593 700 LINE",
"510 700 LINE",
"467 389 LINE",
"193 389 LINE",
"236 700 LINE",
"153 700 LINE",
"55 0 LINE"
);
}
);
width = 620;
}
);
leftKerningGroup = H;
rightKerningGroup = H;
unicode = 0048;
userData = {
com.schriftgestaltung.Glyphs.ColorIndex = 3;
};
},
{
color = 5;
glyphname = I;
lastChange = "2018-05-16 00:33:18 +0000";
layers = (
{
anchors = (
{
name = bottom;
position = "{186, 0}";
},
{
name = ogonek;
position = "{365, 10}";
},
{
name = top;
position = "{285, 700}";
},
{
name = topleft;
position = "{83, 700}";
}
);
layerId = "6B2E1CAF-7E84-411F-9290-838331FE9C95";
paths = (
{
closed = 1;
nodes = (
"357 0 LINE",
"375 130 LINE",
"283 130 LINE",
"345 570 LINE",
"437 570 LINE",
"456 700 LINE",
"113 700 LINE",
"94 570 LINE",
"186 570 LINE",
"124 130 LINE",
"32 130 LINE",
"14 0 LINE"
);
}
);
width = 443;
},
{
anchors = (
{
name = bottom;
position = "{177, 0}";
},
{
name = ogonek;
position = "{347, 10}";
},
{
name = top;
position = "{271, 670}";
},
{
name = topleft;
position = "{83, 700}";
}
);
layerId = "3DBDB2C8-AF6E-4CF3-B71C-7D596AD599C8";
paths = (
{
closed = 1;
nodes = (
"338 0 LINE",
"349 76 LINE",
"229 76 LINE",
"306 624 LINE",
"426 624 LINE",
"436 700 LINE",
"113 700 LINE",
"103 624 LINE",
"223 624 LINE",
"146 76 LINE",
"26 76 LINE",
"15 0 LINE"
);
}
);
width = 423;
}
);
leftKerningGroup = I;
rightKerningGroup = I;
unicode = 0049;
userData = {
com.schriftgestaltung.Glyphs.ColorIndex = 3;
};
},
{
color = 5;
glyphname = IJ;
lastChange = "2018-05-16 00:32:49 +0000";
layers = (
{
components = (
{
name = I;
}
);
layerId = "6B2E1CAF-7E84-411F-9290-838331FE9C95";
paths = (
{
closed = 1;
nodes = (
"677 -12 OFFCURVE",
"780 67 OFFCURVE",
"801 216 CURVE SMOOTH",
"870 700 LINE",
"570 700 LINE",
"551 570 LINE",
"691 570 LINE",
"643 224 LINE SMOOTH",
"634 160 OFFCURVE",
"588 129 OFFCURVE",
"525 129 CURVE SMOOTH",
"497 129 OFFCURVE",
"481 133 OFFCURVE",
"463 144 CURVE",
"443 0 LINE",
"468 -8 OFFCURVE",
"491 -12 OFFCURVE",
"530 -12 CURVE SMOOTH"
);
}
);
width = 867;
},
{
components = (
{
name = I;
}
);
layerId = "3DBDB2C8-AF6E-4CF3-B71C-7D596AD599C8";
paths = (
{
closed = 1;
nodes = (
"629 -12 OFFCURVE",
"708 48 OFFCURVE",
"726 172 CURVE SMOOTH",
"800 700 LINE",
"558 700 LINE",
"547 622 LINE",
"707 622 LINE",
"646 186 LINE SMOOTH",
"634 100 OFFCURVE",
"586 66 OFFCURVE",
"519 66 CURVE SMOOTH",
"487 66 OFFCURVE",
"454 72 OFFCURVE",
"426 89 CURVE",
"416 8 LINE",
"437 -4 OFFCURVE",
"477 -12 OFFCURVE",
"518 -12 CURVE SMOOTH"
);
}
);
width = 827;
}
);
leftKerningGroup = I;
leftMetricsKey = I;
rightKerningGroup = J;
rightMetricsKey = J;
unicode = 0132;
},
{
color = 5;
glyphname = J;
lastChange = "2018-05-16 00:33:18 +0000";
layers = (
{
anchors = (
{
name = bottom;
position = "{178, 0}";
},
{
name = top;
position = "{340, 700}";
}
);
background = {
paths = (
{
closed = 1;
nodes = (
"455 700 LINE",
"313 700 LINE",
"313 190 LINE",
"313 157 OFFCURVE",
"305 116 OFFCURVE",
"254 116 CURVE SMOOTH",
"209 116 OFFCURVE",
"185 123 OFFCURVE",
"153 139 CURVE",
"127 19 LINE",
"162 -1 OFFCURVE",
"210 -12 OFFCURVE",
"254 -12 CURVE SMOOTH",
"425 -12 OFFCURVE",
"455 97 OFFCURVE",
"455 190 CURVE"
);
}
);
};
layerId = "6B2E1CAF-7E84-411F-9290-838331FE9C95";
rightMetricsKey = "=H-10";
paths = (
{
closed = 1;
nodes = (
"289 -12 OFFCURVE",
"393 67 OFFCURVE",
"413 216 CURVE SMOOTH",
"482 700 LINE",
"182 700 LINE",
"163 570 LINE",
"303 570 LINE",
"255 224 LINE SMOOTH",
"246 160 OFFCURVE",
"205 129 OFFCURVE",
"147 129 CURVE SMOOTH",
"99 129 OFFCURVE",
"71 140 OFFCURVE",
"39 163 CURVE",
"-20 42 LINE",
"27 8 OFFCURVE",
"70 -12 OFFCURVE",
"142 -12 CURVE SMOOTH"
);
}
);
width = 479;
},
{
anchors = (
{
name = bottom;
position = "{179, 0}";
},
{
name = top;
position = "{273, 670}";
}
);
background = {
paths = (
{
closed = 1;
nodes = (
"256 -12 OFFCURVE",
"329 50 OFFCURVE",
"329 154 CURVE SMOOTH",
"329 700 LINE",
"87 700 LINE",
"87 622 LINE",
"247 622 LINE",
"247 154 LINE SMOOTH",
"247 98 OFFCURVE",
"206 66 OFFCURVE",
"142 66 CURVE SMOOTH",
"101 66 OFFCURVE",
"36 81 OFFCURVE",
"7 121 CURVE",
"-18 50 LINE",
"24 8 OFFCURVE",
"93 -12 OFFCURVE",
"142 -12 CURVE SMOOTH"
);
}
);
};
layerId = "3DBDB2C8-AF6E-4CF3-B71C-7D596AD599C8";
rightMetricsKey = "=H";
paths = (
{
closed = 1;
nodes = (
"249 -12 OFFCURVE",
"328 48 OFFCURVE",
"346 172 CURVE SMOOTH",
"420 700 LINE",
"178 700 LINE",
"167 622 LINE",
"327 622 LINE",
"266 186 LINE SMOOTH",
"254 100 OFFCURVE",
"206 66 OFFCURVE",
"139 66 CURVE SMOOTH",
"98 66 OFFCURVE",
"41 79 OFFCURVE",
"7 121 CURVE",
"-18 52 LINE",
"19 10 OFFCURVE",
"86 -12 OFFCURVE",
"138 -12 CURVE SMOOTH"
);
}
);
width = 447;
}
);
leftKerningGroup = J;
rightKerningGroup = J;
rightMetricsKey = H;
unicode = 004A;
userData = {
com.schriftgestaltung.Glyphs.ColorIndex = 3;
com.schriftgestaltung.Glyphs.layer.rightMetricsKey = "==H";
com.schriftgestaltung.Glyphs.rightMetricsKey = H;
com.typemytype.robofont.layerData = {
background = {
anchors = (
);
components = (
);
contours = (
{
points = (
{
segmentType = line;
smooth = 0;
x = 455;
y = 700;
},
{
segmentType = line;
smooth = 0;
x = 313;
y = 700;
},
{
segmentType = line;
smooth = 0;
x = 313;
y = 190;
},
{
smooth = 0;
x = 313;
y = 157;
},
{
smooth = 0;
x = 305;
y = 116;
},
{
segmentType = curve;
smooth = 1;
x = 254;
y = 116;
},
{
smooth = 0;
x = 209;
y = 116;
},
{
smooth = 0;
x = 185;
y = 123;
},
{
segmentType = curve;
smooth = 0;
x = 153;
y = 139;
},
{
segmentType = line;
smooth = 0;
x = 127;
y = 19;
},
{
smooth = 0;
x = 162;
y = -1;
},
{
smooth = 0;
x = 210;
y = -12;
},
{
segmentType = curve;
smooth = 1;
x = 254;
y = -12;
},
{
smooth = 0;
x = 425;
y = -12;
},
{
smooth = 0;
x = 455;
y = 97;
},
{
segmentType = curve;
smooth = 0;
x = 455;
y = 190;
}
);
}
);
lib = {
};
name = J;
unicodes = (
);
width = 447;
};
};
};
},
{
color = 5;
glyphname = K;
lastChange = "2018-05-16 00:33:18 +0000";
layers = (
{
anchors = (
{
name = bottom;
position = "{260, 0}";
},
{
name = top;
position = "{359, 700}";
}
);
layerId = "6B2E1CAF-7E84-411F-9290-838331FE9C95";
leftMetricsKey = "=H";
paths = (
{
closed = 1;
nodes = (
"190 0 LINE",
"230 285 LINE",
"289 285 LINE",
"360 0 LINE",
"524 0 LINE",
"430 358 LINE",
"630 700 LINE",
"459 700 LINE",
"298 415 LINE",
"249 415 LINE",
"289 700 LINE",
"133 700 LINE",
"34 0 LINE"
);
}
);
width = 586;
},
{
anchors = (
{
name = bottom;
position = "{234, 0}";
},
{
name = top;
position = "{328, 670}";
}
);
layerId = "3DBDB2C8-AF6E-4CF3-B71C-7D596AD599C8";
leftMetricsKey = "=H";
paths = (
{
closed = 1;
nodes = (
"137 0 LINE",
"181 313 LINE",
"263 313 LINE",
"384 0 LINE",
"472 0 LINE",
"333 355 LINE",
"570 700 LINE",
"477 700 LINE",
"263 388 LINE",
"191 388 LINE",
"235 700 LINE",
"153 700 LINE",
"55 0 LINE"
);
}
);
width = 538;
}
);
leftKerningGroup = H;
leftMetricsKey = H;
rightKerningGroup = K;
unicode = 004B;
userData = {
com.schriftgestaltung.Glyphs.ColorIndex = 3;
com.schriftgestaltung.Glyphs.layer.leftMetricsKey = "==H";
com.schriftgestaltung.Glyphs.leftMetricsKey = H;
};
},
{
color = 5;
glyphname = L;
lastChange = "2018-05-16 00:33:18 +0000";
layers = (
{
anchors = (
{
name = bottom;
position = "{186, 0}";
},
{
name = center;
position = "{177, 450}";
},
{
name = top;
position = "{285, 700}";
},
{
name = topright;
position = "{487, 700}";
}
);
layerId = "6B2E1CAF-7E84-411F-9290-838331FE9C95";
leftMetricsKey = "=H";
paths = (
{
closed = 1;
nodes = (
"388 0 LINE",
"408 140 LINE",
"214 140 LINE",
"293 700 LINE",
"133 700 LINE",
"34 0 LINE"
);
}
);
width = 444;
},
{
anchors = (
{
name = bottom;
position = "{191, 0}";
},
{
name = center;
position = "{164, 450}";
},
{
name = top;
position = "{285, 670}";
},
{
name = topright;
position = "{495, 700}";
}
);
layerId = "3DBDB2C8-AF6E-4CF3-B71C-7D596AD599C8";
leftMetricsKey = "=H";
paths = (
{
closed = 1;
nodes = (
"387 0 LINE",
"398 78 LINE",
"149 78 LINE",
"236 700 LINE",
"153 700 LINE",
"55 0 LINE"
);
}
);
width = 452;
}
);
leftKerningGroup = H;
leftMetricsKey = H;
rightKerningGroup = L;
unicode = 004C;
userData = {
com.schriftgestaltung.Glyphs.ColorIndex = 3;
com.schriftgestaltung.Glyphs.layer.leftMetricsKey = "==H";
com.schriftgestaltung.Glyphs.leftMetricsKey = H;
};
},
{
color = 5;
glyphname = M;
lastChange = "2018-05-16 00:33:18 +0000";
layers = (
{
anchors = (
{
name = bottom;
position = "{304, 0}";
},
{
name = top;
position = "{403, 700}";
}
);
guideLines = (
{
angle = 90;
position = "{629, 540}";
}
);
layerId = "6B2E1CAF-7E84-411F-9290-838331FE9C95";
leftMetricsKey = "=H";
rightMetricsKey = "=H";
paths = (
{
closed = 1;
nodes = (
"184 0 LINE",
"224 270 LINE",
"225 381 LINE SMOOTH",
"225 393 OFFCURVE",
"238 396 OFFCURVE",
"243 384 CURVE SMOOTH",
"308 229 LINE",
"358 229 LINE",
"477 384 LINE SMOOTH",
"485 395 OFFCURVE",
"498 391 OFFCURVE",
"494 378 CURVE SMOOTH",
"461 263 LINE",
"424 0 LINE",
"574 0 LINE",
"673 700 LINE",
"541 700 LINE",
"375 457 LINE SMOOTH",
"368 446 OFFCURVE",
"358 445 OFFCURVE",
"354 456 CURVE SMOOTH",
"261 700 LINE",
"133 700 LINE",
"34 0 LINE"
);
}
);
width = 680;
},
{
anchors = (
{
name = bottom;
position = "{302, 0}";
},
{
name = top;
position = "{390, 670}";
}
);
layerId = "3DBDB2C8-AF6E-4CF3-B71C-7D596AD599C8";
leftMetricsKey = "=H";
rightMetricsKey = "=H";
paths = (
{
closed = 1;
nodes = (
"135 0 LINE",
"194 431 LINE",
"197 517 LINE SMOOTH",
"198 532 OFFCURVE",
"208 535 OFFCURVE",
"212 524 CURVE SMOOTH",
"315 265 LINE",
"365 265 LINE",
"538 520 LINE SMOOTH",
"545 531 OFFCURVE",
"557 529 OFFCURVE",
"553 516 CURVE SMOOTH",
"528 425 LINE",
"469 0 LINE",
"549 0 LINE",
"647 700 LINE",
"576 700 LINE",
"366 388 LINE SMOOTH",
"358 376 OFFCURVE",
"346 377 OFFCURVE",
"342 388 CURVE SMOOTH",
"222 700 LINE",
"153 700 LINE",
"55 0 LINE"
);
}
);
width = 674;
}
);
leftKerningGroup = H;
leftMetricsKey = H;
rightKerningGroup = H;
rightMetricsKey = H;
unicode = 004D;
userData = {
com.schriftgestaltung.Glyphs.ColorIndex = 3;
com.schriftgestaltung.Glyphs.layer.leftMetricsKey = "==H";
com.schriftgestaltung.Glyphs.layer.rightMetricsKey = "==H";
com.schriftgestaltung.Glyphs.leftMetricsKey = H;
com.schriftgestaltung.Glyphs.rightMetricsKey = H;
};
},
{
color = 5;
glyphname = N;
lastChange = "2018-05-16 00:33:18 +0000";
layers = (
{
anchors = (
{
name = bottom;
position = "{284, 0}";
},
{
name = top;
position = "{383, 700}";
}
);
layerId = "6B2E1CAF-7E84-411F-9290-838331FE9C95";
leftMetricsKey = "=H";
rightMetricsKey = "=H";
paths = (
{
closed = 1;
nodes = (
"184 0 LINE",
"219 249 LINE",
"225 385 LINE SMOOTH",
"226 398 OFFCURVE",
"237 401 OFFCURVE",
"242 390 CURVE SMOOTH",
"406 0 LINE",
"534 0 LINE",
"633 700 LINE",
"483 700 LINE",
"446 435 LINE",
"445 308 LINE SMOOTH",
"445 296 OFFCURVE",
"433 294 OFFCURVE",
"429 304 CURVE SMOOTH",
"261 700 LINE",
"133 700 LINE",
"34 0 LINE"
);
}
);
width = 640;
},
{
anchors = (
{
name = bottom;
position = "{277, 0}";
},
{
name = top;
position = "{375, 700}";
}
);
layerId = "3DBDB2C8-AF6E-4CF3-B71C-7D596AD599C8";
leftMetricsKey = "=H";
rightMetricsKey = "=H";
paths = (
{
closed = 1;
nodes = (
"135 0 LINE",
"193 414 LINE",
"196 512 LINE SMOOTH",
"196 528 OFFCURVE",
"208 532 OFFCURVE",
"213 519 CURVE SMOOTH",
"416 0 LINE",
"498 0 LINE",
"596 700 LINE",
"516 700 LINE",
"454 255 LINE",
"452 160 LINE SMOOTH",
"452 141 OFFCURVE",
"440 141 OFFCURVE",
"436 151 CURVE SMOOTH",
"223 700 LINE",
"153 700 LINE",
"55 0 LINE"
);
}
);
width = 623;
}
);
leftKerningGroup = H;
leftMetricsKey = H;
rightKerningGroup = H;
rightMetricsKey = H;
unicode = 004E;
userData = {
com.schriftgestaltung.Glyphs.ColorIndex = 3;
com.schriftgestaltung.Glyphs.layer.leftMetricsKey = "==H";
com.schriftgestaltung.Glyphs.layer.rightMetricsKey = "==H";
com.schriftgestaltung.Glyphs.leftMetricsKey = H;
com.schriftgestaltung.Glyphs.rightMetricsKey = H;
};
},
{
color = 5;
glyphname = Eng;
lastChange = "2018-05-16 00:32:49 +0000";
layers = (
{
components = (
{
name = N;
}
);
layerId = "6B2E1CAF-7E84-411F-9290-838331FE9C95";
paths = (
{
closed = 1;
nodes = (
"421 -215 OFFCURVE",
"508 -146 OFFCURVE",
"531 -17 CURVE SMOOTH",
"534 0 LINE",
"406 0 LINE",
"404 -9 LINE SMOOTH",
"395 -51 OFFCURVE",
"342 -75 OFFCURVE",
"290 -74 CURVE SMOOTH",
"255 -73 OFFCURVE",
"235 -67 OFFCURVE",
"211 -50 CURVE",
"152 -171 LINE",
"191 -198 OFFCURVE",
"226 -215 OFFCURVE",
"285 -215 CURVE SMOOTH"
);
}
);
width = 640;
},
{
components = (
{
name = N;
}
);
layerId = "3DBDB2C8-AF6E-4CF3-B71C-7D596AD599C8";
paths = (
{
closed = 1;
nodes = (
"409 -215 OFFCURVE",
"474 -159 OFFCURVE",
"488 -67 CURVE SMOOTH",
"498 0 LINE",
"418 0 LINE",
"409 -63 LINE SMOOTH",
"402 -110 OFFCURVE",
"367 -142 OFFCURVE",
"320 -142 CURVE SMOOTH",
"288 -142 OFFCURVE",
"255 -127 OFFCURVE",
"234 -101 CURVE",
"191 -160 LINE",
"223 -193 OFFCURVE",
"270 -215 OFFCURVE",
"315 -215 CURVE SMOOTH"
);
}
);
width = 623;
}
);
leftMetricsKey = N;
rightMetricsKey = N;
unicode = 014A;
},
{
color = 5;
glyphname = O;
lastChange = "2018-05-16 00:33:18 +0000";
layers = (
{
anchors = (
{
name = bottom;
position = "{274, 0}";
},
{
name = center;
position = "{323, 350}";
},
{
name = ogonek;
position = "{524, 10}";
},
{
name = top;
position = "{373, 700}";
},
{
name = topleft;
position = "{83, 700}";
},
{
name = topright;
position = "{663, 700}";
}
);
background = {
paths = (
{
closed = 1;
nodes = (
"431 -12 OFFCURVE",
"517 67 OFFCURVE",
"551 176 CURVE SMOOTH",
"580 266 OFFCURVE",
"598 383 OFFCURVE",
"598 485 CURVE SMOOTH",
"598 592 OFFCURVE",
"516 712 OFFCURVE",
"361 712 CURVE SMOOTH",
"215 712 OFFCURVE",
"129 634 OFFCURVE",
"96 524 CURVE SMOOTH",
"67 427 OFFCURVE",
"49 319 OFFCURVE",
"49 215 CURVE SMOOTH",
"49 108 OFFCURVE",
"130 -12 OFFCURVE",
"285 -12 CURVE SMOOTH"
);
},
{
closed = 1;
nodes = (
"238 129 OFFCURVE",
"206 164 OFFCURVE",
"206 223 CURVE SMOOTH",
"206 277 OFFCURVE",
"234 452 OFFCURVE",
"249 500 CURVE SMOOTH",
"263 545 OFFCURVE",
"304 571 OFFCURVE",
"350 571 CURVE SMOOTH",
"406 571 OFFCURVE",
"441 536 OFFCURVE",
"441 477 CURVE SMOOTH",
"441 419 OFFCURVE",
"414 254 OFFCURVE",
"397 200 CURVE SMOOTH",
"383 155 OFFCURVE",
"342 129 OFFCURVE",
"294 129 CURVE SMOOTH"
);
}
);
};
layerId = "6B2E1CAF-7E84-411F-9290-838331FE9C95";
paths = (
{
closed = 1;
nodes = (
"431 -12 OFFCURVE",
"517 67 OFFCURVE",
"551 176 CURVE SMOOTH",
"580 268 OFFCURVE",
"598 388 OFFCURVE",
"598 485 CURVE SMOOTH",
"598 597 OFFCURVE",
"521 712 OFFCURVE",
"361 712 CURVE SMOOTH",
"215 712 OFFCURVE",
"130 633 OFFCURVE",
"96 524 CURVE SMOOTH",
"67 432 OFFCURVE",
"49 312 OFFCURVE",
"49 215 CURVE SMOOTH",
"49 103 OFFCURVE",
"125 -12 OFFCURVE",
"285 -12 CURVE SMOOTH"
);
},
{
closed = 1;
nodes = (
"236 129 OFFCURVE",
"206 167 OFFCURVE",
"206 225 CURVE SMOOTH",
"206 275 OFFCURVE",
"227 437 OFFCURVE",
"246 491 CURVE SMOOTH",
"262 537 OFFCURVE",
"300 571 OFFCURVE",
"352 571 CURVE SMOOTH",
"410 571 OFFCURVE",
"441 533 OFFCURVE",
"441 475 CURVE SMOOTH",
"441 415 OFFCURVE",
"421 265 OFFCURVE",
"400 209 CURVE SMOOTH",
"383 163 OFFCURVE",
"346 129 OFFCURVE",
"294 129 CURVE SMOOTH"
);
}
);
width = 620;
},
{
anchors = (
{
name = bottom;
position = "{268, 0}";
},
{
name = center;
position = "{317, 350}";
},
{
name = ogonek;
position = "{511, 10}";
},
{
name = top;
position = "{362, 670}";
},
{
name = topleft;
position = "{83, 700}";
},
{
name = topright;
position = "{649, 700}";
}
);
background = {
paths = (
{
closed = 1;
nodes = (
"415 -12 OFFCURVE",
"472 10 OFFCURVE",
"512 51 CURVE SMOOTH",
"554 95 OFFCURVE",
"586 162 OFFCURVE",
"586 350 CURVE",
"586 538 OFFCURVE",
"555 606 OFFCURVE",
"512 649 CURVE SMOOTH",
"471 690 OFFCURVE",
"415 712 OFFCURVE",
"343 712 CURVE",
"271 712 OFFCURVE",
"214 690 OFFCURVE",
"174 649 CURVE SMOOTH",
"132 605 OFFCURVE",
"100 538 OFFCURVE",
"100 350 CURVE",
"100 162 OFFCURVE",
"131 94 OFFCURVE",
"174 51 CURVE SMOOTH",
"215 10 OFFCURVE",
"271 -12 OFFCURVE",
"343 -12 CURVE"
);
},
{
closed = 1;
nodes = (
"244 66 OFFCURVE",
"193 123 OFFCURVE",
"188 214 CURVE SMOOTH",
"185 272 OFFCURVE",
"182 308 OFFCURVE",
"182 350 CURVE",
"182 392 OFFCURVE",
"184 428 OFFCURVE",
"188 486 CURVE SMOOTH",
"194 577 OFFCURVE",
"244 634 OFFCURVE",
"343 634 CURVE",
"442 634 OFFCURVE",
"493 577 OFFCURVE",
"498 486 CURVE SMOOTH",
"501 428 OFFCURVE",
"504 392 OFFCURVE",
"504 350 CURVE",
"504 308 OFFCURVE",
"502 272 OFFCURVE",
"498 214 CURVE SMOOTH",
"492 123 OFFCURVE",
"442 66 OFFCURVE",
"343 66 CURVE"
);
}
);
};
layerId = "3DBDB2C8-AF6E-4CF3-B71C-7D596AD599C8";
paths = (
{
closed = 1;
nodes = (
"222 712 OFFCURVE",
"147 639 OFFCURVE",
"116 534 CURVE SMOOTH",
"84 439 OFFCURVE",
"64 308 OFFCURVE",
"64 214 CURVE SMOOTH",
"64 97 OFFCURVE",
"134 -12 OFFCURVE",
"278 -12 CURVE SMOOTH",
"412 -12 OFFCURVE",
"488 61 OFFCURVE",
"519 166 CURVE SMOOTH",
"551 264 OFFCURVE",
"571 394 OFFCURVE",
"571 486 CURVE SMOOTH",
"571 603 OFFCURVE",
"501 712 OFFCURVE",
"356 712 CURVE SMOOTH"
);
},
{
closed = 1;
nodes = (
"472 271 OFFCURVE",
"445 187 CURVE SMOOTH",
"417 94 OFFCURVE",
"355 64 OFFCURVE",
"286 64 CURVE SMOOTH",
"195 64 OFFCURVE",
"143 119 OFFCURVE",
"143 215 CURVE SMOOTH",
"143 304 OFFCURVE",
"162 429 OFFCURVE",
"190 513 CURVE SMOOTH",
"219 606 OFFCURVE",
"280 636 OFFCURVE",
"348 636 CURVE SMOOTH",
"440 636 OFFCURVE",
"492 581 OFFCURVE",
"492 485 CURVE SMOOTH",
"492 396 OFFCURVE"
);
}
);
width = 606;
},
{
anchors = (
{
name = bottom;
position = "{238, 0}";
},
{
name = center;
position = "{336, 350}";
},
{
name = ogonek;
position = "{490, 10}";
},
{
name = top;
position = "{436, 700}";
},
{
name = topleft;
position = "{146, 700}";
},
{
name = topright;
position = "{726, 700}";
}
);
associatedMasterId = "6B2E1CAF-7E84-411F-9290-838331FE9C95";
layerId = "18025181-8B99-44A8-8E42-1532E3D028D5";
name = Cursify;
paths = (
{
closed = 1;
nodes = (
"345 -12 OFFCURVE",
"415 6 OFFCURVE",
"472 51 CURVE SMOOTH",
"524 102 OFFCURVE",
"562 162 OFFCURVE",
"587 341 CURVE SMOOTH",
"614 530 OFFCURVE",
"588 592 OFFCURVE",
"545 635 CURVE SMOOTH",
"505 688 OFFCURVE",
"440 712 OFFCURVE",
"367 712 CURVE SMOOTH",
"302 712 OFFCURVE",
"232 694 OFFCURVE",
"174 649 CURVE SMOOTH",
"123 598 OFFCURVE",
"85 538 OFFCURVE",
"60 359 CURVE SMOOTH",
"33 170 OFFCURVE",
"59 108 OFFCURVE",
"102 65 CURVE SMOOTH",
"141 12 OFFCURVE",
"207 -12 OFFCURVE",
"280 -12 CURVE SMOOTH"
);
},
{
closed = 1;
nodes = (
"233 129 OFFCURVE",
"202 162 OFFCURVE",
"205 218 CURVE SMOOTH",
"209 261 OFFCURVE",
"213 303 OFFCURVE",
"218 341 CURVE SMOOTH",
"225 389 OFFCURVE",
"233 431 OFFCURVE",
"241 464 CURVE SMOOTH",
"254 530 OFFCURVE",
"302 571 OFFCURVE",
"362 571 CURVE SMOOTH",
"414 571 OFFCURVE",
"445 538 OFFCURVE",
"441 482 CURVE SMOOTH",
"438 439 OFFCURVE",
"434 397 OFFCURVE",
"429 359 CURVE SMOOTH",
"422 311 OFFCURVE",
"414 269 OFFCURVE",
"406 236 CURVE SMOOTH",
"393 170 OFFCURVE",
"345 129 OFFCURVE",
"285 129 CURVE SMOOTH"
);
}
);
width = 620;
},
{
anchors = (
{
name = bottom;
position = "{202, 0}";
},
{
name = center;
position = "{350, 350}";
},
{
name = ogonek;
position = "{455, 10}";
},
{
name = top;
position = "{498, 700}";
},
{
name = topleft;
position = "{208, 700}";
},
{
name = topright;
position = "{788, 700}";
}
);
associatedMasterId = "6B2E1CAF-7E84-411F-9290-838331FE9C95";
layerId = "3D8AB01A-8BE4-466F-9AAE-649B1211A019";
name = Slanted;
paths = (
{
closed = 1;
nodes = (
"341 -12 OFFCURVE",
"412 9 OFFCURVE",
"468 58 CURVE SMOOTH",
"522 105 OFFCURVE",
"562 166 OFFCURVE",
"588 350 CURVE SMOOTH",
"614 534 OFFCURVE",
"591 595 OFFCURVE",
"550 642 CURVE SMOOTH",
"508 691 OFFCURVE",
"443 712 OFFCURVE",
"374 712 CURVE SMOOTH",
"305 712 OFFCURVE",
"234 691 OFFCURVE",
"178 642 CURVE SMOOTH",
"125 595 OFFCURVE",
"84 534 OFFCURVE",
"58 350 CURVE SMOOTH",
"32 166 OFFCURVE",
"56 105 OFFCURVE",
"96 58 CURVE SMOOTH",
"138 9 OFFCURVE",
"203 -12 OFFCURVE",
"272 -12 CURVE SMOOTH"
);
},
{
closed = 1;
nodes = (
"236 129 OFFCURVE",
"202 166 OFFCURVE",
"207 227 CURVE SMOOTH",
"209 265 OFFCURVE",
"213 307 OFFCURVE",
"219 350 CURVE SMOOTH",
"225 393 OFFCURVE",
"233 435 OFFCURVE",
"242 473 CURVE SMOOTH",
"254 534 OFFCURVE",
"298 571 OFFCURVE",
"354 571 CURVE SMOOTH",
"410 571 OFFCURVE",
"444 534 OFFCURVE",
"440 473 CURVE SMOOTH",
"437 435 OFFCURVE",
"433 393 OFFCURVE",
"427 350 CURVE SMOOTH",
"421 307 OFFCURVE",
"413 265 OFFCURVE",
"405 227 CURVE SMOOTH",
"392 166 OFFCURVE",
"348 129 OFFCURVE",
"292 129 CURVE SMOOTH"
);
}
);
width = 620;
}
);
leftKerningGroup = O;
rightKerningGroup = O;
unicode = 004F;
userData = {
com.schriftgestaltung.Glyphs.ColorIndex = 3;
};
},
{
color = 5;
glyphname = OE;
lastChange = "2018-05-16 00:32:49 +0000";
layers = (
{
anchors = (
{
name = bottom;
position = "{456, 0}";
},
{
name = center;
position = "{323, 350}";
},
{
name = ogonek;
position = "{524, 10}";
},
{
name = top;
position = "{456, 700}";
},
{
name = topleft;
position = "{83, 700}";
},
{
name = topright;
position = "{663, 700}";
}
);
background = {
paths = (
{
closed = 1;
nodes = (
"303 -12 OFFCURVE",
"330 -10 OFFCURVE",
"357 -3 CURVE",
"388 11 LINE SMOOTH",
"395 16 OFFCURVE",
"399 19 OFFCURVE",
"398 10 CURVE SMOOTH",
"396 0 LINE",
"826 0 LINE",
"846 140 LINE",
"561 140 LINE",
"581 285 LINE",
"849 285 LINE",
"867 415 LINE",
"599 415 LINE",
"620 560 LINE",
"905 560 LINE",
"925 700 LINE",
"495 700 LINE",
"494 698 LINE SMOOTH",
"493 689 OFFCURVE",
"482 679 OFFCURVE",
"475 684 CURVE SMOOTH",
"451 700 LINE",
"426 707 OFFCURVE",
"399 712 OFFCURVE",
"367 712 CURVE SMOOTH",
"302 712 OFFCURVE",
"232 694 OFFCURVE",
"174 649 CURVE SMOOTH",
"123 598 OFFCURVE",
"85 538 OFFCURVE",
"60 359 CURVE SMOOTH",
"33 170 OFFCURVE",
"59 108 OFFCURVE",
"102 65 CURVE SMOOTH",
"141 12 OFFCURVE",
"207 -12 OFFCURVE",
"280 -12 CURVE SMOOTH"
);
},
{
closed = 1;
nodes = (
"233 129 OFFCURVE",
"202 162 OFFCURVE",
"205 218 CURVE SMOOTH",
"209 261 OFFCURVE",
"213 303 OFFCURVE",
"218 341 CURVE SMOOTH",
"225 389 OFFCURVE",
"233 431 OFFCURVE",
"241 464 CURVE SMOOTH",
"254 530 OFFCURVE",
"302 571 OFFCURVE",
"362 571 CURVE SMOOTH",
"414 571 OFFCURVE",
"445 538 OFFCURVE",
"441 482 CURVE SMOOTH",
"438 439 OFFCURVE",
"434 397 OFFCURVE",
"429 359 CURVE SMOOTH",
"422 311 OFFCURVE",
"414 269 OFFCURVE",
"406 236 CURVE SMOOTH",
"393 170 OFFCURVE",
"345 129 OFFCURVE",
"285 129 CURVE SMOOTH"
);
}
);
};
layerId = "6B2E1CAF-7E84-411F-9290-838331FE9C95";
paths = (
{
closed = 1;
nodes = (
"925 700 LINE",
"503 700 LINE",
"497 675 LINE SMOOTH",
"495 666 OFFCURVE",
"487 661 OFFCURVE",
"479 669 CURVE SMOOTH",
"448 700 LINE",
"430 707 OFFCURVE",
"392 712 OFFCURVE",
"361 712 CURVE SMOOTH",
"215 712 OFFCURVE",
"130 633 OFFCURVE",
"96 524 CURVE SMOOTH",
"67 432 OFFCURVE",
"49 312 OFFCURVE",
"49 215 CURVE SMOOTH",
"49 103 OFFCURVE",
"125 -12 OFFCURVE",
"285 -12 CURVE SMOOTH",
"314 -12 OFFCURVE",
"325 -9 OFFCURVE",
"339 -5 CURVE",
"387 28 LINE SMOOTH",
"397 35 OFFCURVE",
"402 29 OFFCURVE",
"401 23 CURVE SMOOTH",
"398 0 LINE",
"826 0 LINE",
"846 140 LINE",
"561 140 LINE",
"581 285 LINE",
"849 285 LINE",
"867 415 LINE",
"599 415 LINE",
"620 560 LINE",
"905 560 LINE"
);
},
{
closed = 1;
nodes = (
"236 129 OFFCURVE",
"206 167 OFFCURVE",
"206 225 CURVE SMOOTH",
"206 275 OFFCURVE",
"227 437 OFFCURVE",
"246 491 CURVE SMOOTH",
"262 537 OFFCURVE",
"300 571 OFFCURVE",
"352 571 CURVE SMOOTH",
"410 571 OFFCURVE",
"441 533 OFFCURVE",
"441 475 CURVE SMOOTH",
"441 415 OFFCURVE",
"421 265 OFFCURVE",
"400 209 CURVE SMOOTH",
"383 163 OFFCURVE",
"346 129 OFFCURVE",
"294 129 CURVE SMOOTH"
);
}
);
width = 912;
},
{
anchors = (
{
name = bottom;
position = "{431, 0}";
},
{
name = top;
position = "{529, 700}";
}
);
background = {
anchors = (
{
name = bottom;
position = "{268, 0}";
},
{
name = center;
position = "{317, 350}";
},
{
name = ogonek;
position = "{511, 10}";
},
{
name = top;
position = "{362, 670}";
},
{
name = topleft;
position = "{83, 700}";
},
{
name = topright;
position = "{649, 700}";
}
);
};
layerId = "3DBDB2C8-AF6E-4CF3-B71C-7D596AD599C8";
paths = (
{
closed = 1;
nodes = (
"935 700 LINE",
"532 700 LINE",
"524 648 LINE SMOOTH",
"523 639 OFFCURVE",
"514 638 OFFCURVE",
"508 643 CURVE SMOOTH",
"467 683 LINE",
"449 695 OFFCURVE",
"412 712 OFFCURVE",
"356 712 CURVE SMOOTH",
"222 712 OFFCURVE",
"147 639 OFFCURVE",
"116 534 CURVE",
"84 439 OFFCURVE",
"64 308 OFFCURVE",
"64 214 CURVE SMOOTH",
"64 97 OFFCURVE",
"134 -12 OFFCURVE",
"278 -12 CURVE SMOOTH",
"329 -12 OFFCURVE",
"358 2 OFFCURVE",
"367 6 CURVE",
"421 40 LINE SMOOTH",
"433 48 OFFCURVE",
"439 41 OFFCURVE",
"438 35 CURVE SMOOTH",
"434 0 LINE",
"837 0 LINE",
"848 78 LINE",
"523 78 LINE",
"556 311 LINE",
"864 311 LINE",
"875 389 LINE",
"567 389 LINE",
"599 622 LINE",
"924 622 LINE"
);
},
{
closed = 1;
nodes = (
"143 304 OFFCURVE",
"162 429 OFFCURVE",
"190 513 CURVE SMOOTH",
"219 606 OFFCURVE",
"280 636 OFFCURVE",
"348 636 CURVE SMOOTH",
"440 636 OFFCURVE",
"492 581 OFFCURVE",
"492 485 CURVE SMOOTH",
"492 396 OFFCURVE",
"472 271 OFFCURVE",
"445 187 CURVE SMOOTH",
"417 94 OFFCURVE",
"355 64 OFFCURVE",
"286 64 CURVE SMOOTH",
"195 64 OFFCURVE",
"143 119 OFFCURVE",
"143 215 CURVE SMOOTH"
);
}
);
width = 932;
}
);
leftKerningGroup = O;
leftMetricsKey = O;
rightKerningGroup = E;
rightMetricsKey = E;
unicode = 0152;
userData = {
com.schriftgestaltung.Glyphs.leftMetricsKey = O;
com.schriftgestaltung.Glyphs.rightMetricsKey = E;
};
},
{
color = 5;
glyphname = P;
lastChange = "2018-05-16 00:33:18 +0000";
layers = (
{
anchors = (
{
name = bottom;
position = "{290, 0}";
},
{
name = top;
position = "{290, 700}";
}
);
layerId = "6B2E1CAF-7E84-411F-9290-838331FE9C95";
leftMetricsKey = "=H";
paths = (
{
closed = 1;
nodes = (
"193 0 LINE",
"233 280 LINE",
"341 280 LINE SMOOTH",
"486 280 OFFCURVE",
"583 369 OFFCURVE",
"583 509 CURVE SMOOTH",
"583 625 OFFCURVE",
"503 700 OFFCURVE",
"383 700 CURVE SMOOTH",
"133 700 LINE",
"34 0 LINE"
);
},
{
closed = 1;
nodes = (
"273 570 LINE",
"372 570 LINE SMOOTH",
"427 570 OFFCURVE",
"439 536 OFFCURVE",
"439 501 CURVE SMOOTH",
"439 454 OFFCURVE",
"406 410 OFFCURVE",
"352 410 CURVE SMOOTH",
"251 410 LINE"
);
}
);
width = 580;
},
{
anchors = (
{
name = bottom;
position = "{242, 0}";
},
{
name = top;
position = "{336, 670}";
}
);
layerId = "3DBDB2C8-AF6E-4CF3-B71C-7D596AD599C8";
leftMetricsKey = "=H";
paths = (
{
closed = 1;
nodes = (
"135 0 LINE",
"178 311 LINE",
"341 311 LINE SMOOTH",
"477 311 OFFCURVE",
"562 403 OFFCURVE",
"562 535 CURVE SMOOTH",
"562 622 OFFCURVE",
"501 700 OFFCURVE",
"391 700 CURVE SMOOTH",
"153 700 LINE",
"55 0 LINE"
);
},
{
closed = 1;
nodes = (
"223 630 LINE",
"375 630 LINE SMOOTH",
"439 630 OFFCURVE",
"485 597 OFFCURVE",
"485 535 CURVE SMOOTH",
"485 423 OFFCURVE",
"429 384 OFFCURVE",
"337 384 CURVE SMOOTH",
"189 384 LINE"
);
}
);
width = 553;
}
);
leftKerningGroup = H;
leftMetricsKey = H;
rightKerningGroup = P;
unicode = 0050;
userData = {
com.schriftgestaltung.Glyphs.ColorIndex = 3;
com.schriftgestaltung.Glyphs.layer.leftMetricsKey = "==H";
com.schriftgestaltung.Glyphs.leftMetricsKey = H;
};
},
{
color = 5;
glyphname = Thorn;
lastChange = "2018-05-16 00:32:49 +0000";
layers = (
{
anchors = (
{
name = bottom;
position = "{254, 0}";
},
{
name = top;
position = "{353, 700}";
}
);
background = {
anchors = (
{
name = bottom;
position = "{254, 0}";
},
{
name = top;
position = "{353, 700}";
}
);
paths = (
{
closed = 1;
nodes = (
"193 0 LINE",
"214 150 LINE",
"324 150 LINE SMOOTH",
"457 150 OFFCURVE",
"546 227 OFFCURVE",
"563 347 CURVE SMOOTH",
"582 485 OFFCURVE",
"509 570 OFFCURVE",
"376 570 CURVE SMOOTH",
"273 570 LINE",
"292 700 LINE",
"133 700 LINE",
"34 0 LINE"
);
},
{
closed = 1;
nodes = (
"255 440 LINE",
"365 440 LINE SMOOTH",
"409 440 OFFCURVE",
"428 415 OFFCURVE",
"421 368 CURVE SMOOTH",
"414 317 OFFCURVE",
"379 280 OFFCURVE",
"335 280 CURVE SMOOTH",
"233 280 LINE"
);
}
);
};
layerId = "6B2E1CAF-7E84-411F-9290-838331FE9C95";
paths = (
{
closed = 1;
nodes = (
"193 0 LINE",
"214 150 LINE",
"322 150 LINE SMOOTH",
"467 150 OFFCURVE",
"564 239 OFFCURVE",
"564 379 CURVE SMOOTH",
"564 495 OFFCURVE",
"484 570 OFFCURVE",
"364 570 CURVE SMOOTH",
"273 570 LINE",
"292 700 LINE",
"133 700 LINE",
"34 0 LINE"
);
},
{
closed = 1;
nodes = (
"254 440 LINE",
"353 440 LINE SMOOTH",
"408 440 OFFCURVE",
"420 406 OFFCURVE",
"420 371 CURVE SMOOTH",
"420 324 OFFCURVE",
"387 280 OFFCURVE",
"333 280 CURVE SMOOTH",
"232 280 LINE"
);
}
);
width = 580;
},
{
anchors = (
{
name = bottom;
position = "{242, 0}";
},
{
name = top;
position = "{336, 670}";
}
);
background = {
anchors = (
{
name = bottom;
position = "{242, 0}";
},
{
name = top;
position = "{340, 700}";
}
);
paths = (
{
closed = 1;
nodes = (
"135 0 LINE",
"158 165 LINE",
"320 165 LINE SMOOTH",
"439 165 OFFCURVE",
"521 236 OFFCURVE",
"537 352 CURVE SMOOTH",
"555 475 OFFCURVE",
"490 555 OFFCURVE",
"371 555 CURVE SMOOTH",
"213 555 LINE",
"233 700 LINE",
"153 700 LINE",
"55 0 LINE"
);
},
{
closed = 1;
nodes = (
"203 484 LINE",
"355 484 LINE SMOOTH",
"430 484 OFFCURVE",
"468 437 OFFCURVE",
"458 362 CURVE SMOOTH",
"447 284 OFFCURVE",
"391 238 OFFCURVE",
"316 238 CURVE SMOOTH",
"168 238 LINE"
);
}
);
};
layerId = "3DBDB2C8-AF6E-4CF3-B71C-7D596AD599C8";
paths = (
{
closed = 1;
nodes = (
"135 0 LINE",
"158 165 LINE",
"321 165 LINE SMOOTH",
"457 165 OFFCURVE",
"542 257 OFFCURVE",
"542 388 CURVE SMOOTH",
"542 476 OFFCURVE",
"481 554 OFFCURVE",
"371 554 CURVE SMOOTH",
"212 554 LINE",
"232 700 LINE",
"153 700 LINE",
"55 0 LINE"
);
},
{
closed = 1;
nodes = (
"203 484 LINE",
"355 484 LINE SMOOTH",
"419 484 OFFCURVE",
"465 451 OFFCURVE",
"465 378 CURVE SMOOTH",
"465 280 OFFCURVE",
"412 238 OFFCURVE",
"317 238 CURVE SMOOTH",
"169 238 LINE"
);
}
);
width = 553;
}
);
leftKerningGroup = H;
leftMetricsKey = H;
rightKerningGroup = Thorn;
unicode = 00DE;
userData = {
com.schriftgestaltung.Glyphs.leftMetricsKey = H;
};
},
{
color = 5;
glyphname = Q;
lastChange = "2018-05-16 00:33:18 +0000";
layers = (
{
anchors = (
{
name = bottom;
position = "{274, 0}";
},
{
name = top;
position = "{373, 700}";
}
);
layerId = "6B2E1CAF-7E84-411F-9290-838331FE9C95";
leftMetricsKey = "=O";
rightMetricsKey = "=O";
paths = (
{
closed = 1;
nodes = (
"464 -60 LINE",
"433 30 LINE",
"494 60 OFFCURVE",
"531 112 OFFCURVE",
"551 176 CURVE SMOOTH",
"579 266 OFFCURVE",
"598 383 OFFCURVE",
"598 485 CURVE SMOOTH",
"598 592 OFFCURVE",
"516 712 OFFCURVE",
"361 712 CURVE SMOOTH",
"215 712 OFFCURVE",
"129 634 OFFCURVE",
"96 524 CURVE SMOOTH",
"67 427 OFFCURVE",
"49 319 OFFCURVE",
"49 215 CURVE SMOOTH",
"49 108 OFFCURVE",
"130 -12 OFFCURVE",
"285 -12 CURVE SMOOTH",
"295 -12 OFFCURVE",
"301 -12 OFFCURVE",
"306 -12 CURVE",
"337 -115 LINE"
);
},
{
closed = 1;
nodes = (
"237 122 OFFCURVE",
"196 164 OFFCURVE",
"196 223 CURVE SMOOTH",
"196 277 OFFCURVE",
"226 451 OFFCURVE",
"238 490 CURVE SMOOTH",
"255 545 OFFCURVE",
"305 573 OFFCURVE",
"351 573 CURVE SMOOTH",
"411 573 OFFCURVE",
"451 537 OFFCURVE",
"451 477 CURVE SMOOTH",
"451 419 OFFCURVE",
"424 254 OFFCURVE",
"407 200 CURVE SMOOTH",
"403 189 OFFCURVE",
"398 179 OFFCURVE",
"390 170 CURVE",
"353 285 LINE",
"233 232 LINE",
"250 172 LINE",
"296 143 LINE SMOOTH",
"302 139 OFFCURVE",
"304 136 OFFCURVE",
"304 132 CURVE SMOOTH",
"304 127 OFFCURVE",
"300 122 OFFCURVE",
"290 122 CURVE SMOOTH"
);
}
);
width = 620;
},
{
anchors = (
{
name = bottom;
position = "{268, 0}";
},
{
name = top;
position = "{362, 670}";
}
);
background = {
components = (
{
name = O;
}
);
};
layerId = "3DBDB2C8-AF6E-4CF3-B71C-7D596AD599C8";
leftMetricsKey = "=O";
rightMetricsKey = "=O";
paths = (
{
closed = 1;
nodes = (
"455 -86 LINE",
"416 21 LINE",
"469 52 OFFCURVE",
"500 104 OFFCURVE",
"520 166 CURVE SMOOTH",
"552 264 OFFCURVE",
"571 395 OFFCURVE",
"571 490 CURVE SMOOTH",
"571 602 OFFCURVE",
"500 712 OFFCURVE",
"359 712 CURVE SMOOTH",
"223 712 OFFCURVE",
"147 639 OFFCURVE",
"116 534 CURVE SMOOTH",
"88 438 OFFCURVE",
"63 312 OFFCURVE",
"63 229 CURVE SMOOTH",
"63 101 OFFCURVE",
"134 -12 OFFCURVE",
"273 -12 CURVE SMOOTH",
"297 -12 OFFCURVE",
"320 -10 OFFCURVE",
"340 -7 CURVE",
"381 -118 LINE"
);
},
{
closed = 1;
nodes = (
"197 64 OFFCURVE",
"143 119 OFFCURVE",
"143 221 CURVE SMOOTH",
"143 302 OFFCURVE",
"162 426 OFFCURVE",
"190 513 CURVE SMOOTH",
"222 609 OFFCURVE",
"282 636 OFFCURVE",
"351 636 CURVE SMOOTH",
"439 636 OFFCURVE",
"492 581 OFFCURVE",
"492 485 CURVE SMOOTH",
"492 396 OFFCURVE",
"475 271 OFFCURVE",
"448 187 CURVE SMOOTH",
"434 143 OFFCURVE",
"414 114 OFFCURVE",
"389 94 CURVE",
"330 256 LINE",
"256 223 LINE",
"292 126 LINE SMOOTH",
"301 103 OFFCURVE",
"324 96 OFFCURVE",
"324 83 CURVE SMOOTH",
"324 71 OFFCURVE",
"307 64 OFFCURVE",
"283 64 CURVE SMOOTH"
);
}
);
width = 606;
}
);
leftKerningGroup = O;
leftMetricsKey = O;
rightKerningGroup = O;
rightMetricsKey = O;
unicode = 0051;
userData = {
com.schriftgestaltung.Glyphs.ColorIndex = 3;
com.schriftgestaltung.Glyphs.layer.leftMetricsKey = "==O";
com.schriftgestaltung.Glyphs.layer.rightMetricsKey = "==O";
com.schriftgestaltung.Glyphs.leftMetricsKey = O;
com.schriftgestaltung.Glyphs.rightMetricsKey = O;
};
},
{
color = 5;
glyphname = R;
lastChange = "2018-05-16 00:33:18 +0000";
layers = (
{
anchors = (
{
name = bottom;
position = "{264, 0}";
},
{
name = top;
position = "{363, 700}";
}
);
layerId = "6B2E1CAF-7E84-411F-9290-838331FE9C95";
leftMetricsKey = "=H";
paths = (
{
closed = 1;
nodes = (
"194 0 LINE",
"234 280 LINE",
"295 280 LINE",
"358 0 LINE",
"515 0 LINE",
"463 227 LINE",
"434 273 LINE SMOOTH",
"430 283 OFFCURVE",
"433 288 OFFCURVE",
"443 291 CURVE SMOOTH",
"538 324 OFFCURVE",
"602 404 OFFCURVE",
"602 505 CURVE SMOOTH",
"602 622 OFFCURVE",
"522 700 OFFCURVE",
"380 700 CURVE SMOOTH",
"133 700 LINE",
"34 0 LINE"
);
},
{
closed = 1;
nodes = (
"273 570 LINE",
"375 570 LINE SMOOTH",
"431 570 OFFCURVE",
"460 543 OFFCURVE",
"460 493 CURVE SMOOTH",
"460 446 OFFCURVE",
"426 410 OFFCURVE",
"375 410 CURVE SMOOTH",
"251 410 LINE"
);
}
);
width = 600;
},
{
anchors = (
{
name = bottom;
position = "{247, 0}";
},
{
name = top;
position = "{341, 670}";
}
);
layerId = "3DBDB2C8-AF6E-4CF3-B71C-7D596AD599C8";
leftMetricsKey = "=H";
paths = (
{
closed = 1;
nodes = (
"135 0 LINE",
"178 311 LINE",
"317 311 LINE",
"386 0 LINE",
"474 0 LINE",
"425 227 LINE",
"394 299 LINE SMOOTH",
"390 309 OFFCURVE",
"395 316 OFFCURVE",
"407 319 CURVE SMOOTH",
"506 347 OFFCURVE",
"562 427 OFFCURVE",
"562 524 CURVE SMOOTH",
"562 622 OFFCURVE",
"501 700 OFFCURVE",
"391 700 CURVE SMOOTH",
"153 700 LINE",
"55 0 LINE"
);
},
{
closed = 1;
nodes = (
"223 630 LINE",
"375 630 LINE SMOOTH",
"439 630 OFFCURVE",
"485 597 OFFCURVE",
"485 524 CURVE SMOOTH",
"485 423 OFFCURVE",
"429 384 OFFCURVE",
"337 384 CURVE SMOOTH",
"189 384 LINE"
);
}
);
width = 563;
}
);
leftKerningGroup = H;
leftMetricsKey = H;
rightKerningGroup = R;
unicode = 0052;
userData = {
com.schriftgestaltung.Glyphs.ColorIndex = 3;
com.schriftgestaltung.Glyphs.layer.leftMetricsKey = "==H";
com.schriftgestaltung.Glyphs.leftMetricsKey = H;
};
},
{
color = 5;
glyphname = S;
lastChange = "2018-05-16 00:33:18 +0000";
layers = (
{
anchors = (
{
name = bottom;
position = "{211, 0}";
},
{
name = top;
position = "{309, 700}";
}
);
background = {
anchors = (
{
name = bottom;
position = "{427, 0}";
},
{
name = top;
position = "{427, 700}";
}
);
components = (
{
name = O;
}
);
paths = (
{
closed = 1;
nodes = (
"438 -10 OFFCURVE",
"528 68 OFFCURVE",
"528 217 CURVE SMOOTH",
"528 342 OFFCURVE",
"453 420 OFFCURVE",
"321 436 CURVE SMOOTH",
"281 441 LINE SMOOTH",
"240 446 OFFCURVE",
"217 466 OFFCURVE",
"217 505 CURVE SMOOTH",
"217 541 OFFCURVE",
"245 574 OFFCURVE",
"323 574 CURVE SMOOTH",
"375 574 OFFCURVE",
"422 562 OFFCURVE",
"469 537 CURVE",
"513 655 LINE",
"472 686 OFFCURVE",
"406 712 OFFCURVE",
"318 712 CURVE SMOOTH",
"150 712 OFFCURVE",
"67 626 OFFCURVE",
"67 495 CURVE SMOOTH",
"67 373 OFFCURVE",
"152 312 OFFCURVE",
"261 297 CURVE SMOOTH",
"298 292 LINE SMOOTH",
"351 285 OFFCURVE",
"378 255 OFFCURVE",
"378 210 CURVE SMOOTH",
"378 156 OFFCURVE",
"337 128 OFFCURVE",
"275 128 CURVE SMOOTH",
"209 128 OFFCURVE",
"166 143 OFFCURVE",
"104 180 CURVE",
"58 54 LINE",
"125 11 OFFCURVE",
"188 -10 OFFCURVE",
"279 -10 CURVE SMOOTH"
);
}
);
};
layerId = "6B2E1CAF-7E84-411F-9290-838331FE9C95";
paths = (
{
closed = 1;
nodes = (
"366 -10 OFFCURVE",
"487 69 OFFCURVE",
"485 227 CURVE SMOOTH",
"483 335 OFFCURVE",
"418 401 OFFCURVE",
"297 435 CURVE SMOOTH",
"271 442 LINE SMOOTH",
"234 452 OFFCURVE",
"221 469 OFFCURVE",
"221 495 CURVE SMOOTH",
"221 531 OFFCURVE",
"255 574 OFFCURVE",
"339 574 CURVE SMOOTH",
"388 574 OFFCURVE",
"435 561 OFFCURVE",
"478 536 CURVE",
"522 655 LINE",
"486 683 OFFCURVE",
"423 712 OFFCURVE",
"328 712 CURVE SMOOTH",
"185 712 OFFCURVE",
"71 627 OFFCURVE",
"71 491 CURVE SMOOTH",
"71 380 OFFCURVE",
"152 317 OFFCURVE",
"246 292 CURVE SMOOTH",
"276 284 LINE SMOOTH",
"320 272 OFFCURVE",
"335 248 OFFCURVE",
"335 219 CURVE SMOOTH",
"335 167 OFFCURVE",
"288 128 OFFCURVE",
"220 128 CURVE SMOOTH",
"151 128 OFFCURVE",
"106 142 OFFCURVE",
"44 180 CURVE",
"-2 54 LINE",
"59 12 OFFCURVE",
"119 -10 OFFCURVE",
"213 -10 CURVE SMOOTH"
);
}
);
width = 520;
},
{
anchors = (
{
name = bottom;
position = "{193, 0}";
},
{
name = top;
position = "{287, 670}";
}
);
background = {
paths = (
{
closed = 1;
nodes = (
"362 -10 OFFCURVE",
"477 58 OFFCURVE",
"475 227 CURVE SMOOTH",
"473 339 OFFCURVE",
"421 397 OFFCURVE",
"300 431 CURVE SMOOTH",
"261 442 LINE SMOOTH",
"227 452 OFFCURVE",
"211 473 OFFCURVE",
"211 498 CURVE SMOOTH",
"211 544 OFFCURVE",
"240 574 OFFCURVE",
"329 574 CURVE SMOOTH",
"378 574 OFFCURVE",
"425 561 OFFCURVE",
"468 536 CURVE",
"512 655 LINE",
"476 683 OFFCURVE",
"413 712 OFFCURVE",
"329 712 CURVE SMOOTH",
"168 712 OFFCURVE",
"61 633 OFFCURVE",
"61 491 CURVE SMOOTH",
"61 375 OFFCURVE",
"133 319 OFFCURVE",
"214 298 CURVE SMOOTH",
"260 286 LINE SMOOTH",
"307 274 OFFCURVE",
"325 250 OFFCURVE",
"325 212 CURVE SMOOTH",
"325 158 OFFCURVE",
"284 128 OFFCURVE",
"210 128 CURVE SMOOTH",
"141 128 OFFCURVE",
"96 142 OFFCURVE",
"34 180 CURVE",
"-12 54 LINE",
"49 12 OFFCURVE",
"109 -10 OFFCURVE",
"203 -10 CURVE SMOOTH"
);
},
{
closed = 1;
nodes = (
"426 -10 OFFCURVE",
"509 80 OFFCURVE",
"509 201 CURVE SMOOTH",
"509 310 OFFCURVE",
"444 388 OFFCURVE",
"323 401 CURVE SMOOTH",
"275 406 LINE SMOOTH",
"211 413 OFFCURVE",
"169 447 OFFCURVE",
"169 518 CURVE SMOOTH",
"169 587 OFFCURVE",
"222 635 OFFCURVE",
"318 635 CURVE SMOOTH",
"366 635 OFFCURVE",
"420 623 OFFCURVE",
"468 590 CURVE",
"493 660 LINE",
"439 694 OFFCURVE",
"376 710 OFFCURVE",
"317 710 CURVE SMOOTH",
"175 710 OFFCURVE",
"87 626 OFFCURVE",
"87 513 CURVE SMOOTH",
"87 404 OFFCURVE",
"153 340 OFFCURVE",
"265 328 CURVE SMOOTH",
"313 323 LINE SMOOTH",
"397 314 OFFCURVE",
"428 260 OFFCURVE",
"428 196 CURVE SMOOTH",
"428 120 OFFCURVE",
"380 67 OFFCURVE",
"285 67 CURVE SMOOTH",
"223 67 OFFCURVE",
"160 89 OFFCURVE",
"116 128 CURVE",
"86 58 LINE",
"135 17 OFFCURVE",
"212 -10 OFFCURVE",
"289 -10 CURVE SMOOTH"
);
}
);
};
layerId = "3DBDB2C8-AF6E-4CF3-B71C-7D596AD599C8";
paths = (
{
closed = 1;
nodes = (
"332 -10 OFFCURVE",
"432 98 OFFCURVE",
"432 212 CURVE SMOOTH",
"432 309 OFFCURVE",
"381 368 OFFCURVE",
"283 402 CURVE SMOOTH",
"248 414 LINE SMOOTH",
"199 431 OFFCURVE",
"169 464 OFFCURVE",
"169 510 CURVE SMOOTH",
"169 569 OFFCURVE",
"217 635 OFFCURVE",
"327 635 CURVE SMOOTH",
"364 635 OFFCURVE",
"420 624 OFFCURVE",
"469 590 CURVE",
"494 660 LINE",
"441 693 OFFCURVE",
"379 710 OFFCURVE",
"328 710 CURVE SMOOTH",
"164 710 OFFCURVE",
"88 606 OFFCURVE",
"88 510 CURVE SMOOTH",
"88 418 OFFCURVE",
"151 364 OFFCURVE",
"226 338 CURVE SMOOTH",
"266 324 LINE SMOOTH",
"321 305 OFFCURVE",
"351 267 OFFCURVE",
"351 218 CURVE SMOOTH",
"351 143 OFFCURVE",
"287 67 OFFCURVE",
"189 67 CURVE SMOOTH",
"133 67 OFFCURVE",
"68 88 OFFCURVE",
"27 128 CURVE",
"-3 58 LINE",
"34 23 OFFCURVE",
"113 -10 OFFCURVE",
"191 -10 CURVE SMOOTH"
);
}
);
width = 483;
}
);
leftKerningGroup = S;
rightKerningGroup = S;
unicode = 0053;
userData = {
com.schriftgestaltung.Glyphs.ColorIndex = 3;
com.typemytype.robofont.layerData = {
background = {
anchors = (
);
components = (
);
contours = (
{
points = (
{
smooth = 0;
x = 389;
y = 562;
},
{
smooth = 0;
x = 346;
y = 574;
},
{
segmentType = curve;
smooth = 1;
x = 290;
y = 574;
},
{
smooth = 0;
x = 204;
y = 574;
},
{
smooth = 0;
x = 174;
y = 537;
},
{
segmentType = curve;
smooth = 1;
x = 174;
y = 499;
},
{
smooth = 0;
x = 174;
y = 463;
},
{
smooth = 0;
x = 196;
y = 444;
},
{
segmentType = curve;
smooth = 1;
x = 238;
y = 441;
},
{
segmentType = line;
smooth = 1;
x = 311;
y = 435;
},
{
smooth = 0;
x = 434;
y = 425;
},
{
smooth = 0;
x = 509;
y = 341;
},
{
segmentType = curve;
smooth = 1;
x = 509;
y = 224;
},
{
smooth = 0;
x = 509;
y = 82;
},
{
smooth = 0;
x = 419;
y = -10;
},
{
segmentType = curve;
smooth = 1;
x = 249;
y = -10;
},
{
smooth = 0;
x = 154;
y = -10;
},
{
smooth = 0;
x = 93;
y = 11;
},
{
segmentType = curve;
smooth = 0;
x = 23;
y = 64;
},
{
segmentType = line;
smooth = 0;
x = 69;
y = 190;
},
{
smooth = 0;
x = 135;
y = 143;
},
{
smooth = 0;
x = 175;
y = 128;
},
{
segmentType = curve;
smooth = 1;
x = 245;
y = 128;
},
{
smooth = 0;
x = 318;
y = 128;
},
{
smooth = 0;
x = 359;
y = 160;
},
{
segmentType = curve;
smooth = 1;
x = 359;
y = 218;
},
{
smooth = 0;
x = 359;
y = 259;
},
{
smooth = 0;
x = 335;
y = 287;
},
{
segmentType = curve;
smooth = 1;
x = 280;
y = 292;
},
{
segmentType = line;
smooth = 1;
x = 210;
y = 298;
},
{
smooth = 0;
x = 103;
y = 307;
},
{
smooth = 0;
x = 24;
y = 377;
},
{
segmentType = curve;
smooth = 1;
x = 24;
y = 489;
},
{
smooth = 0;
x = 24;
y = 615;
},
{
smooth = 0;
x = 112;
y = 712;
},
{
segmentType = curve;
smooth = 1;
x = 285;
y = 712;
},
{
smooth = 0;
x = 378;
y = 712;
},
{
smooth = 0;
x = 435;
y = 686;
},
{
segmentType = curve;
smooth = 0;
x = 483;
y = 655;
},
{
segmentType = line;
smooth = 0;
x = 439;
y = 537;
}
);
}
);
lib = {
};
name = S;
unicodes = (
);
width = 503;
};
};
};
},
{
color = 5;
glyphname = T;
lastChange = "2018-05-16 00:33:18 +0000";
layers = (
{
anchors = (
{
name = bottom;
position = "{219, 0}";
},
{
name = center;
position = "{268, 350}";
},
{
name = top;
position = "{318, 700}";
}
);
layerId = "6B2E1CAF-7E84-411F-9290-838331FE9C95";
paths = (
{
closed = 1;
nodes = (
"299 0 LINE",
"378 560 LINE",
"533 560 LINE",
"553 700 LINE",
"83 700 LINE",
"63 560 LINE",
"218 560 LINE",
"139 0 LINE"
);
}
);
width = 510;
},
{
anchors = (
{
name = bottom;
position = "{209, 0}";
},
{
name = center;
position = "{258, 350}";
},
{
name = top;
position = "{303, 670}";
}
);
layerId = "3DBDB2C8-AF6E-4CF3-B71C-7D596AD599C8";
paths = (
{
closed = 1;
nodes = (
"250 0 LINE",
"337 622 LINE",
"510 622 LINE",
"521 700 LINE",
"93 700 LINE",
"82 622 LINE",
"254 622 LINE",
"167 0 LINE"
);
}
);
width = 488;
}
);
leftKerningGroup = T;
rightKerningGroup = T;
unicode = 0054;
userData = {
com.schriftgestaltung.Glyphs.ColorIndex = 3;
};
},
{
color = 5;
glyphname = U;
lastChange = "2018-05-16 00:33:18 +0000";
layers = (
{
anchors = (
{
name = bottom;
position = "{266, 0}";
},
{
name = ogonek;
position = "{510, 10}";
},
{
name = top;
position = "{365, 700}";
},
{
name = topright;
position = "{647, 700}";
}
);
layerId = "6B2E1CAF-7E84-411F-9290-838331FE9C95";
paths = (
{
closed = 1;
nodes = (
"417 -10 OFFCURVE",
"515 78 OFFCURVE",
"535 212 CURVE SMOOTH",
"607 700 LINE",
"447 700 LINE",
"379 217 LINE SMOOTH",
"372 168 OFFCURVE",
"339 131 OFFCURVE",
"288 131 CURVE SMOOTH",
"243 131 OFFCURVE",
"207 160 OFFCURVE",
"216 226 CURVE SMOOTH",
"283 700 LINE",
"123 700 LINE",
"58 240 LINE SMOOTH",
"36 86 OFFCURVE",
"133 -10 OFFCURVE",
"280 -10 CURVE SMOOTH"
);
}
);
width = 604;
},
{
anchors = (
{
name = bottom;
position = "{270, 0}";
},
{
name = ogonek;
position = "{514, 10}";
},
{
name = top;
position = "{364, 670}";
},
{
name = topright;
position = "{652, 700}";
}
);
layerId = "3DBDB2C8-AF6E-4CF3-B71C-7D596AD599C8";
paths = (
{
closed = 1;
nodes = (
"402 -10 OFFCURVE",
"499 74 OFFCURVE",
"516 199 CURVE SMOOTH",
"587 700 LINE",
"503 700 LINE",
"433 203 LINE SMOOTH",
"423 123 OFFCURVE",
"359 66 OFFCURVE",
"279 66 CURVE SMOOTH",
"196 66 OFFCURVE",
"149 119 OFFCURVE",
"165 229 CURVE SMOOTH",
"232 700 LINE",
"148 700 LINE",
"82 233 LINE SMOOTH",
"60 78 OFFCURVE",
"141 -10 OFFCURVE",
"277 -10 CURVE SMOOTH"
);
}
);
width = 609;
}
);
leftKerningGroup = U;
rightKerningGroup = U;
unicode = 0055;
userData = {
com.schriftgestaltung.Glyphs.ColorIndex = 3;
};
},
{
color = 5;
glyphname = V;
lastChange = "2018-05-16 00:33:18 +0000";
layers = (
{
anchors = (
{
name = bottom;
position = "{245, 0}";
},
{
name = top;
position = "{344, 700}";
}
);
background = {
paths = (
{
closed = 1;
nodes = (
"350 0 LINE",
"604 700 LINE",
"446 700 LINE",
"289 227 LINE",
"271 141 LINE SMOOTH",
"268 129 OFFCURVE",
"252 121 OFFCURVE",
"252 133 CURVE SMOOTH",
"259 227 LINE",
"240 700 LINE",
"83 700 LINE",
"137 0 LINE"
);
}
);
};
layerId = "6B2E1CAF-7E84-411F-9290-838331FE9C95";
paths = (
{
closed = 1;
nodes = (
"364 0 LINE",
"604 700 LINE",
"443 700 LINE",
"272 141 LINE SMOOTH",
"268 128 OFFCURVE",
"253 130 OFFCURVE",
"254 143 CURVE SMOOTH",
"265 287 LINE",
"238 700 LINE",
"83 700 LINE",
"137 0 LINE"
);
}
);
width = 561;
},
{
anchors = (
{
name = bottom;
position = "{233, 0}";
},
{
name = top;
position = "{327, 670}";
}
);
layerId = "3DBDB2C8-AF6E-4CF3-B71C-7D596AD599C8";
paths = (
{
closed = 1;
nodes = (
"295 0 LINE",
"579 700 LINE",
"493 700 LINE",
"244 75 LINE SMOOTH",
"240 64 OFFCURVE",
"230 66 OFFCURVE",
"230 77 CURVE SMOOTH",
"226 173 LINE",
"167 700 LINE",
"83 700 LINE",
"168 0 LINE"
);
}
);
width = 536;
}
);
leftKerningGroup = V;
rightKerningGroup = V;
unicode = 0056;
userData = {
com.schriftgestaltung.Glyphs.ColorIndex = 3;
};
},
{
color = 5;
glyphname = W;
lastChange = "2018-05-16 00:33:18 +0000";
layers = (
{
anchors = (
{
name = bottom;
position = "{284, 0}";
},
{
name = top;
position = "{383, 700}";
}
);
layerId = "6B2E1CAF-7E84-411F-9290-838331FE9C95";
paths = (
{
closed = 1;
nodes = (
"212 0 LINE",
"301 223 LINE SMOOTH",
"306 236 OFFCURVE",
"319 234 OFFCURVE",
"320 223 CURVE SMOOTH",
"338 0 LINE",
"488 0 LINE",
"663 700 LINE",
"519 700 LINE",
"452 431 LINE",
"428 294 LINE SMOOTH",
"426 280 OFFCURVE",
"412 280 OFFCURVE",
"410 294 CURVE SMOOTH",
"381 510 LINE",
"309 510 LINE",
"214 296 LINE SMOOTH",
"209 285 OFFCURVE",
"196 285 OFFCURVE",
"198 298 CURVE SMOOTH",
"218 431 LINE",
"225 700 LINE",
"83 700 LINE",
"62 0 LINE"
);
}
);
width = 640;
},
{
anchors = (
{
name = bottom;
position = "{273, 0}";
},
{
name = top;
position = "{367, 670}";
}
);
layerId = "3DBDB2C8-AF6E-4CF3-B71C-7D596AD599C8";
paths = (
{
closed = 1;
nodes = (
"185 0 LINE",
"308 308 LINE SMOOTH",
"313 321 OFFCURVE",
"326 320 OFFCURVE",
"328 306 CURVE SMOOTH",
"361 0 LINE",
"446 0 LINE",
"653 700 LINE",
"581 700 LINE",
"434 220 LINE",
"420 145 LINE SMOOTH",
"417 131 OFFCURVE",
"407 133 OFFCURVE",
"406 142 CURVE SMOOTH",
"371 500 LINE",
"314 500 LINE",
"179 145 LINE SMOOTH",
"176 136 OFFCURVE",
"164 137 OFFCURVE",
"165 148 CURVE SMOOTH",
"170 234 LINE",
"161 700 LINE",
"88 700 LINE",
"100 0 LINE"
);
}
);
width = 615;
}
);
leftKerningGroup = W;
rightKerningGroup = W;
unicode = 0057;
userData = {
com.schriftgestaltung.Glyphs.ColorIndex = 3;
};
},
{
color = 5;
glyphname = X;
lastChange = "2018-05-16 00:33:18 +0000";
layers = (
{
anchors = (
{
name = bottom;
position = "{249, 0}";
},
{
name = top;
position = "{348, 700}";
}
);
layerId = "6B2E1CAF-7E84-411F-9290-838331FE9C95";
leftMetricsKey = "=V";
rightMetricsKey = "=V";
paths = (
{
closed = 1;
nodes = (
"154 0 LINE",
"293 288 LINE SMOOTH",
"299 300 OFFCURVE",
"308 300 OFFCURVE",
"308 288 CURVE SMOOTH",
"305 204 LINE",
"330 0 LINE",
"492 0 LINE",
"418 365 LINE",
"613 700 LINE",
"441 700 LINE",
"295 413 LINE SMOOTH",
"289 401 OFFCURVE",
"279 402 OFFCURVE",
"280 414 CURVE SMOOTH",
"288 506 LINE",
"262 700 LINE",
"104 700 LINE",
"176 355 LINE",
"-16 0 LINE"
);
}
);
width = 570;
},
{
anchors = (
{
name = bottom;
position = "{226, 0}";
},
{
name = top;
position = "{320, 670}";
}
);
layerId = "3DBDB2C8-AF6E-4CF3-B71C-7D596AD599C8";
leftMetricsKey = "=V";
rightMetricsKey = "=V";
paths = (
{
closed = 1;
nodes = (
"81 0 LINE",
"270 295 LINE SMOOTH",
"275 303 OFFCURVE",
"282 303 OFFCURVE",
"284 295 CURVE SMOOTH",
"298 227 LINE",
"384 0 LINE",
"467 0 LINE",
"325 366 LINE",
"550 700 LINE",
"454 700 LINE",
"275 422 LINE SMOOTH",
"270 414 OFFCURVE",
"263 414 OFFCURVE",
"261 422 CURVE SMOOTH",
"244 493 LINE",
"172 700 LINE",
"85 700 LINE",
"219 347 LINE",
"-15 0 LINE"
);
}
);
width = 522;
}
);
leftKerningGroup = X;
leftMetricsKey = T;
rightKerningGroup = X;
rightMetricsKey = T;
unicode = 0058;
userData = {
com.schriftgestaltung.Glyphs.ColorIndex = 3;
com.schriftgestaltung.Glyphs.layer.leftMetricsKey = "==V";
com.schriftgestaltung.Glyphs.layer.rightMetricsKey = "==V";
com.schriftgestaltung.Glyphs.leftMetricsKey = T;
com.schriftgestaltung.Glyphs.rightMetricsKey = T;
};
},
{
color = 5;
glyphname = Y;
lastChange = "2018-05-16 00:33:18 +0000";
layers = (
{
anchors = (
{
name = bottom;
position = "{218, 0}";
},
{
name = top;
position = "{317, 700}";
},
{
name = topleft;
position = "{83, 700}";
}
);
layerId = "6B2E1CAF-7E84-411F-9290-838331FE9C95";
paths = (
{
closed = 1;
nodes = (
"297 0 LINE",
"334 255 LINE",
"571 700 LINE",
"410 700 LINE",
"280 418 LINE SMOOTH",
"273 404 OFFCURVE",
"263 405 OFFCURVE",
"262 418 CURVE SMOOTH",
"255 550 LINE",
"222 700 LINE",
"63 700 LINE",
"174 255 LINE",
"137 0 LINE"
);
}
);
width = 508;
},
{
anchors = (
{
name = bottom;
position = "{206, 0}";
},
{
name = top;
position = "{300, 670}";
},
{
name = topleft;
position = "{83, 700}";
}
);
layerId = "3DBDB2C8-AF6E-4CF3-B71C-7D596AD599C8";
paths = (
{
closed = 1;
nodes = (
"246 0 LINE",
"293 330 LINE",
"546 700 LINE",
"450 700 LINE",
"262 407 LINE SMOOTH",
"257 399 OFFCURVE",
"249 400 OFFCURVE",
"248 407 CURVE SMOOTH",
"233 484 LINE",
"156 700 LINE",
"64 700 LINE",
"213 330 LINE",
"166 0 LINE"
);
}
);
width = 482;
}
);
leftKerningGroup = Y;
rightKerningGroup = Y;
unicode = 0059;
userData = {
com.schriftgestaltung.Glyphs.ColorIndex = 3;
};
},
{
color = 5;
glyphname = Z;
lastChange = "2018-05-16 00:33:18 +0000";
layers = (
{
anchors = (
{
name = bottom;
position = "{228, 0}";
},
{
name = top;
position = "{327, 700}";
}
);
layerId = "6B2E1CAF-7E84-411F-9290-838331FE9C95";
leftMetricsKey = "=H/2";
rightMetricsKey = "=H/2";
paths = (
{
closed = 1;
nodes = (
"466 0 LINE",
"486 140 LINE",
"217 140 LINE SMOOTH",
"209 140 OFFCURVE",
"207 149 OFFCURVE",
"213 156 CURVE SMOOTH",
"293 245 LINE",
"550 602 LINE",
"563 700 LINE",
"99 700 LINE",
"71 504 LINE",
"216 504 LINE",
"225 570 LINE",
"354 570 LINE SMOOTH",
"361 570 OFFCURVE",
"364 563 OFFCURVE",
"358 556 CURVE SMOOTH",
"270 457 LINE",
"13 98 LINE",
"0 0 LINE"
);
}
);
width = 537;
},
{
anchors = (
{
name = bottom;
position = "{219, 0}";
},
{
name = top;
position = "{313, 670}";
}
);
layerId = "3DBDB2C8-AF6E-4CF3-B71C-7D596AD599C8";
leftMetricsKey = "=H/2";
rightMetricsKey = "=H/2";
paths = (
{
closed = 1;
nodes = (
"427 0 LINE",
"438 78 LINE",
"133 78 LINE SMOOTH",
"128 78 OFFCURVE",
"126 85 OFFCURVE",
"131 91 CURVE SMOOTH",
"187 160 LINE",
"518 652 LINE",
"524 700 LINE",
"119 700 LINE",
"98 547 LINE",
"171 547 LINE",
"182 630 LINE",
"408 630 LINE SMOOTH",
"415 630 OFFCURVE",
"416 622 OFFCURVE",
"412 618 CURVE SMOOTH",
"361 558 LINE",
"17 48 LINE",
"11 0 LINE"
);
}
);
width = 507;
}
);
leftKerningGroup = Z;
rightKerningGroup = Z;
unicode = 005A;
userData = {
com.schriftgestaltung.Glyphs.ColorIndex = 3;
com.schriftgestaltung.Glyphs.layer.leftMetricsKey = "==H/2";
com.schriftgestaltung.Glyphs.layer.rightMetricsKey = "==H/2";
};
},
{
color = 5;
glyphname = A.ss01;
lastChange = "2018-05-16 00:32:49 +0000";
layers = (
{
anchors = (
{
name = bottom;
position = "{305, 0}";
},
{
name = ogonek;
position = "{549, 10}";
},
{
name = top;
position = "{305, 700}";
}
);
layerId = "6B2E1CAF-7E84-411F-9290-838331FE9C95";
leftMetricsKey = "=A";
rightMetricsKey = "=A";
paths = (
{
closed = 1;
nodes = (
"144 0 LINE",
"340 556 LINE SMOOTH",
"344 568 OFFCURVE",
"358 565 OFFCURVE",
"358 553 CURVE SMOOTH",
"358 397 LINE",
"396 0 LINE",
"554 0 LINE",
"472 700 LINE",
"252 700 LINE",
"-16 0 LINE"
);
},
{
closed = 1;
nodes = (
"399 162 LINE",
"388 292 LINE",
"231 292 LINE",
"183 162 LINE"
);
}
);
width = 610;
},
{
anchors = (
{
name = bottom;
position = "{283, 0}";
},
{
name = ogonek;
position = "{509, 10}";
},
{
name = top;
position = "{283, 670}";
}
);
layerId = "3DBDB2C8-AF6E-4CF3-B71C-7D596AD599C8";
leftMetricsKey = "=A";
rightMetricsKey = "=A";
paths = (
{
closed = 1;
nodes = (
"71 0 LINE",
"332 625 LINE SMOOTH",
"335 633 OFFCURVE",
"345 631 OFFCURVE",
"345 623 CURVE SMOOTH",
"347 534 LINE",
"427 0 LINE",
"511 0 LINE",
"401 700 LINE",
"281 700 LINE",
"-15 0 LINE"
);
},
{
closed = 1;
nodes = (
"429 187 LINE",
"418 261 LINE",
"152 261 LINE",
"119 187 LINE"
);
}
);
width = 566;
}
);
leftKerningGroup = A.ss01;
leftMetricsKey = A;
rightKerningGroup = A.ss01;
rightMetricsKey = A;
userData = {
com.schriftgestaltung.Glyphs.layer.leftMetricsKey = "==A";
com.schriftgestaltung.Glyphs.layer.rightMetricsKey = "==A";
com.schriftgestaltung.Glyphs.leftMetricsKey = A;
com.schriftgestaltung.Glyphs.rightMetricsKey = A;
};
},
{
color = 5;
glyphname = G.ss01;
lastChange = "2018-05-16 00:32:49 +0000";
layers = (
{
anchors = (
{
name = bottom;
position = "{286, 0}";
},
{
name = top;
position = "{286, 700}";
}
);
layerId = "6B2E1CAF-7E84-411F-9290-838331FE9C95";
leftMetricsKey = "=O";
paths = (
{
closed = 1;
nodes = (
"384 -11 OFFCURVE",
"451 11 OFFCURVE",
"496 41 CURVE",
"546 420 LINE",
"321 420 LINE",
"302 280 LINE",
"397 280 LINE",
"373 139 LINE",
"346 133 OFFCURVE",
"318 129 OFFCURVE",
"286 129 CURVE SMOOTH",
"233 129 OFFCURVE",
"200 165 OFFCURVE",
"200 212 CURVE SMOOTH",
"200 277 OFFCURVE",
"215 380 OFFCURVE",
"234 452 CURVE SMOOTH",
"258 544 OFFCURVE",
"301 572 OFFCURVE",
"385 572 CURVE SMOOTH",
"436 572 OFFCURVE",
"485 555 OFFCURVE",
"521 529 CURVE",
"583 648 LINE",
"533 688 OFFCURVE",
"468 712 OFFCURVE",
"390 712 CURVE SMOOTH",
"245 712 OFFCURVE",
"131 666 OFFCURVE",
"86 495 CURVE SMOOTH",
"63 407 OFFCURVE",
"48 281 OFFCURVE",
"48 212 CURVE SMOOTH",
"48 82 OFFCURVE",
"139 -14 OFFCURVE",
"291 -12 CURVE SMOOTH"
);
}
);
width = 578;
},
{
anchors = (
{
name = bottom;
position = "{281, 0}";
},
{
name = top;
position = "{281, 700}";
}
);
layerId = "3DBDB2C8-AF6E-4CF3-B71C-7D596AD599C8";
leftMetricsKey = "=O";
paths = (
{
closed = 1;
nodes = (
"358 -12 OFFCURVE",
"411 6 OFFCURVE",
"466 41 CURVE",
"513 389 LINE",
"309 389 LINE",
"298 311 LINE",
"419 311 LINE",
"386 85 LINE",
"366 73 OFFCURVE",
"322 66 OFFCURVE",
"283 66 CURVE SMOOTH",
"189 66 OFFCURVE",
"142 117 OFFCURVE",
"139 194 CURVE SMOOTH",
"136 267 OFFCURVE",
"159 385 OFFCURVE",
"176 471 CURVE SMOOTH",
"203 608 OFFCURVE",
"281 634 OFFCURVE",
"375 634 CURVE SMOOTH",
"436 634 OFFCURVE",
"474 619 OFFCURVE",
"514 581 CURVE",
"547 649 LINE",
"508 688 OFFCURVE",
"449 712 OFFCURVE",
"377 712 CURVE SMOOTH",
"244 712 OFFCURVE",
"145 672 OFFCURVE",
"103 500 CURVE SMOOTH",
"82 413 OFFCURVE",
"59 274 OFFCURVE",
"59 194 CURVE SMOOTH",
"59 75 OFFCURVE",
"143 -12 OFFCURVE",
"280 -12 CURVE SMOOTH"
);
}
);
width = 545;
}
);
leftKerningGroup = G.ss01;
leftMetricsKey = O;
rightKerningGroup = G.ss01;
rightMetricsKey = I;
userData = {
com.schriftgestaltung.Glyphs.layer.leftMetricsKey = "==O";
com.schriftgestaltung.Glyphs.leftMetricsKey = O;
};
},
{
color = 5;
glyphname = I.ss01;
lastChange = "2018-05-16 00:32:49 +0000";
layers = (
{
anchors = (
{
name = bottom;
position = "{114, 0}";
},
{
name = ogonek;
position = "{236, 10}";
},
{
name = top;
position = "{213, 700}";
},
{
name = topleft;
position = "{83, 700}";
}
);
layerId = "6B2E1CAF-7E84-411F-9290-838331FE9C95";
leftMetricsKey = "=H";
rightMetricsKey = "=H";
paths = (
{
closed = 1;
nodes = (
"194 0 LINE",
"293 700 LINE",
"133 700 LINE",
"34 0 LINE"
);
}
);
width = 300;
},
{
anchors = (
{
name = bottom;
position = "{97, 0}";
},
{
name = ogonek;
position = "{203, 10}";
},
{
name = top;
position = "{191, 670}";
},
{
name = topleft;
position = "{83, 700}";
}
);
layerId = "3DBDB2C8-AF6E-4CF3-B71C-7D596AD599C8";
leftMetricsKey = "=H";
rightMetricsKey = "=H";
paths = (
{
closed = 1;
nodes = (
"138 0 LINE",
"236 700 LINE",
"153 700 LINE",
"55 0 LINE"
);
}
);
width = 263;
}
);
leftKerningGroup = H;
leftMetricsKey = H;
rightKerningGroup = H;
rightMetricsKey = H;
userData = {
com.schriftgestaltung.Glyphs.layer.leftMetricsKey = "==H";
com.schriftgestaltung.Glyphs.layer.rightMetricsKey = "==H";
com.schriftgestaltung.Glyphs.leftMetricsKey = H;
com.schriftgestaltung.Glyphs.rightMetricsKey = h;
};
},
{
color = 5;
glyphname = J.ss01;
lastChange = "2018-05-16 00:32:49 +0000";
layers = (
{
anchors = (
{
name = bottom;
position = "{107, 0}";
},
{
name = top;
position = "{283, 700}";
}
);
layerId = "6B2E1CAF-7E84-411F-9290-838331FE9C95";
rightMetricsKey = "=U";
paths = (
{
closed = 1;
nodes = (
"229 -12 OFFCURVE",
"284 96 OFFCURVE",
"297 190 CURVE SMOOTH",
"369 700 LINE",
"209 700 LINE",
"138 198 LINE SMOOTH",
"134 166 OFFCURVE",
"118 130 OFFCURVE",
"58 130 CURVE SMOOTH",
"34 130 OFFCURVE",
"10 133 OFFCURVE",
"-13 142 CURVE",
"-34 2 LINE",
"-12 -6 OFFCURVE",
"19 -12 OFFCURVE",
"51 -12 CURVE SMOOTH"
);
}
);
width = 366;
},
{
anchors = (
{
name = bottom;
position = "{99, 0}";
},
{
name = top;
position = "{258, 670}";
}
);
layerId = "3DBDB2C8-AF6E-4CF3-B71C-7D596AD599C8";
rightMetricsKey = "=U";
paths = (
{
closed = 1;
nodes = (
"148 -12 OFFCURVE",
"215 44 OFFCURVE",
"228 136 CURVE SMOOTH",
"307 700 LINE",
"225 700 LINE",
"147 140 LINE SMOOTH",
"140 93 OFFCURVE",
"105 61 OFFCURVE",
"59 61 CURVE SMOOTH",
"29 61 OFFCURVE",
"-2 68 OFFCURVE",
"-21 79 CURVE",
"-31 12 LINE",
"-8 -2 OFFCURVE",
"24 -12 OFFCURVE",
"55 -12 CURVE SMOOTH"
);
}
);
width = 329;
}
);
leftKerningGroup = J.ss01;
rightKerningGroup = J.ss01;
rightMetricsKey = U;
userData = {
com.schriftgestaltung.Glyphs.layer.rightMetricsKey = "==U";
com.schriftgestaltung.Glyphs.rightMetricsKey = U;
};
},
{
color = 5;
glyphname = Z.ss01;
lastChange = "2018-05-16 00:32:49 +0000";
layers = (
{
anchors = (
{
name = bottom;
position = "{264, 0}";
},
{
name = top;
position = "{264, 700}";
}
);
layerId = "6B2E1CAF-7E84-411F-9290-838331FE9C95";
leftMetricsKey = "=Z";
rightMetricsKey = "=Z";
paths = (
{
closed = 1;
nodes = (
"466 0 LINE",
"486 140 LINE",
"217 140 LINE SMOOTH",
"209 140 OFFCURVE",
"207 149 OFFCURVE",
"213 156 CURVE SMOOTH",
"293 245 LINE",
"550 602 LINE",
"563 700 LINE",
"99 700 LINE",
"80 570 LINE",
"354 570 LINE SMOOTH",
"361 570 OFFCURVE",
"364 563 OFFCURVE",
"358 556 CURVE SMOOTH",
"270 457 LINE",
"13 98 LINE",
"0 0 LINE"
);
}
);
width = 537;
},
{
anchors = (
{
name = bottom;
position = "{254, 0}";
},
{
name = top;
position = "{254, 670}";
}
);
layerId = "3DBDB2C8-AF6E-4CF3-B71C-7D596AD599C8";
leftMetricsKey = "=Z";
rightMetricsKey = "=Z";
paths = (
{
closed = 1;
nodes = (
"427 0 LINE",
"438 78 LINE",
"133 78 LINE SMOOTH",
"128 78 OFFCURVE",
"126 85 OFFCURVE",
"131 91 CURVE SMOOTH",
"187 160 LINE",
"518 652 LINE",
"524 700 LINE",
"119 700 LINE",
"109 630 LINE",
"408 630 LINE",
"415 630 OFFCURVE",
"416 622 OFFCURVE",
"412 618 CURVE SMOOTH",
"361 558 LINE",
"17 48 LINE",
"11 0 LINE"
);
}
);
width = 507;
}
);
leftKerningGroup = Z.ss01;
leftMetricsKey = Z;
rightKerningGroup = Z.ss01;
rightMetricsKey = Z;
userData = {
com.schriftgestaltung.Glyphs.layer.leftMetricsKey = "==Z";
com.schriftgestaltung.Glyphs.layer.rightMetricsKey = "==Z";
com.schriftgestaltung.Glyphs.leftMetricsKey = Z;
com.schriftgestaltung.Glyphs.rightMetricsKey = Z;
};
},
{
color = 5;
glyphname = a;
lastChange = "2018-05-16 00:33:18 +0000";
layers = (
{
anchors = (
{
name = bottom;
position = "{246, 0}";
},
{
name = ogonek;
position = "{528, 13}";
},
{
name = top;
position = "{318, 510}";
}
);
background = {
components = (
{
name = n;
transform = "{-1, 0, 0, -1, 528, 510}";
},
{
name = q;
transform = "{1, 0, 0, 1, -4, 0}";
}
);
};
layerId = "6B2E1CAF-7E84-411F-9290-838331FE9C95";
paths = (
{
closed = 1;
nodes = (
"247 -9 OFFCURVE",
"264 -2 OFFCURVE",
"314 17 CURVE",
"332 37 LINE SMOOTH",
"335 41 OFFCURVE",
"341 41 OFFCURVE",
"346 39 CURVE SMOOTH",
"525 -49 LINE",
"406 -87 LINE",
"544 176 LINE",
"586 75 LINE",
"375 180 LINE",
"437 57 LINE",
"506 564 LINE",
"517 516 LINE",
"398 503 LINE SMOOTH",
"391 502 OFFCURVE",
"387 502 OFFCURVE",
"382 504 CURVE SMOOTH",
"346 517 LINE",
"323 520 OFFCURVE",
"309 521 OFFCURVE",
"294 521 CURVE SMOOTH",
"196 521 OFFCURVE",
"121 475 OFFCURVE",
"72 387 CURVE SMOOTH",
"42 327 OFFCURVE",
"28 249 OFFCURVE",
"28 175 CURVE SMOOTH",
"28 35 OFFCURVE",
"127 -9 OFFCURVE",
"207 -9 CURVE SMOOTH"
);
},
{
closed = 1;
nodes = (
"192 122 OFFCURVE",
"166 144 OFFCURVE",
"166 190 CURVE SMOOTH",
"166 249 OFFCURVE",
"174 299 OFFCURVE",
"195 342 CURVE SMOOTH",
"214 380 OFFCURVE",
"253 398 OFFCURVE",
"294 398 CURVE SMOOTH",
"323 398 OFFCURVE",
"348 395 OFFCURVE",
"417 371 CURVE",
"345 436 LINE",
"301 122 LINE",
"325 160 LINE",
"270 131 OFFCURVE",
"250 122 OFFCURVE",
"230 122 CURVE SMOOTH"
);
}
);
width = 552;
},
{
anchors = (
{
name = bottom;
position = "{225, 0}";
},
{
name = ogonek;
position = "{435, 10}";
},
{
name = top;
position = "{325, 500}";
}
);
background = {
components = (
{
name = n;
transform = "{-1, 0, 0, -1, 520, 500}";
},
{
name = o;
transform = "{1, 0, 0, 1, -2, 0}";
}
);
};
layerId = "3DBDB2C8-AF6E-4CF3-B71C-7D596AD599C8";
paths = (
{
closed = 1;
nodes = (
"231 -10 OFFCURVE",
"249 -5 OFFCURVE",
"303 26 CURVE",
"317 41 LINE SMOOTH",
"320 45 OFFCURVE",
"326 46 OFFCURVE",
"331 43 CURVE SMOOTH",
"437 -10 LINE",
"470 60 LINE",
"367 110 LINE",
"407 51 LINE",
"477 553 LINE",
"532 511 LINE",
"413 498 LINE SMOOTH",
"406 497 OFFCURVE",
"402 497 OFFCURVE",
"397 498 CURVE SMOOTH",
"359 507 LINE",
"341 509 OFFCURVE",
"326 510 OFFCURVE",
"306 510 CURVE SMOOTH",
"212 510 OFFCURVE",
"135 456 OFFCURVE",
"95 375 CURVE SMOOTH",
"63 310 OFFCURVE",
"48 235 OFFCURVE",
"48 158 CURVE SMOOTH",
"48 19 OFFCURVE",
"137 -10 OFFCURVE",
"201 -10 CURVE SMOOTH"
);
},
{
closed = 1;
nodes = (
"167 63 OFFCURVE",
"124 84 OFFCURVE",
"124 153 CURVE SMOOTH",
"124 233 OFFCURVE",
"136 288 OFFCURVE",
"157 338 CURVE SMOOTH",
"182 397 OFFCURVE",
"236 440 OFFCURVE",
"312 440 CURVE SMOOTH",
"338 440 OFFCURVE",
"360 436 OFFCURVE",
"401 425 CURVE",
"385 464 LINE",
"331 77 LINE",
"351 129 LINE",
"257 70 OFFCURVE",
"240 63 OFFCURVE",
"212 63 CURVE SMOOTH"
);
}
);
width = 542;
}
);
leftKerningGroup = o;
leftMetricsKey = o;
rightKerningGroup = a;
unicode = 0061;
userData = {
com.schriftgestaltung.Glyphs.ColorIndex = 3;
com.typemytype.robofont.layerData = {
background = {
anchors = (
);
components = (
{
baseGlyph = n;
transformation = (
1,
0,
0,
1,
-5,
0
);
}
);
contours = (
);
lib = {
};
name = a;
unicodes = (
);
width = 491;
};
};
};
},
{
color = 5;
glyphname = ae;
lastChange = "2018-05-16 00:32:49 +0000";
layers = (
{
anchors = (
{
name = bottom;
position = "{466, 0}";
},
{
name = top;
position = "{610, 510}";
}
);
background = {
components = (
{
name = e;
transform = "{1, 0, 0, 1, 270, 0}";
},
{
name = a;
transform = "{1, 0, 0, 1, -14, 0}";
}
);
};
layerId = "6B2E1CAF-7E84-411F-9290-838331FE9C95";
paths = (
{
closed = 1;
nodes = (
"169 98 OFFCURVE",
"145 120 OFFCURVE",
"150 151 CURVE SMOOTH",
"153 173 OFFCURVE",
"173 192 OFFCURVE",
"213 195 CURVE SMOOTH",
"710 226 LINE",
"738 274 LINE",
"759 426 OFFCURVE",
"702 520 OFFCURVE",
"544 520 CURVE SMOOTH",
"518 520 OFFCURVE",
"479 515 OFFCURVE",
"435 491 CURVE",
"414 466 LINE SMOOTH",
"408 458 OFFCURVE",
"401 458 OFFCURVE",
"395 466 CURVE SMOOTH",
"376 491 LINE",
"344 511 OFFCURVE",
"299 522 OFFCURVE",
"248 522 CURVE SMOOTH",
"185 522 OFFCURVE",
"123 505 OFFCURVE",
"67 475 CURVE",
"99 359 LINE",
"142 383 OFFCURVE",
"186 401 OFFCURVE",
"235 401 CURVE SMOOTH",
"293 401 OFFCURVE",
"320 370 OFFCURVE",
"315 330 CURVE SMOOTH",
"291 135 LINE",
"249 114 OFFCURVE",
"224 98 OFFCURVE",
"194 98 CURVE SMOOTH"
);
},
{
closed = 1;
nodes = (
"228 -9 OFFCURVE",
"238 -5 OFFCURVE",
"314 28 CURVE",
"330 49 LINE SMOOTH",
"338 59 OFFCURVE",
"342 57 OFFCURVE",
"349 50 CURVE SMOOTH",
"379 18 OFFCURVE",
"433 -9 OFFCURVE",
"499 -9 CURVE SMOOTH",
"595 -9 OFFCURVE",
"670 34 OFFCURVE",
"715 108 CURVE",
"606 162 LINE",
"571 122 OFFCURVE",
"550 108 OFFCURVE",
"510 108 CURVE SMOOTH",
"468 108 OFFCURVE",
"428 135 OFFCURVE",
"437 203 CURVE SMOOTH",
"448 289 LINE SMOOTH",
"456 354 OFFCURVE",
"488 403 OFFCURVE",
"549 403 CURVE SMOOTH",
"641 403 OFFCURVE",
"608 326 OFFCURVE",
"617 284 CURVE",
"681 325 LINE",
"210 295 LINE SMOOTH",
"110 289 OFFCURVE",
"32 247 OFFCURVE",
"18 151 CURVE SMOOTH",
"5 60 OFFCURVE",
"73 -9 OFFCURVE",
"181 -9 CURVE SMOOTH"
);
}
);
width = 771;
},
{
anchors = (
{
name = bottom;
position = "{342, 0}";
},
{
name = ogonek;
position = "{406, 28}";
},
{
name = top;
position = "{412, 500}";
}
);
layerId = "3DBDB2C8-AF6E-4CF3-B71C-7D596AD599C8";
paths = (
{
closed = 1;
nodes = (
"230 -11 OFFCURVE",
"245 -6 OFFCURVE",
"319 28 CURVE",
"343 48 LINE SMOOTH",
"350 54 OFFCURVE",
"358 57 OFFCURVE",
"365 49 CURVE SMOOTH",
"400 12 OFFCURVE",
"442 -10 OFFCURVE",
"501 -10 CURVE SMOOTH",
"556 -10 OFFCURVE",
"613 13 OFFCURVE",
"679 91 CURVE",
"619 120 LINE",
"571 74 OFFCURVE",
"548 60 OFFCURVE",
"505 60 CURVE SMOOTH",
"438 60 OFFCURVE",
"406 107 OFFCURVE",
"406 191 CURVE SMOOTH",
"406 212 OFFCURVE",
"410 236 OFFCURVE",
"418 282 CURVE SMOOTH",
"437 389 OFFCURVE",
"503 440 OFFCURVE",
"565 440 CURVE SMOOTH",
"631 440 OFFCURVE",
"662 388 OFFCURVE",
"643 298 CURVE",
"215 266 LINE SMOOTH",
"118 259 OFFCURVE",
"51 221 OFFCURVE",
"39 135 CURVE SMOOTH",
"27 48 OFFCURVE",
"80 -11 OFFCURVE",
"178 -11 CURVE SMOOTH"
);
},
{
closed = 1;
nodes = (
"141 58 OFFCURVE",
"112 88 OFFCURVE",
"118 128 CURVE SMOOTH",
"124 174 OFFCURVE",
"162 198 OFFCURVE",
"215 202 CURVE SMOOTH",
"688 237 LINE",
"716 277 LINE",
"741 396 OFFCURVE",
"712 510 OFFCURVE",
"565 510 CURVE SMOOTH",
"523 510 OFFCURVE",
"481 492 OFFCURVE",
"447 471 CURVE",
"422 444 LINE SMOOTH",
"414 435 OFFCURVE",
"406 437 OFFCURVE",
"401 446 CURVE SMOOTH",
"387 473 LINE",
"359 498 OFFCURVE",
"314 512 OFFCURVE",
"258 512 CURVE SMOOTH",
"204 512 OFFCURVE",
"153 499 OFFCURVE",
"97 460 CURVE",
"116 388 LINE",
"163 421 OFFCURVE",
"203 439 OFFCURVE",
"252 439 CURVE SMOOTH",
"331 439 OFFCURVE",
"358 401 OFFCURVE",
"348 328 CURVE SMOOTH",
"330 200 LINE",
"316 103 LINE",
"257 76 OFFCURVE",
"231 58 OFFCURVE",
"183 58 CURVE SMOOTH"
);
}
);
width = 755;
}
);
leftKerningGroup = a;
leftMetricsKey = a;
rightKerningGroup = e;
rightMetricsKey = e;
unicode = 00E6;
userData = {
com.schriftgestaltung.Glyphs.leftMetricsKey = a;
com.schriftgestaltung.Glyphs.rightMetricsKey = e;
};
},
{
color = 5;
glyphname = b;
lastChange = "2018-05-16 00:33:18 +0000";
layers = (
{
anchors = (
{
name = bottom;
position = "{227, 0}";
},
{
name = top;
position = "{299, 510}";
}
);
background = {
components = (
{
name = o;
transform = "{1, 0, 0, 1, -44, 0}";
}
);
};
layerId = "6B2E1CAF-7E84-411F-9290-838331FE9C95";
rightMetricsKey = "=o";
paths = (
{
closed = 1;
nodes = (
"340 -12 OFFCURVE",
"413 35 OFFCURVE",
"460 123 CURVE SMOOTH",
"490 183 OFFCURVE",
"504 261 OFFCURVE",
"504 335 CURVE SMOOTH",
"504 475 OFFCURVE",
"408 519 OFFCURVE",
"325 519 CURVE SMOOTH",
"320 519 OFFCURVE",
"316 518 OFFCURVE",
"311 517 CURVE",
"258 488 LINE SMOOTH",
"250 484 OFFCURVE",
"245 488 OFFCURVE",
"246 496 CURVE SMOOTH",
"281 750 LINE",
"136 750 LINE",
"33 -4 LINE",
"134 7 LINE SMOOTH",
"141 8 OFFCURVE",
"144 8 OFFCURVE",
"150 6 CURVE SMOOTH",
"186 -7 LINE",
"210 -11 OFFCURVE",
"224 -12 OFFCURVE",
"244 -12 CURVE SMOOTH"
);
},
{
closed = 1;
nodes = (
"224 112 OFFCURVE",
"211 113 OFFCURVE",
"193 116 CURVE",
"227 361 LINE",
"256 380 OFFCURVE",
"277 388 OFFCURVE",
"302 388 CURVE SMOOTH",
"338 388 OFFCURVE",
"366 368 OFFCURVE",
"366 323 CURVE SMOOTH",
"366 261 OFFCURVE",
"357 211 OFFCURVE",
"336 167 CURVE SMOOTH",
"319 130 OFFCURVE",
"279 112 OFFCURVE",
"238 112 CURVE SMOOTH"
);
}
);
width = 532;
},
{
anchors = (
{
name = bottom;
position = "{225, 0}";
},
{
name = top;
position = "{295, 500}";
}
);
background = {
components = (
{
name = o;
transform = "{1, 0, 0, 1, 4, 0}";
},
{
name = p;
}
);
};
layerId = "3DBDB2C8-AF6E-4CF3-B71C-7D596AD599C8";
paths = (
{
closed = 1;
nodes = (
"308 -10 OFFCURVE",
"385 44 OFFCURVE",
"425 125 CURVE SMOOTH",
"457 190 OFFCURVE",
"472 265 OFFCURVE",
"472 347 CURVE SMOOTH",
"472 460 OFFCURVE",
"409 510 OFFCURVE",
"323 510 CURVE SMOOTH",
"309 510 OFFCURVE",
"293 508 OFFCURVE",
"279 504 CURVE",
"211 467 LINE SMOOTH",
"200 461 OFFCURVE",
"192 465 OFFCURVE",
"194 478 CURVE SMOOTH",
"230 750 LINE",
"155 750 LINE",
"50 -4 LINE",
"107 2 LINE",
"114 3 OFFCURVE",
"118 3 OFFCURVE",
"123 2 CURVE",
"161 -7 LINE",
"176 -9 OFFCURVE",
"192 -10 OFFCURVE",
"214 -10 CURVE SMOOTH"
);
},
{
closed = 1;
nodes = (
"182 60 OFFCURVE",
"164 63 OFFCURVE",
"139 70 CURVE",
"182 382 LINE",
"242 423 OFFCURVE",
"278 437 OFFCURVE",
"313 437 CURVE SMOOTH",
"346 437 OFFCURVE",
"396 419 OFFCURVE",
"396 338 CURVE SMOOTH",
"396 267 OFFCURVE",
"384 212 OFFCURVE",
"363 162 CURVE SMOOTH",
"334 98 OFFCURVE",
"280 60 OFFCURVE",
"208 60 CURVE SMOOTH"
);
}
);
width = 519;
}
);
leftKerningGroup = b;
leftMetricsKey = h;
rightKerningGroup = o;
rightMetricsKey = o;
unicode = 0062;
userData = {
com.schriftgestaltung.Glyphs.ColorIndex = 3;
com.schriftgestaltung.Glyphs.layer.leftMetricsKey = "==h-45";
com.schriftgestaltung.Glyphs.layer.rightMetricsKey = "==o";
com.schriftgestaltung.Glyphs.leftMetricsKey = "=h-45";
com.typemytype.robofont.layerData = {
background = {
anchors = (
);
components = (
{
baseGlyph = a;
transformation = (
-1,
0,
0,
1,
491,
0
);
}
);
contours = (
);
lib = {
};
name = b;
unicodes = (
);
width = 527;
};
};
};
},
{
color = 5;
glyphname = c;
lastChange = "2018-05-16 00:33:18 +0000";
layers = (
{
anchors = (
{
name = bottom;
position = "{206, 0}";
},
{
name = top;
position = "{276, 500}";
}
);
background = {
components = (
{
name = s;
transform = "{1, 0, 0, 1, 20, 0}";
}
);
};
layerId = "6B2E1CAF-7E84-411F-9290-838331FE9C95";
leftMetricsKey = "=o";
paths = (
{
closed = 1;
nodes = (
"301 -10 OFFCURVE",
"372 18 OFFCURVE",
"414 108 CURVE",
"314 162 LINE",
"295 125 OFFCURVE",
"266 108 OFFCURVE",
"242 108 CURVE SMOOTH",
"198 108 OFFCURVE",
"162 137 OFFCURVE",
"165 191 CURVE SMOOTH",
"167 233 OFFCURVE",
"172 267 OFFCURVE",
"179 297 CURVE SMOOTH",
"197 359 OFFCURVE",
"235 400 OFFCURVE",
"306 400 CURVE SMOOTH",
"343 400 OFFCURVE",
"380 388 OFFCURVE",
"405 374 CURVE",
"447 482 LINE",
"403 506 OFFCURVE",
"359 520 OFFCURVE",
"285 520 CURVE SMOOTH",
"167 520 OFFCURVE",
"82 456 OFFCURVE",
"48 327 CURVE SMOOTH",
"36 283 OFFCURVE",
"28 238 OFFCURVE",
"28 192 CURVE SMOOTH",
"28 73 OFFCURVE",
"101 -10 OFFCURVE",
"231 -10 CURVE SMOOTH"
);
}
);
width = 460;
},
{
anchors = (
{
name = bottom;
position = "{219, 0}";
},
{
name = top;
position = "{289, 500}";
}
);
background = {
components = (
{
name = e;
transform = "{1, 0, 0, 1, -1, 0}";
},
{
name = o;
transform = "{1, 0, 0, 1, -1, 0}";
},
{
name = s;
transform = "{1, 0, 0, 1, 9, 0}";
}
);
};
layerId = "3DBDB2C8-AF6E-4CF3-B71C-7D596AD599C8";
leftMetricsKey = "=o";
paths = (
{
closed = 1;
nodes = (
"275 -10 OFFCURVE",
"332 8 OFFCURVE",
"404 91 CURVE",
"344 120 LINE",
"286 70 OFFCURVE",
"263 60 OFFCURVE",
"228 60 CURVE SMOOTH",
"154 60 OFFCURVE",
"125 120 OFFCURVE",
"125 186 CURVE SMOOTH",
"125 224 OFFCURVE",
"130 259 OFFCURVE",
"142 303 CURVE SMOOTH",
"164 382 OFFCURVE",
"212 438 OFFCURVE",
"287 438 CURVE SMOOTH",
"333 438 OFFCURVE",
"365 424 OFFCURVE",
"403 401 CURVE",
"432 464 LINE",
"389 492 OFFCURVE",
"346 510 OFFCURVE",
"289 510 CURVE SMOOTH",
"181 510 OFFCURVE",
"101 429 OFFCURVE",
"71 325 CURVE SMOOTH",
"56 270 OFFCURVE",
"49 219 OFFCURVE",
"49 168 CURVE SMOOTH",
"46 76 OFFCURVE",
"110 -10 OFFCURVE",
"223 -10 CURVE SMOOTH"
);
}
);
width = 450;
}
);
leftKerningGroup = o;
leftMetricsKey = o;
rightKerningGroup = c;
unicode = 0063;
userData = {
com.schriftgestaltung.Glyphs.ColorIndex = 3;
com.schriftgestaltung.Glyphs.layer.leftMetricsKey = "==o";
com.schriftgestaltung.Glyphs.leftMetricsKey = o;
};
},
{
color = 5;
glyphname = d;
lastChange = "2018-05-16 00:33:18 +0000";
layers = (
{
anchors = (
{
name = bottom;
position = "{242, 0}";
},
{
name = center;
position = "{452, 614}";
},
{
name = top;
position = "{314, 510}";
},
{
name = topright;
position = "{576, 510}";
}
);
components = (
{
name = a;
}
);
layerId = "6B2E1CAF-7E84-411F-9290-838331FE9C95";
leftMetricsKey = "=o";
paths = (
{
closed = 1;
nodes = (
"488 433 LINE",
"533 750 LINE",
"387 750 LINE",
"342 433 LINE"
);
}
);
width = 552;
},
{
anchors = (
{
name = bottom;
position = "{232, 0}";
},
{
name = center;
position = "{455, 611}";
},
{
name = top;
position = "{302, 500}";
},
{
name = topright;
position = "{549, 500}";
}
);
components = (
{
name = a;
}
);
layerId = "3DBDB2C8-AF6E-4CF3-B71C-7D596AD599C8";
leftMetricsKey = "=o";
paths = (
{
closed = 1;
nodes = (
"470 504 LINE",
"505 750 LINE",
"425 750 LINE",
"384 470 LINE"
);
}
);
width = 542;
}
);
leftKerningGroup = o;
rightKerningGroup = l;
rightMetricsKey = a;
unicode = 0064;
userData = {
com.schriftgestaltung.Glyphs.ColorIndex = 3;
com.schriftgestaltung.Glyphs.layer.leftMetricsKey = "==o";
com.schriftgestaltung.Glyphs.layer.rightMetricsKey = "==i";
com.schriftgestaltung.Glyphs.rightMetricsKey = l;
};
},
{
color = 5;
glyphname = eth;
lastChange = "2018-05-16 00:32:49 +0000";
layers = (
{
layerId = "6B2E1CAF-7E84-411F-9290-838331FE9C95";
paths = (
{
closed = 1;
nodes = (
"356 -12 OFFCURVE",
"434 57 OFFCURVE",
"463 153 CURVE SMOOTH",
"496 256 OFFCURVE",
"501 342 OFFCURVE",
"501 416 CURVE SMOOTH",
"501 493 OFFCURVE",
"481 557 OFFCURVE",
"448 608 CURVE SMOOTH",
"411 666 OFFCURVE",
"368 711 OFFCURVE",
"323 750 CURVE",
"149 750 LINE",
"218 695 OFFCURVE",
"276 640 OFFCURVE",
"313 593 CURVE SMOOTH",
"340 558 OFFCURVE",
"367 523 OFFCURVE",
"367 503 CURVE SMOOTH",
"367 489 OFFCURVE",
"358 485 OFFCURVE",
"346 493 CURVE SMOOTH",
"329 505 LINE",
"315 515 OFFCURVE",
"291 522 OFFCURVE",
"278 522 CURVE SMOOTH",
"160 522 OFFCURVE",
"84 453 OFFCURVE",
"55 358 CURVE SMOOTH",
"39 307 OFFCURVE",
"28 240 OFFCURVE",
"28 187 CURVE SMOOTH",
"28 89 OFFCURVE",
"92 -12 OFFCURVE",
"230 -12 CURVE SMOOTH"
);
},
{
closed = 1;
nodes = (
"192 109 OFFCURVE",
"168 143 OFFCURVE",
"168 196 CURVE SMOOTH",
"168 241 OFFCURVE",
"179 302 OFFCURVE",
"189 329 CURVE SMOOTH",
"203 370 OFFCURVE",
"233 401 OFFCURVE",
"276 401 CURVE SMOOTH",
"324 401 OFFCURVE",
"351 366 OFFCURVE",
"351 315 CURVE SMOOTH",
"351 275 OFFCURVE",
"340 210 OFFCURVE",
"329 182 CURVE SMOOTH",
"314 139 OFFCURVE",
"283 109 OFFCURVE",
"240 109 CURVE SMOOTH"
);
},
{
closed = 1;
nodes = (
"147 544 LINE",
"525 632 LINE",
"500 734 LINE",
"122 638 LINE"
);
}
);
width = 522;
},
{
layerId = "3DBDB2C8-AF6E-4CF3-B71C-7D596AD599C8";
paths = (
{
closed = 1;
nodes = (
"210 750 LINE",
"305 695 OFFCURVE",
"396 570 OFFCURVE",
"396 462 CURVE SMOOTH",
"396 448 OFFCURVE",
"385 446 OFFCURVE",
"379 453 CURVE SMOOTH",
"346 501 LINE",
"330 508 OFFCURVE",
"311 511 OFFCURVE",
"286 511 CURVE SMOOTH",
"194 511 OFFCURVE",
"118 460 OFFCURVE",
"83 369 CURVE SMOOTH",
"63 317 OFFCURVE",
"50 232 OFFCURVE",
"50 173 CURVE SMOOTH",
"50 79 OFFCURVE",
"105 -11 OFFCURVE",
"223 -11 CURVE SMOOTH",
"316 -11 OFFCURVE",
"392 40 OFFCURVE",
"427 131 CURVE SMOOTH",
"453 196 OFFCURVE",
"472 311 OFFCURVE",
"472 410 CURVE SMOOTH",
"472 621 OFFCURVE",
"391 703 OFFCURVE",
"322 750 CURVE"
);
},
{
closed = 1;
nodes = (
"331 95 OFFCURVE",
"294 60 OFFCURVE",
"228 60 CURVE SMOOTH",
"155 60 OFFCURVE",
"126 116 OFFCURVE",
"126 177 CURVE SMOOTH",
"126 230 OFFCURVE",
"137 304 OFFCURVE",
"154 345 CURVE SMOOTH",
"178 406 OFFCURVE",
"216 440 OFFCURVE",
"281 440 CURVE SMOOTH",
"355 440 OFFCURVE",
"386 384 OFFCURVE",
"386 323 CURVE SMOOTH",
"386 274 OFFCURVE",
"375 193 OFFCURVE",
"358 155 CURVE SMOOTH"
);
},
{
closed = 1;
nodes = (
"177 551 LINE",
"541 657 LINE",
"523 718 LINE",
"159 613 LINE"
);
}
);
width = 539;
}
);
leftKerningGroup = eth;
leftMetricsKey = o;
rightKerningGroup = eth;
rightMetricsKey = o;
unicode = 00F0;
userData = {
com.schriftgestaltung.Glyphs.leftMetricsKey = six;
com.schriftgestaltung.Glyphs.rightMetricsKey = six;
};
},
{
color = 5;
glyphname = e;
lastChange = "2018-05-16 00:33:18 +0000";
layers = (
{
anchors = (
{
name = bottom;
position = "{212, 0}";
},
{
name = ogonek;
position = "{421, 10}";
},
{
name = top;
position = "{287, 510}";
}
);
background = {
components = (
{
name = o;
transform = "{1, 0, 0, 1, -2, 0}";
}
);
};
layerId = "6B2E1CAF-7E84-411F-9290-838331FE9C95";
paths = (
{
closed = 1;
nodes = (
"312 -10 OFFCURVE",
"394 18 OFFCURVE",
"443 108 CURVE",
"334 162 LINE",
"310 125 OFFCURVE",
"273 108 OFFCURVE",
"242 108 CURVE SMOOTH",
"198 108 OFFCURVE",
"162 137 OFFCURVE",
"165 191 CURVE SMOOTH",
"167 233 OFFCURVE",
"172 267 OFFCURVE",
"179 297 CURVE SMOOTH",
"194 362 OFFCURVE",
"224 405 OFFCURVE",
"282 405 CURVE SMOOTH",
"334 405 OFFCURVE",
"361 373 OFFCURVE",
"347 317 CURVE",
"151 317 LINE",
"139 218 LINE",
"438 218 LINE",
"472 288 LINE",
"492 419 OFFCURVE",
"434 520 OFFCURVE",
"284 520 CURVE SMOOTH",
"160 520 OFFCURVE",
"82 457 OFFCURVE",
"48 327 CURVE SMOOTH",
"36 283 OFFCURVE",
"28 238 OFFCURVE",
"28 192 CURVE SMOOTH",
"28 73 OFFCURVE",
"101 -10 OFFCURVE",
"231 -10 CURVE SMOOTH"
);
}
);
width = 502;
},
{
anchors = (
{
name = bottom;
position = "{209, 0}";
},
{
name = ogonek;
position = "{394, 10}";
},
{
name = top;
position = "{284, 500}";
}
);
background = {
components = (
{
name = o;
}
);
};
layerId = "3DBDB2C8-AF6E-4CF3-B71C-7D596AD599C8";
leftMetricsKey = "=o";
paths = (
{
closed = 1;
nodes = (
"282 -10 OFFCURVE",
"339 13 OFFCURVE",
"405 91 CURVE",
"345 120 LINE",
"297 74 OFFCURVE",
"274 60 OFFCURVE",
"231 60 CURVE SMOOTH",
"161 60 OFFCURVE",
"122 107 OFFCURVE",
"125 191 CURVE SMOOTH",
"126 237 OFFCURVE",
"130 254 OFFCURVE",
"136 282 CURVE SMOOTH",
"159 389 OFFCURVE",
"227 440 OFFCURVE",
"291 440 CURVE SMOOTH",
"357 440 OFFCURVE",
"388 393 OFFCURVE",
"369 303 CURVE",
"121 303 LINE",
"112 233 LINE",
"414 233 LINE",
"442 273 LINE",
"466 392 OFFCURVE",
"438 510 OFFCURVE",
"292 510 CURVE SMOOTH",
"191 510 OFFCURVE",
"98 436 OFFCURVE",
"67 312 CURVE SMOOTH",
"59 281 OFFCURVE",
"50 230 OFFCURVE",
"50 167 CURVE SMOOTH",
"50 74 OFFCURVE",
"108 -10 OFFCURVE",
"227 -10 CURVE SMOOTH"
);
}
);
width = 482;
}
);
leftKerningGroup = o;
leftMetricsKey = o;
rightKerningGroup = e;
unicode = 0065;
userData = {
com.schriftgestaltung.Glyphs.ColorIndex = 3;
com.schriftgestaltung.Glyphs.layer.leftMetricsKey = "==o";
com.schriftgestaltung.Glyphs.leftMetricsKey = o;
};
},
{
color = 5;
glyphname = ezh;
lastChange = "2018-05-16 00:32:49 +0000";
layers = (
{
anchors = (
{
name = bottom;
position = "{211, 0}";
},
{
name = top;
position = "{283, 510}";
}
);
layerId = "6B2E1CAF-7E84-411F-9290-838331FE9C95";
paths = (
{
closed = 1;
nodes = (
"311 -260 OFFCURVE",
"441 -129 OFFCURVE",
"441 45 CURVE SMOOTH",
"441 177 OFFCURVE",
"304 251 OFFCURVE",
"219 244 CURVE",
"225 184 LINE",
"455 412 LINE",
"468 510 LINE",
"51 510 LINE",
"33 380 LINE",
"257 380 LINE SMOOTH",
"265 380 OFFCURVE",
"270 369 OFFCURVE",
"260 363 CURVE SMOOTH",
"214 335 LINE",
"97 202 LINE",
"86 112 LINE",
"186 112 LINE SMOOTH",
"266 112 OFFCURVE",
"293 74 OFFCURVE",
"292 24 CURVE SMOOTH",
"292 -65 OFFCURVE",
"214 -123 OFFCURVE",
"129 -123 CURVE SMOOTH",
"78 -123 OFFCURVE",
"36 -113 OFFCURVE",
"-7 -72 CURVE",
"-65 -183 LINE",
"-10 -240 OFFCURVE",
"50 -260 OFFCURVE",
"135 -260 CURVE SMOOTH"
);
}
);
width = 514;
},
{
anchors = (
{
name = bottom;
position = "{184, 0}";
},
{
name = top;
position = "{254, 500}";
}
);
layerId = "3DBDB2C8-AF6E-4CF3-B71C-7D596AD599C8";
paths = (
{
closed = 1;
nodes = (
"280 -256 OFFCURVE",
"392 -149 OFFCURVE",
"392 19 CURVE SMOOTH",
"392 151 OFFCURVE",
"286 217 OFFCURVE",
"138 207 CURVE",
"185 185 LINE",
"433 452 LINE",
"439 500 LINE",
"50 500 LINE",
"40 430 LINE",
"312 430 LINE SMOOTH",
"323 430 OFFCURVE",
"323 418 OFFCURVE",
"316 413 CURVE SMOOTH",
"264 371 LINE",
"87 180 LINE",
"82 134 LINE",
"143 134 LINE SMOOTH",
"263 134 OFFCURVE",
"312 90 OFFCURVE",
"310 10 CURVE SMOOTH",
"310 -98 OFFCURVE",
"238 -179 OFFCURVE",
"121 -179 CURVE SMOOTH",
"61 -179 OFFCURVE",
"2 -154 OFFCURVE",
"-34 -116 CURVE",
"-70 -182 LINE",
"-19 -230 OFFCURVE",
"40 -256 OFFCURVE",
"120 -256 CURVE SMOOTH"
);
}
);
width = 478;
}
);
unicode = 0292;
},
{
color = 5;
glyphname = f;
lastChange = "2018-05-16 00:33:18 +0000";
layers = (
{
anchors = (
{
name = bottom;
position = "{153, 0}";
},
{
name = top;
position = "{225, 510}";
}
);
background = {
components = (
{
name = s;
transform = "{1, 0, 0, 1, 99, 231}";
}
);
};
layerId = "6B2E1CAF-7E84-411F-9290-838331FE9C95";
paths = (
{
closed = 1;
nodes = (
"210 0 LINE",
"264 386 LINE",
"368 386 LINE",
"387 510 LINE",
"282 510 LINE",
"287 553 LINE SMOOTH",
"293 604 OFFCURVE",
"323 632 OFFCURVE",
"384 632 CURVE SMOOTH",
"404 632 OFFCURVE",
"432 628 OFFCURVE",
"455 617 CURVE",
"496 726 LINE",
"470 742 OFFCURVE",
"429 753 OFFCURVE",
"380 753 CURVE SMOOTH",
"249 753 OFFCURVE",
"157 688 OFFCURVE",
"140 570 CURVE SMOOTH",
"132 510 LINE",
"47 510 LINE",
"28 386 LINE",
"114 386 LINE",
"60 0 LINE"
);
}
);
width = 403;
},
{
anchors = (
{
name = bottom;
position = "{118, 0}";
},
{
name = top;
position = "{188, 500}";
}
);
background = {
components = (
{
name = s;
transform = "{1, 0, 0, 1, 70, 242}";
}
);
};
layerId = "3DBDB2C8-AF6E-4CF3-B71C-7D596AD599C8";
paths = (
{
closed = 1;
nodes = (
"144 0 LINE",
"204 430 LINE",
"335 430 LINE",
"345 500 LINE",
"214 500 LINE",
"223 563 LINE SMOOTH",
"232 640 OFFCURVE",
"279 681 OFFCURVE",
"342 681 CURVE SMOOTH",
"368 681 OFFCURVE",
"391 677 OFFCURVE",
"420 666 CURVE",
"446 730 LINE",
"409 747 OFFCURVE",
"380 753 OFFCURVE",
"345 753 CURVE SMOOTH",
"221 753 OFFCURVE",
"161 676 OFFCURVE",
"149 584 CURVE SMOOTH",
"137 500 LINE",
"35 500 LINE",
"25 430 LINE",
"127 430 LINE",
"67 0 LINE"
);
}
);
width = 345;
}
);
leftKerningGroup = f;
rightKerningGroup = f;
unicode = 0066;
userData = {
com.schriftgestaltung.Glyphs.ColorIndex = 3;
};
},
{
color = 5;
glyphname = g;
lastChange = "2018-05-16 00:33:18 +0000";
layers = (
{
anchors = (
{
name = bottom;
position = "{237, 0}";
},
{
name = top;
position = "{309, 510}";
}
);
background = {
components = (
{
name = a;
}
);
};
layerId = "6B2E1CAF-7E84-411F-9290-838331FE9C95";
paths = (
{
closed = 1;
nodes = (
"292 -208 OFFCURVE",
"406 -158 OFFCURVE",
"434 43 CURVE SMOOTH",
"506 564 LINE",
"517 516 LINE",
"398 503 LINE SMOOTH",
"391 502 OFFCURVE",
"387 502 OFFCURVE",
"382 504 CURVE SMOOTH",
"346 517 LINE",
"323 520 OFFCURVE",
"309 521 OFFCURVE",
"294 521 CURVE SMOOTH",
"196 521 OFFCURVE",
"121 475 OFFCURVE",
"72 387 CURVE SMOOTH",
"42 333 OFFCURVE",
"28 244 OFFCURVE",
"28 175 CURVE SMOOTH",
"28 31 OFFCURVE",
"120 -9 OFFCURVE",
"207 -9 CURVE",
"268 10 LINE SMOOTH",
"278 13 OFFCURVE",
"285 8 OFFCURVE",
"283 -2 CURVE SMOOTH",
"280 -19 LINE SMOOTH",
"273 -58 OFFCURVE",
"229 -86 OFFCURVE",
"164 -86 CURVE SMOOTH",
"107 -86 OFFCURVE",
"69 -75 OFFCURVE",
"18 -42 CURVE",
"-24 -150 LINE",
"28 -188 OFFCURVE",
"88 -208 OFFCURVE",
"176 -208 CURVE SMOOTH"
);
},
{
closed = 1;
nodes = (
"202 122 OFFCURVE",
"166 130 OFFCURVE",
"166 198 CURVE SMOOTH",
"166 247 OFFCURVE",
"172 296 OFFCURVE",
"195 342 CURVE SMOOTH",
"214 380 OFFCURVE",
"253 398 OFFCURVE",
"294 398 CURVE SMOOTH",
"323 398 OFFCURVE",
"348 395 OFFCURVE",
"417 371 CURVE",
"345 436 LINE",
"301 122 LINE",
"330 167 LINE",
"287 135 OFFCURVE",
"262 122 OFFCURVE",
"230 122 CURVE SMOOTH"
);
}
);
width = 524;
},
{
anchors = (
{
name = bottom;
position = "{225, 0}";
},
{
name = top;
position = "{295, 500}";
}
);
layerId = "3DBDB2C8-AF6E-4CF3-B71C-7D596AD599C8";
leftMetricsKey = "=o";
paths = (
{
closed = 1;
nodes = (
"273 -204 OFFCURVE",
"371 -142 OFFCURVE",
"396 17 CURVE SMOOTH",
"470 504 LINE",
"413 498 LINE SMOOTH",
"406 497 OFFCURVE",
"402 497 OFFCURVE",
"397 498 CURVE SMOOTH",
"359 507 LINE",
"344 509 OFFCURVE",
"328 510 OFFCURVE",
"306 510 CURVE SMOOTH",
"212 510 OFFCURVE",
"135 456 OFFCURVE",
"95 375 CURVE SMOOTH",
"63 310 OFFCURVE",
"48 235 OFFCURVE",
"48 158 CURVE SMOOTH",
"48 16 OFFCURVE",
"134 -10 OFFCURVE",
"197 -10 CURVE SMOOTH",
"211 -10 OFFCURVE",
"227 -8 OFFCURVE",
"241 -4 CURVE",
"309 33 LINE SMOOTH",
"320 39 OFFCURVE",
"328 35 OFFCURVE",
"326 22 CURVE SMOOTH",
"320 -11 LINE SMOOTH",
"305 -88 OFFCURVE",
"244 -134 OFFCURVE",
"166 -134 CURVE SMOOTH",
"105 -134 OFFCURVE",
"56 -112 OFFCURVE",
"25 -78 CURVE",
"-1 -148 LINE",
"29 -178 OFFCURVE",
"91 -204 OFFCURVE",
"151 -204 CURVE SMOOTH"
);
},
{
closed = 1;
nodes = (
"168 63 OFFCURVE",
"124 77 OFFCURVE",
"124 153 CURVE SMOOTH",
"124 233 OFFCURVE",
"136 288 OFFCURVE",
"157 338 CURVE SMOOTH",
"186 402 OFFCURVE",
"240 440 OFFCURVE",
"312 440 CURVE SMOOTH",
"338 440 OFFCURVE",
"356 437 OFFCURVE",
"381 430 CURVE",
"340 122 LINE",
"258 75 OFFCURVE",
"224 63 OFFCURVE",
"202 63 CURVE SMOOTH"
);
}
);
width = 514;
}
);
leftKerningGroup = o;
rightKerningGroup = g;
rightMetricsKey = n;
unicode = 0067;
userData = {
com.schriftgestaltung.Glyphs.ColorIndex = 3;
com.schriftgestaltung.Glyphs.layer.leftMetricsKey = "==o";
com.schriftgestaltung.Glyphs.rightMetricsKey = n;
};
},
{
color = 5;
glyphname = gstroke;
lastChange = "2018-05-16 00:32:49 +0000";
layers = (
{
anchors = (
{
name = _center;
position = "{398, 9}";
},
{
name = bottom;
position = "{240, 0}";
},
{
name = top;
position = "{312, 510}";
}
);
layerId = "6B2E1CAF-7E84-411F-9290-838331FE9C95";
paths = (
{
closed = 1;
nodes = (
"515 -65 LINE",
"528 29 LINE",
"152 29 LINE",
"139 -65 LINE"
);
},
{
closed = 1;
nodes = (
"291 -214 OFFCURVE",
"406 -164 OFFCURVE",
"421 -56 CURVE SMOOTH",
"505 564 LINE",
"516 516 LINE",
"397 503 LINE SMOOTH",
"390 502 OFFCURVE",
"386 502 OFFCURVE",
"381 504 CURVE SMOOTH",
"345 517 LINE",
"322 520 OFFCURVE",
"308 521 OFFCURVE",
"293 521 CURVE SMOOTH",
"195 521 OFFCURVE",
"120 475 OFFCURVE",
"71 387 CURVE SMOOTH",
"41 333 OFFCURVE",
"34 252 OFFCURVE",
"34 212 CURVE SMOOTH",
"34 84 OFFCURVE",
"126 48 OFFCURVE",
"213 48 CURVE",
"274 67 LINE SMOOTH",
"284 70 OFFCURVE",
"291 65 OFFCURVE",
"289 55 CURVE SMOOTH",
"273 -56 LINE SMOOTH",
"271 -74 OFFCURVE",
"250 -92 OFFCURVE",
"163 -92 CURVE SMOOTH",
"106 -92 OFFCURVE",
"68 -81 OFFCURVE",
"17 -48 CURVE",
"-25 -156 LINE",
"27 -194 OFFCURVE",
"87 -214 OFFCURVE",
"175 -214 CURVE SMOOTH"
);
},
{
closed = 1;
nodes = (
"208 179 OFFCURVE",
"172 185 OFFCURVE",
"172 235 CURVE SMOOTH",
"172 259 OFFCURVE",
"178 310 OFFCURVE",
"194 342 CURVE SMOOTH",
"213 380 OFFCURVE",
"252 398 OFFCURVE",
"293 398 CURVE SMOOTH",
"322 398 OFFCURVE",
"347 395 OFFCURVE",
"416 371 CURVE",
"344 436 LINE",
"307 179 LINE",
"336 224 LINE",
"293 192 OFFCURVE",
"268 179 OFFCURVE",
"236 179 CURVE SMOOTH"
);
}
);
width = 569;
},
{
anchors = (
{
name = bottom;
position = "{225, 0}";
},
{
name = top;
position = "{295, 500}";
}
);
layerId = "3DBDB2C8-AF6E-4CF3-B71C-7D596AD599C8";
paths = (
{
closed = 1;
nodes = (
"499 -69 LINE",
"499 0 LINE",
"168 0 LINE",
"168 -69 LINE"
);
},
{
closed = 1;
nodes = (
"312 -204 OFFCURVE",
"382 -84 OFFCURVE",
"402 50 CURVE SMOOTH",
"470 504 LINE",
"413 498 LINE SMOOTH",
"406 497 OFFCURVE",
"402 497 OFFCURVE",
"397 498 CURVE SMOOTH",
"359 507 LINE",
"344 509 OFFCURVE",
"328 510 OFFCURVE",
"306 510 CURVE SMOOTH",
"212 510 OFFCURVE",
"135 456 OFFCURVE",
"95 375 CURVE SMOOTH",
"63 310 OFFCURVE",
"57 271 OFFCURVE",
"57 216 CURVE SMOOTH",
"57 74 OFFCURVE",
"143 48 OFFCURVE",
"206 48 CURVE SMOOTH",
"220 48 OFFCURVE",
"236 50 OFFCURVE",
"250 54 CURVE",
"318 91 LINE SMOOTH",
"329 97 OFFCURVE",
"337 93 OFFCURVE",
"335 80 CURVE SMOOTH",
"329 47 LINE SMOOTH",
"311 -54 OFFCURVE",
"265 -134 OFFCURVE",
"166 -134 CURVE SMOOTH",
"105 -134 OFFCURVE",
"56 -112 OFFCURVE",
"25 -78 CURVE",
"-1 -148 LINE",
"29 -178 OFFCURVE",
"91 -204 OFFCURVE",
"151 -204 CURVE SMOOTH"
);
},
{
closed = 1;
nodes = (
"177 121 OFFCURVE",
"133 135 OFFCURVE",
"133 211 CURVE SMOOTH",
"133 250 OFFCURVE",
"136 288 OFFCURVE",
"157 338 CURVE SMOOTH",
"186 402 OFFCURVE",
"240 440 OFFCURVE",
"312 440 CURVE SMOOTH",
"338 440 OFFCURVE",
"356 437 OFFCURVE",
"381 430 CURVE",
"349 180 LINE",
"267 133 OFFCURVE",
"233 121 OFFCURVE",
"211 121 CURVE SMOOTH"
);
}
);
width = 524;
}
);
unicode = 01E5;
},
{
color = 5;
glyphname = h;
lastChange = "2018-05-16 00:33:18 +0000";
layers = (
{
anchors = (
{
name = bottom;
position = "{247, 0}";
},
{
name = center;
position = "{189, 612}";
},
{
name = top;
position = "{370, 750}";
}
);
background = {
components = (
{
name = n;
transform = "{1, 0, 0, 1, 1, 0}";
}
);
};
layerId = "6B2E1CAF-7E84-411F-9290-838331FE9C95";
paths = (
{
closed = 1;
nodes = (
"176 0 LINE",
"282 751 LINE",
"136 751 LINE",
"30 0 LINE"
);
},
{
closed = 1;
nodes = (
"219 358 LINE",
"252 377 OFFCURVE",
"278 389 OFFCURVE",
"308 389 CURVE SMOOTH",
"344 389 OFFCURVE",
"357 368 OFFCURVE",
"351 325 CURVE SMOOTH",
"306 0 LINE",
"452 0 LINE",
"501 345 LINE SMOOTH",
"518 467 OFFCURVE",
"461 520 OFFCURVE",
"369 520 CURVE SMOOTH",
"316 520 OFFCURVE",
"282 512 OFFCURVE",
"228 474 CURVE"
);
}
);
width = 548;
},
{
anchors = (
{
name = bottom;
position = "{231, 0}";
},
{
name = center;
position = "{176, 610}";
},
{
name = top;
position = "{356, 750}";
}
);
background = {
components = (
{
name = n;
}
);
};
layerId = "3DBDB2C8-AF6E-4CF3-B71C-7D596AD599C8";
rightMetricsKey = "=n";
paths = (
{
closed = 1;
nodes = (
"235 750 LINE",
"155 750 LINE",
"50 0 LINE",
"130 0 LINE"
);
},
{
closed = 1;
nodes = (
"169 378 LINE",
"252 429 OFFCURVE",
"283 437 OFFCURVE",
"322 437 CURVE SMOOTH",
"368 437 OFFCURVE",
"396 411 OFFCURVE",
"389 355 CURVE SMOOTH",
"342 0 LINE",
"422 0 LINE",
"468 349 LINE SMOOTH",
"481 444 OFFCURVE",
"421 510 OFFCURVE",
"333 510 CURVE SMOOTH",
"273 510 OFFCURVE",
"245 496 OFFCURVE",
"174 451 CURVE"
);
}
);
width = 537;
}
);
leftKerningGroup = h;
rightKerningGroup = n;
unicode = 0068;
userData = {
com.schriftgestaltung.Glyphs.ColorIndex = 3;
com.schriftgestaltung.Glyphs.layer.leftMetricsKey = "==n";
com.schriftgestaltung.Glyphs.layer.rightMetricsKey = "==n";
com.schriftgestaltung.Glyphs.leftMetricsKey = n;
com.schriftgestaltung.Glyphs.rightMetricsKey = n;
};
},
{
color = 5;
glyphname = i;
lastChange = "2018-05-16 00:33:18 +0000";
layers = (
{
anchors = (
{
name = bottom;
position = "{134, 0}";
}
);
background = {
paths = (
{
closed = 1;
nodes = (
"274 0 LINE",
"250 48 LINE SMOOTH",
"233 83 OFFCURVE",
"229 111 OFFCURVE",
"234 148 CURVE SMOOTH",
"286 510 LINE",
"46 510 LINE",
"28 386 LINE",
"118 386 LINE",
"82 132 LINE SMOOTH",
"77 95 OFFCURVE",
"80 68 OFFCURVE",
"95 32 CURVE SMOOTH",
"108 0 LINE"
);
},
{
closed = 1;
nodes = (
"295 578 LINE",
"313 700 LINE",
"163 700 LINE",
"145 578 LINE"
);
}
);
};
layerId = "6B2E1CAF-7E84-411F-9290-838331FE9C95";
paths = (
{
closed = 1;
nodes = (
"214 0 LINE",
"286 510 LINE",
"46 510 LINE",
"28 386 LINE",
"118 386 LINE",
"64 0 LINE"
);
},
{
closed = 1;
nodes = (
"295 578 LINE",
"313 700 LINE",
"163 700 LINE",
"145 578 LINE"
);
}
);
width = 320;
},
{
anchors = (
{
name = bottom;
position = "{78, 0}";
}
);
layerId = "3DBDB2C8-AF6E-4CF3-B71C-7D596AD599C8";
paths = (
{
closed = 1;
nodes = (
"135 0 LINE",
"205 500 LINE",
"55 500 LINE",
"45 430 LINE",
"115 430 LINE",
"55 0 LINE"
);
},
{
closed = 1;
nodes = (
"219 600 LINE",
"233 700 LINE",
"153 700 LINE",
"139 600 LINE"
);
}
);
width = 255;
}
);
leftKerningGroup = i;
rightKerningGroup = i;
unicode = 0069;
userData = {
com.schriftgestaltung.Glyphs.ColorIndex = 3;
};
},
{
color = 5;
glyphname = idotless;
lastChange = "2018-05-16 00:32:49 +0000";
layers = (
{
anchors = (
{
name = bottom;
position = "{129, 0}";
},
{
name = ogonek;
position = "{263, 10}";
},
{
name = top;
position = "{201, 510}";
}
);
layerId = "6B2E1CAF-7E84-411F-9290-838331FE9C95";
paths = (
{
closed = 1;
nodes = (
"224 0 LINE",
"296 510 LINE",
"56 510 LINE",
"38 386 LINE",
"128 386 LINE",
"74 0 LINE"
);
}
);
width = 325;
},
{
anchors = (
{
name = bottom;
position = "{110, 0}";
},
{
name = ogonek;
position = "{227, 10}";
},
{
name = top;
position = "{180, 500}";
}
);
layerId = "3DBDB2C8-AF6E-4CF3-B71C-7D596AD599C8";
paths = (
{
closed = 1;
nodes = (
"165 0 LINE",
"235 500 LINE",
"85 500 LINE",
"75 430 LINE",
"145 430 LINE",
"85 0 LINE"
);
}
);
width = 290;
}
);
leftKerningGroup = i;
rightKerningGroup = i;
unicode = 0131;
},
{
color = 5;
glyphname = idieresis;
lastChange = "2018-05-16 00:32:49 +0000";
layers = (
{
components = (
{
name = idotless;
}
);
layerId = "6B2E1CAF-7E84-411F-9290-838331FE9C95";
paths = (
{
closed = 1;
nodes = (
"340 578 LINE",
"357 700 LINE",
"237 700 LINE",
"220 578 LINE"
);
},
{
closed = 1;
nodes = (
"178 578 LINE",
"195 700 LINE",
"75 700 LINE",
"58 578 LINE"
);
}
);
width = 330;
},
{
components = (
{
name = idotless;
}
);
layerId = "3DBDB2C8-AF6E-4CF3-B71C-7D596AD599C8";
paths = (
{
closed = 1;
nodes = (
"303 600 LINE",
"317 700 LINE",
"236 700 LINE",
"222 600 LINE"
);
},
{
closed = 1;
nodes = (
"153 600 LINE",
"167 700 LINE",
"86 700 LINE",
"72 600 LINE"
);
}
);
width = 290;
}
);
leftKerningGroup = i;
rightKerningGroup = i;
unicode = 00EF;
},
{
color = 5;
glyphname = j;
lastChange = "2018-05-16 00:33:18 +0000";
layers = (
{
layerId = "6B2E1CAF-7E84-411F-9290-838331FE9C95";
rightMetricsKey = "=i";
paths = (
{
closed = 1;
nodes = (
"83 -215 OFFCURVE",
"203 -151 OFFCURVE",
"226 10 CURVE SMOOTH",
"296 510 LINE",
"56 510 LINE",
"39 387 LINE",
"129 387 LINE",
"76 12 LINE SMOOTH",
"68 -45 OFFCURVE",
"22 -75 OFFCURVE",
"-38 -90 CURVE",
"-15 -222 LINE"
);
},
{
closed = 1;
nodes = (
"304 578 LINE",
"322 700 LINE",
"173 700 LINE",
"155 578 LINE"
);
}
);
width = 330;
},
{
layerId = "3DBDB2C8-AF6E-4CF3-B71C-7D596AD599C8";
rightMetricsKey = "=i";
paths = (
{
closed = 1;
nodes = (
"78 -190 OFFCURVE",
"146 -124 OFFCURVE",
"165 3 CURVE SMOOTH",
"236 500 LINE",
"85 500 LINE",
"75 430 LINE",
"145 430 LINE",
"86 7 LINE SMOOTH",
"73 -85 OFFCURVE",
"18 -136 OFFCURVE",
"-47 -153 CURVE",
"-24 -223 LINE"
);
},
{
closed = 1;
nodes = (
"249 600 LINE",
"263 700 LINE",
"183 700 LINE",
"169 600 LINE"
);
}
);
width = 286;
}
);
leftKerningGroup = j;
rightKerningGroup = j;
rightMetricsKey = i;
unicode = 006A;
userData = {
com.schriftgestaltung.Glyphs.ColorIndex = 3;
com.schriftgestaltung.Glyphs.layer.leftMetricsKey = "==i-20";
com.schriftgestaltung.Glyphs.layer.rightMetricsKey = "==i";
com.schriftgestaltung.Glyphs.leftMetricsKey = n;
com.schriftgestaltung.Glyphs.rightMetricsKey = n;
};
},
{
color = 5;
glyphname = k;
lastChange = "2018-05-16 00:33:18 +0000";
layers = (
{
anchors = (
{
name = bottom;
position = "{227, 0}";
},
{
name = top;
position = "{349, 700}";
}
);
layerId = "6B2E1CAF-7E84-411F-9290-838331FE9C95";
paths = (
{
closed = 1;
nodes = (
"176 0 LINE",
"208 223 LINE",
"264 223 LINE",
"305 0 LINE",
"462 0 LINE",
"389 297 LINE",
"529 511 LINE",
"365 511 LINE",
"268 353 LINE SMOOTH",
"226 353 LINE",
"282 750 LINE",
"136 750 LINE",
"30 0 LINE"
);
}
);
width = 524;
},
{
anchors = (
{
name = bottom;
position = "{204, 0}";
},
{
name = top;
position = "{317, 670}";
}
);
layerId = "3DBDB2C8-AF6E-4CF3-B71C-7D596AD599C8";
paths = (
{
closed = 1;
nodes = (
"132 0 LINE",
"165 239 LINE",
"241 239 LINE",
"323 0 LINE",
"411 0 LINE",
"310 285 LINE",
"459 500 LINE",
"363 500 LINE",
"229 309 LINE",
"175 309 LINE",
"237 750 LINE",
"155 750 LINE",
"50 0 LINE"
);
}
);
width = 487;
}
);
leftKerningGroup = h;
leftMetricsKey = h;
rightKerningGroup = k;
unicode = 006B;
userData = {
com.schriftgestaltung.Glyphs.ColorIndex = 3;
com.schriftgestaltung.Glyphs.layer.leftMetricsKey = "==n";
com.schriftgestaltung.Glyphs.leftMetricsKey = n;
};
},
{
color = 5;
glyphname = l;
lastChange = "2018-05-16 00:33:18 +0000";
layers = (
{
anchors = (
{
name = bottom;
position = "{85, 0}";
},
{
name = center;
position = "{213, 455}";
},
{
name = top;
position = "{287, 750}";
},
{
name = topright;
position = "{352, 750}";
}
);
background = {
anchors = (
{
name = bottom;
position = "{423, 0}";
},
{
name = top;
position = "{423, 500}";
},
{
name = topright;
position = "{519, 500}";
}
);
paths = (
{
closed = 1;
nodes = (
"236 0 LINE",
"212 48 LINE SMOOTH",
"195 83 OFFCURVE",
"191 111 OFFCURVE",
"196 148 CURVE SMOOTH",
"282 750 LINE",
"47 750 LINE",
"29 626 LINE",
"119 626 LINE",
"49 132 LINE SMOOTH",
"44 95 OFFCURVE",
"47 68 OFFCURVE",
"62 32 CURVE SMOOTH",
"75 0 LINE"
);
}
);
};
layerId = "6B2E1CAF-7E84-411F-9290-838331FE9C95";
paths = (
{
closed = 1;
nodes = (
"246 1 LINE",
"264 130 LINE",
"215 130 LINE SMOOTH",
"200 130 OFFCURVE",
"193 133 OFFCURVE",
"196 151 CURVE SMOOTH",
"282 750 LINE",
"137 750 LINE",
"48 124 LINE SMOOTH",
"38 53 OFFCURVE",
"84 1 OFFCURVE",
"154 1 CURVE SMOOTH"
);
}
);
width = 302;
},
{
anchors = (
{
name = bottom;
position = "{103, 0}";
},
{
name = center;
position = "{166, 450}";
},
{
name = top;
position = "{196, 750}";
},
{
name = topright;
position = "{235, 750}";
}
);
background = {
anchors = (
{
name = bottom;
position = "{108, 0}";
},
{
name = center;
position = "{148, 250}";
},
{
name = top;
position = "{108, 500}";
},
{
name = topright;
position = "{204, 500}";
}
);
paths = (
{
closed = 1;
nodes = (
"95 750 LINE",
"95 61 LINE",
"148 -11 LINE",
"215 31 LINE",
"175 90 LINE",
"175 750 LINE"
);
}
);
};
layerId = "3DBDB2C8-AF6E-4CF3-B71C-7D596AD599C8";
leftMetricsKey = "=h";
paths = (
{
closed = 1;
nodes = (
"205 0 LINE",
"215 70 LINE",
"172 70 LINE SMOOTH",
"151 70 OFFCURVE",
"141 83 OFFCURVE",
"145 106 CURVE SMOOTH",
"235 750 LINE",
"155 750 LINE",
"65 110 LINE SMOOTH",
"56 44 OFFCURVE",
"97 0 OFFCURVE",
"166 0 CURVE SMOOTH"
);
}
);
width = 275;
}
);
leftKerningGroup = h;
leftMetricsKey = h;
rightKerningGroup = l;
unicode = 006C;
userData = {
com.schriftgestaltung.Glyphs.ColorIndex = 3;
com.schriftgestaltung.Glyphs.layer.leftMetricsKey = "==h";
com.schriftgestaltung.Glyphs.leftMetricsKey = n;
com.typemytype.robofont.layerData = {
background = {
anchors = (
{
name = bottom;
x = 108;
y = 0;
},
{
name = top;
x = 108;
y = 500;
},
{
name = topright;
x = 204;
y = 500;
},
{
name = center;
x = 148;
y = 250;
}
);
components = (
);
contours = (
{
points = (
{
segmentType = line;
smooth = 0;
x = 95;
y = 750;
},
{
segmentType = line;
smooth = 0;
x = 95;
y = 61;
},
{
segmentType = line;
smooth = 0;
x = 148;
y = -11;
},
{
segmentType = line;
smooth = 0;
x = 215;
y = 31;
},
{
segmentType = line;
smooth = 0;
x = 175;
y = 90;
},
{
segmentType = line;
smooth = 0;
x = 175;
y = 750;
}
);
}
);
lib = {
};
name = l;
unicodes = (
);
width = 275;
};
};
};
},
{
color = 5;
glyphname = m;
lastChange = "2018-05-16 00:33:18 +0000";
layers = (
{
anchors = (
{
name = bottom;
position = "{535, 0}";
},
{
name = top;
position = "{607, 510}";
}
);
background = {
components = (
{
name = n;
transform = "{1, 0, 0, 1, 24, 0}";
}
);
};
layerId = "6B2E1CAF-7E84-411F-9290-838331FE9C95";
leftMetricsKey = "=n";
rightMetricsKey = "=n";
paths = (
{
closed = 1;
nodes = (
"200 0 LINE",
"261 432 LINE",
"189 322 LINE",
"257 364 OFFCURVE",
"289 389 OFFCURVE",
"328 389 CURVE SMOOTH",
"361 389 OFFCURVE",
"380 369 OFFCURVE",
"375 333 CURVE SMOOTH",
"328 0 LINE",
"474 0 LINE",
"530 389 LINE",
"466 319 LINE",
"535 369 OFFCURVE",
"571 389 OFFCURVE",
"604 389 CURVE SMOOTH",
"637 389 OFFCURVE",
"656 369 OFFCURVE",
"651 333 CURVE SMOOTH",
"604 0 LINE",
"750 0 LINE",
"797 328 LINE SMOOTH",
"814 446 OFFCURVE",
"753 520 OFFCURVE",
"647 522 CURVE SMOOTH",
"598 523 OFFCURVE",
"570 518 OFFCURVE",
"521 496 CURVE",
"505 478 LINE SMOOTH",
"500 472 OFFCURVE",
"493 470 OFFCURVE",
"488 475 CURVE SMOOTH",
"461 502 OFFCURVE",
"424 521 OFFCURVE",
"371 522 CURVE SMOOTH",
"318 523 OFFCURVE",
"286 517 OFFCURVE",
"233 488 CURVE",
"217 470 LINE SMOOTH",
"212 464 OFFCURVE",
"205 464 OFFCURVE",
"199 467 CURVE SMOOTH",
"92 520 LINE",
"30 396 LINE",
"168 328 LINE",
"113 429 LINE",
"54 0 LINE"
);
}
);
width = 847;
},
{
anchors = (
{
name = bottom;
position = "{375, 0}";
},
{
name = top;
position = "{445, 500}";
}
);
background = {
components = (
{
name = n;
},
{
name = n;
transform = "{1, 0, 0, 1, 290, 0}";
}
);
};
layerId = "3DBDB2C8-AF6E-4CF3-B71C-7D596AD599C8";
leftMetricsKey = "=n";
rightMetricsKey = "=n";
paths = (
{
closed = 1;
nodes = (
"130 0 LINE",
"190 423 LINE",
"141 362 LINE",
"249 427 OFFCURVE",
"277 437 OFFCURVE",
"324 437 CURVE SMOOTH",
"369 437 OFFCURVE",
"396 409 OFFCURVE",
"389 354 CURVE SMOOTH",
"342 0 LINE",
"422 0 LINE",
"479 421 LINE",
"428 359 LINE",
"529 422 OFFCURVE",
"563 437 OFFCURVE",
"612 437 CURVE SMOOTH",
"659 437 OFFCURVE",
"687 412 OFFCURVE",
"679 351 CURVE SMOOTH",
"632 0 LINE",
"712 0 LINE",
"759 347 LINE SMOOTH",
"771 434 OFFCURVE",
"724 510 OFFCURVE",
"623 510 CURVE SMOOTH",
"568 510 OFFCURVE",
"538 498 OFFCURVE",
"480 463 CURVE",
"468 451 LINE SMOOTH",
"462 445 OFFCURVE",
"454 446 OFFCURVE",
"450 452 CURVE SMOOTH",
"429 482 OFFCURVE",
"389 509 OFFCURVE",
"335 510 CURVE SMOOTH",
"291 511 OFFCURVE",
"257 502 OFFCURVE",
"211 475 CURVE",
"199 463 LINE SMOOTH",
"195 459 OFFCURVE",
"190 458 OFFCURVE",
"184 461 CURVE SMOOTH",
"83 510 LINE",
"50 440 LINE",
"141 396 LINE",
"112 449 LINE",
"50 0 LINE"
);
}
);
width = 827;
}
);
leftKerningGroup = n;
leftMetricsKey = n;
rightKerningGroup = n;
rightMetricsKey = n;
unicode = 006D;
userData = {
com.schriftgestaltung.Glyphs.ColorIndex = 3;
com.schriftgestaltung.Glyphs.layer.leftMetricsKey = "==n";
com.schriftgestaltung.Glyphs.layer.rightMetricsKey = "==n";
com.schriftgestaltung.Glyphs.leftMetricsKey = n;
com.schriftgestaltung.Glyphs.rightMetricsKey = n;
com.typemytype.robofont.layerData = {
background = {
anchors = (
);
components = (
);
contours = (
{
points = (
{
smooth = 0;
x = 283;
y = 512;
},
{
smooth = 0;
x = 266;
y = 510;
},
{
segmentType = curve;
smooth = 0;
x = 249;
y = 506;
},
{
segmentType = line;
smooth = 1;
x = 198;
y = 476;
},
{
smooth = 0;
x = 182;
y = 466;
},
{
smooth = 0;
x = 175;
y = 471;
},
{
segmentType = curve;
smooth = 1;
x = 175;
y = 484;
},
{
segmentType = line;
smooth = 0;
x = 175;
y = 500;
},
{
segmentType = line;
smooth = 0;
x = 95;
y = 500;
},
{
segmentType = line;
smooth = 0;
x = 95;
y = 0;
},
{
segmentType = line;
smooth = 0;
x = 175;
y = 0;
},
{
segmentType = line;
smooth = 1;
x = 175;
y = 348;
},
{
smooth = 0;
x = 175;
y = 404;
},
{
smooth = 0;
x = 205;
y = 440;
},
{
segmentType = curve;
smooth = 1;
x = 287;
y = 440;
},
{
smooth = 0;
x = 348;
y = 440;
},
{
smooth = 0;
x = 385;
y = 404;
},
{
segmentType = curve;
smooth = 1;
x = 385;
y = 348;
},
{
segmentType = line;
smooth = 0;
x = 385;
y = 0;
},
{
segmentType = line;
smooth = 0;
x = 465;
y = 0;
},
{
segmentType = line;
smooth = 1;
x = 465;
y = 348;
},
{
smooth = 0;
x = 465;
y = 404;
},
{
smooth = 0;
x = 491;
y = 440;
},
{
segmentType = curve;
smooth = 1;
x = 566;
y = 440;
},
{
smooth = 0;
x = 645;
y = 440;
},
{
smooth = 0;
x = 675;
y = 404;
},
{
segmentType = curve;
smooth = 1;
x = 675;
y = 348;
},
{
segmentType = line;
smooth = 0;
x = 675;
y = 0;
},
{
segmentType = line;
smooth = 0;
x = 755;
y = 0;
},
{
segmentType = line;
smooth = 1;
x = 755;
y = 357;
},
{
smooth = 0;
x = 755;
y = 449;
},
{
smooth = 0;
x = 699;
y = 512;
},
{
segmentType = curve;
smooth = 1;
x = 587;
y = 512;
},
{
smooth = 0;
x = 529;
y = 512;
},
{
smooth = 0;
x = 474;
y = 492;
},
{
segmentType = curve;
smooth = 0;
x = 437;
y = 451;
},
{
smooth = 0;
x = 410;
y = 489;
},
{
smooth = 0;
x = 360;
y = 512;
},
{
segmentType = curve;
smooth = 0;
x = 303;
y = 512;
}
);
}
);
lib = {
};
name = m;
unicodes = (
);
width = 825;
};
};
};
},
{
color = 5;
glyphname = n;
lastChange = "2018-05-16 00:33:18 +0000";
layers = (
{
anchors = (
{
name = bottom;
position = "{287, 0}";
},
{
name = top;
position = "{359, 510}";
}
);
background = {
components = (
{
name = a;
transform = "{-1, 0, 0, -1, 556, 510}";
}
);
};
layerId = "6B2E1CAF-7E84-411F-9290-838331FE9C95";
paths = (
{
closed = 1;
nodes = (
"200 0 LINE",
"254 381 LINE SMOOTH",
"232 349 LINE",
"272 375 OFFCURVE",
"298 389 OFFCURVE",
"328 389 CURVE SMOOTH",
"361 389 OFFCURVE",
"380 369 OFFCURVE",
"375 333 CURVE SMOOTH",
"328 0 LINE",
"474 0 LINE",
"521 328 LINE SMOOTH",
"538 450 OFFCURVE",
"479 520 OFFCURVE",
"371 522 CURVE SMOOTH",
"318 523 OFFCURVE",
"286 519 OFFCURVE",
"233 488 CURVE",
"217 470 LINE SMOOTH",
"212 464 OFFCURVE",
"205 464 OFFCURVE",
"199 467 CURVE SMOOTH",
"92 520 LINE",
"30 396 LINE",
"177 323 LINE",
"115 448 LINE",
"54 0 LINE"
);
}
);
width = 571;
},
{
anchors = (
{
name = bottom;
position = "{244, 0}";
},
{
name = top;
position = "{314, 500}";
}
);
background = {
paths = (
{
closed = 1;
nodes = (
"140 0 LINE",
"188 346 LINE SMOOTH",
"196 401 OFFCURVE",
"243 438 OFFCURVE",
"307 438 CURVE SMOOTH",
"377 438 OFFCURVE",
"409 405 OFFCURVE",
"398 330 CURVE SMOOTH",
"352 0 LINE",
"432 0 LINE",
"479 335 LINE SMOOTH",
"497 447 OFFCURVE",
"432 512 OFFCURVE",
"317 512 CURVE SMOOTH",
"256 512 OFFCURVE",
"204 486 OFFCURVE",
"162 443 CURVE",
"236 440 LINE",
"93 510 LINE",
"60 440 LINE",
"161 391 LINE",
"122 447 LINE",
"60 0 LINE"
);
}
);
};
layerId = "3DBDB2C8-AF6E-4CF3-B71C-7D596AD599C8";
paths = (
{
closed = 1;
nodes = (
"140 0 LINE",
"200 424 LINE",
"179 377 LINE",
"261 428 OFFCURVE",
"288 437 OFFCURVE",
"331 437 CURVE SMOOTH",
"379 437 OFFCURVE",
"407 413 OFFCURVE",
"398 344 CURVE SMOOTH",
"352 0 LINE",
"432 0 LINE",
"478 340 LINE SMOOTH",
"491 438 OFFCURVE",
"444 508 OFFCURVE",
"341 510 CURVE SMOOTH",
"295 511 OFFCURVE",
"264 501 OFFCURVE",
"221 475 CURVE",
"209 463 LINE SMOOTH",
"205 459 OFFCURVE",
"200 458 OFFCURVE",
"194 461 CURVE SMOOTH",
"93 510 LINE",
"60 440 LINE",
"161 391 LINE",
"122 447 LINE",
"60 0 LINE"
);
}
);
width = 547;
}
);
leftKerningGroup = n;
rightKerningGroup = n;
rightMetricsKey = h;
unicode = 006E;
userData = {
com.schriftgestaltung.Glyphs.ColorIndex = 3;
};
},
{
color = 5;
glyphname = eng;
lastChange = "2018-05-16 09:39:11 +0000";
layers = (
{
components = (
{
name = n;
}
);
layerId = "6B2E1CAF-7E84-411F-9290-838331FE9C95";
paths = (
{
closed = 1;
nodes = (
"337 -215 OFFCURVE",
"452 -151 OFFCURVE",
"474 0 CURVE",
"328 0 LINE",
"318 -57 OFFCURVE",
"276 -76 OFFCURVE",
"212 -90 CURVE",
"235 -222 LINE"
);
}
);
width = 561;
},
{
components = (
{
name = n;
}
);
layerId = "3DBDB2C8-AF6E-4CF3-B71C-7D596AD599C8";
paths = (
{
closed = 1;
nodes = (
"353 -191 OFFCURVE",
"414 -124 OFFCURVE",
"432 0 CURVE",
"352 0 LINE",
"340 -86 OFFCURVE",
"294 -137 OFFCURVE",
"238 -153 CURVE",
"261 -223 LINE"
);
}
);
width = 537;
}
);
leftMetricsKey = n;
rightMetricsKey = n;
unicode = 014B;
},
{
color = 5;
glyphname = o;
lastChange = "2018-05-16 00:33:18 +0000";
layers = (
{
anchors = (
{
name = bottom;
position = "{229, 0}";
},
{
name = center;
position = "{265, 255}";
},
{
name = ogonek;
position = "{450, 10}";
},
{
name = top;
position = "{301, 510}";
},
{
name = topright;
position = "{555, 510}";
}
);
background = {
paths = (
{
closed = 1;
nodes = (
"362 -12 OFFCURVE",
"446 60 OFFCURVE",
"475 156 CURVE SMOOTH",
"484 193 OFFCURVE",
"489 221 OFFCURVE",
"492 244 CURVE SMOOTH",
"497 279 OFFCURVE",
"499 308 OFFCURVE",
"499 336 CURVE SMOOTH",
"501 443 OFFCURVE",
"430 522 OFFCURVE",
"294 522 CURVE SMOOTH",
"166 522 OFFCURVE",
"82 450 OFFCURVE",
"54 354 CURVE SMOOTH",
"44 316 OFFCURVE",
"40 287 OFFCURVE",
"36 262 CURVE SMOOTH",
"31 229 OFFCURVE",
"30 201 OFFCURVE",
"30 174 CURVE SMOOTH",
"28 68 OFFCURVE",
"98 -12 OFFCURVE",
"234 -12 CURVE SMOOTH"
);
},
{
closed = 1;
nodes = (
"190 112 OFFCURVE",
"171 142 OFFCURVE",
"172 179 CURVE SMOOTH",
"174 232 OFFCURVE",
"179 269 OFFCURVE",
"191 313 CURVE SMOOTH",
"201 360 OFFCURVE",
"238 399 OFFCURVE",
"291 399 CURVE SMOOTH",
"339 399 OFFCURVE",
"359 368 OFFCURVE",
"358 331 CURVE SMOOTH",
"355 276 OFFCURVE",
"350 240 OFFCURVE",
"337 196 CURVE SMOOTH",
"326 151 OFFCURVE",
"291 112 OFFCURVE",
"237 112 CURVE SMOOTH"
);
}
);
};
layerId = "6B2E1CAF-7E84-411F-9290-838331FE9C95";
paths = (
{
closed = 1;
nodes = (
"356 -12 OFFCURVE",
"434 57 OFFCURVE",
"463 153 CURVE SMOOTH",
"479 204 OFFCURVE",
"491 270 OFFCURVE",
"491 323 CURVE SMOOTH",
"491 422 OFFCURVE",
"425 522 OFFCURVE",
"286 522 CURVE SMOOTH",
"160 522 OFFCURVE",
"84 453 OFFCURVE",
"55 358 CURVE SMOOTH",
"39 307 OFFCURVE",
"28 240 OFFCURVE",
"28 187 CURVE SMOOTH",
"28 89 OFFCURVE",
"92 -12 OFFCURVE",
"230 -12 CURVE SMOOTH"
);
},
{
closed = 1;
nodes = (
"192 109 OFFCURVE",
"168 143 OFFCURVE",
"168 196 CURVE SMOOTH",
"168 241 OFFCURVE",
"179 302 OFFCURVE",
"189 329 CURVE SMOOTH",
"203 370 OFFCURVE",
"233 401 OFFCURVE",
"276 401 CURVE SMOOTH",
"324 401 OFFCURVE",
"351 366 OFFCURVE",
"351 315 CURVE SMOOTH",
"351 275 OFFCURVE",
"340 210 OFFCURVE",
"329 182 CURVE SMOOTH",
"314 139 OFFCURVE",
"283 109 OFFCURVE",
"240 109 CURVE SMOOTH"
);
}
);
width = 519;
},
{
anchors = (
{
name = bottom;
position = "{220, 0}";
},
{
name = center;
position = "{255, 250}";
},
{
name = ogonek;
position = "{425, 10}";
},
{
name = top;
position = "{290, 500}";
},
{
name = topright;
position = "{525, 500}";
}
);
background = {
paths = (
{
closed = 1;
nodes = (
"389 -11 OFFCURVE",
"455 63 OFFCURVE",
"467 162 CURVE SMOOTH",
"471 194 OFFCURVE",
"473 221 OFFCURVE",
"473 249 CURVE SMOOTH",
"473 277 OFFCURVE",
"471 305 OFFCURVE",
"467 338 CURVE SMOOTH",
"455 438 OFFCURVE",
"389 511 OFFCURVE",
"273 511 CURVE SMOOTH",
"157 511 OFFCURVE",
"91 438 OFFCURVE",
"79 338 CURVE SMOOTH",
"75 305 OFFCURVE",
"73 277 OFFCURVE",
"73 249 CURVE SMOOTH",
"73 221 OFFCURVE",
"75 194 OFFCURVE",
"79 162 CURVE SMOOTH",
"91 63 OFFCURVE",
"157 -11 OFFCURVE",
"273 -11 CURVE SMOOTH"
);
},
{
closed = 1;
nodes = (
"200 58 OFFCURVE",
"162 107 OFFCURVE",
"156 165 CURVE SMOOTH",
"150 225 OFFCURVE",
"151 271 OFFCURVE",
"155 333 CURVE SMOOTH",
"159 391 OFFCURVE",
"200 440 OFFCURVE",
"273 440 CURVE SMOOTH",
"346 440 OFFCURVE",
"385 391 OFFCURVE",
"390 333 CURVE SMOOTH",
"395 271 OFFCURVE",
"395 225 OFFCURVE",
"390 165 CURVE SMOOTH",
"385 107 OFFCURVE",
"346 58 OFFCURVE",
"273 58 CURVE SMOOTH"
);
}
);
};
layerId = "3DBDB2C8-AF6E-4CF3-B71C-7D596AD599C8";
paths = (
{
closed = 1;
nodes = (
"316 -11 OFFCURVE",
"392 40 OFFCURVE",
"427 131 CURVE SMOOTH",
"447 183 OFFCURVE",
"460 268 OFFCURVE",
"460 327 CURVE SMOOTH",
"460 421 OFFCURVE",
"405 511 OFFCURVE",
"286 511 CURVE SMOOTH",
"194 511 OFFCURVE",
"118 460 OFFCURVE",
"83 369 CURVE SMOOTH",
"63 317 OFFCURVE",
"50 232 OFFCURVE",
"50 173 CURVE SMOOTH",
"50 79 OFFCURVE",
"105 -11 OFFCURVE",
"223 -11 CURVE SMOOTH"
);
},
{
closed = 1;
nodes = (
"155 60 OFFCURVE",
"126 116 OFFCURVE",
"126 177 CURVE SMOOTH",
"126 230 OFFCURVE",
"137 304 OFFCURVE",
"154 345 CURVE SMOOTH",
"178 406 OFFCURVE",
"216 440 OFFCURVE",
"281 440 CURVE SMOOTH",
"355 440 OFFCURVE",
"384 384 OFFCURVE",
"384 323 CURVE SMOOTH",
"384 274 OFFCURVE",
"373 193 OFFCURVE",
"356 155 CURVE SMOOTH",
"332 94 OFFCURVE",
"294 60 OFFCURVE",
"228 60 CURVE SMOOTH"
);
}
);
width = 510;
}
);
leftKerningGroup = o;
rightKerningGroup = o;
unicode = 006F;
userData = {
com.schriftgestaltung.Glyphs.ColorIndex = 3;
com.typemytype.robofont.layerData = {
background = {
anchors = (
);
components = (
);
contours = (
{
points = (
{
smooth = 0;
x = 539;
y = 66;
},
{
smooth = 0;
x = 451;
y = -8;
},
{
segmentType = curve;
smooth = 1;
x = 332;
y = -8;
},
{
smooth = 0;
x = 213;
y = -8;
},
{
smooth = 0;
x = 125;
y = 66;
},
{
segmentType = curve;
smooth = 1;
x = 125;
y = 252;
},
{
smooth = 0;
x = 125;
y = 438;
},
{
smooth = 0;
x = 213;
y = 512;
},
{
segmentType = curve;
smooth = 1;
x = 332;
y = 512;
},
{
smooth = 0;
x = 451;
y = 512;
},
{
smooth = 0;
x = 539;
y = 438;
},
{
segmentType = curve;
smooth = 1;
x = 539;
y = 252;
}
);
},
{
points = (
{
smooth = 0;
x = 465;
y = 408;
},
{
smooth = 0;
x = 406;
y = 446;
},
{
segmentType = curve;
smooth = 1;
x = 332;
y = 446;
},
{
smooth = 0;
x = 259;
y = 446;
},
{
smooth = 0;
x = 199;
y = 406;
},
{
segmentType = curve;
smooth = 1;
x = 199;
y = 252;
},
{
smooth = 0;
x = 199;
y = 98;
},
{
smooth = 0;
x = 259;
y = 58;
},
{
segmentType = curve;
smooth = 1;
x = 332;
y = 58;
},
{
smooth = 0;
x = 406;
y = 58;
},
{
smooth = 0;
x = 465;
y = 96;
},
{
segmentType = curve;
smooth = 1;
x = 465;
y = 252;
}
);
}
);
lib = {
};
name = o;
unicodes = (
);
width = 510;
};
};
};
},
{
color = 5;
glyphname = oe;
lastChange = "2018-08-15 16:18:11 +0000";
layers = (
{
anchors = (
{
name = bottom;
position = "{430, 0}";
},
{
name = center;
position = "{263, 255}";
},
{
name = ogonek;
position = "{421, 10}";
},
{
name = top;
position = "{430, 510}";
},
{
name = topright;
position = "{553, 510}";
}
);
background = {
components = (
{
name = e;
transform = "{1, 0, 0, 1, 302, 0}";
},
{
name = o;
}
);
};
layerId = "6B2E1CAF-7E84-411F-9290-838331FE9C95";
paths = (
{
closed = 1;
nodes = (
"284 -12 OFFCURVE",
"319 -4 OFFCURVE",
"366 25 CURVE",
"385 48 LINE SMOOTH",
"390 54 OFFCURVE",
"394 56 OFFCURVE",
"399 47 CURVE SMOOTH",
"410 25 LINE",
"444 3 OFFCURVE",
"485 -10 OFFCURVE",
"536 -10 CURVE SMOOTH",
"616 -10 OFFCURVE",
"697 18 OFFCURVE",
"745 108 CURVE",
"636 162 LINE",
"615 125 OFFCURVE",
"583 108 OFFCURVE",
"556 108 CURVE SMOOTH",
"507 108 OFFCURVE",
"468 137 OFFCURVE",
"471 191 CURVE SMOOTH",
"471 201 OFFCURVE",
"472 210 OFFCURVE",
"473 219 CURVE",
"741 219 LINE",
"776 288 LINE",
"794 417 OFFCURVE",
"740 520 OFFCURVE",
"587 520 CURVE SMOOTH",
"543 520 OFFCURVE",
"491 505 OFFCURVE",
"462 485 CURVE",
"444 459 LINE SMOOTH",
"438 452 OFFCURVE",
"434 453 OFFCURVE",
"430 459 CURVE SMOOTH",
"417 485 LINE",
"382 508 OFFCURVE",
"338 522 OFFCURVE",
"284 522 CURVE SMOOTH",
"159 522 OFFCURVE",
"84 453 OFFCURVE",
"55 358 CURVE SMOOTH",
"39 307 OFFCURVE",
"28 240 OFFCURVE",
"28 187 CURVE SMOOTH",
"28 89 OFFCURVE",
"91 -12 OFFCURVE",
"228 -12 CURVE SMOOTH"
);
},
{
closed = 1;
nodes = (
"190 109 OFFCURVE",
"166 143 OFFCURVE",
"166 196 CURVE SMOOTH",
"166 241 OFFCURVE",
"177 302 OFFCURVE",
"187 329 CURVE SMOOTH",
"201 370 OFFCURVE",
"231 401 OFFCURVE",
"274 401 CURVE SMOOTH",
"322 401 OFFCURVE",
"349 366 OFFCURVE",
"349 315 CURVE SMOOTH",
"349 275 OFFCURVE",
"338 210 OFFCURVE",
"327 182 CURVE SMOOTH",
"312 139 OFFCURVE",
"281 109 OFFCURVE",
"238 109 CURVE SMOOTH"
);
},
{
closed = 1;
nodes = (
"505 373 OFFCURVE",
"537 405 OFFCURVE",
"593 405 CURVE SMOOTH",
"637 405 OFFCURVE",
"663 371 OFFCURVE",
"651 318 CURVE",
"491 318 LINE"
);
}
);
width = 806;
},
{
anchors = (
{
name = bottom;
position = "{366, 0}";
},
{
name = center;
position = "{255, 250}";
},
{
name = ogonek;
position = "{904, 10}";
},
{
name = top;
position = "{436, 500}";
},
{
name = topright;
position = "{525, 500}";
}
);
background = {
components = (
{
name = e;
transform = "{1, 0, 0, 1, 324, 0}";
}
);
};
layerId = "3DBDB2C8-AF6E-4CF3-B71C-7D596AD599C8";
paths = (
{
closed = 1;
nodes = (
"562 510 OFFCURVE",
"509 493 OFFCURVE",
"474 458 CURVE",
"446 415 LINE SMOOTH",
"441 407 OFFCURVE",
"435 408 OFFCURVE",
"432 416 CURVE SMOOTH",
"413 460 LINE",
"388 489 OFFCURVE",
"348 511 OFFCURVE",
"286 511 CURVE SMOOTH",
"194 511 OFFCURVE",
"118 460 OFFCURVE",
"83 369 CURVE SMOOTH",
"63 317 OFFCURVE",
"50 232 OFFCURVE",
"50 173 CURVE SMOOTH",
"50 79 OFFCURVE",
"105 -11 OFFCURVE",
"223 -11 CURVE SMOOTH",
"281 -11 OFFCURVE",
"326 6 OFFCURVE",
"358 37 CURVE",
"388 83 LINE SMOOTH",
"392 90 OFFCURVE",
"398 91 OFFCURVE",
"402 82 CURVE SMOOTH",
"423 40 LINE",
"448 13 OFFCURVE",
"486 -10 OFFCURVE",
"551 -10 CURVE SMOOTH",
"614 -10 OFFCURVE",
"666 20 OFFCURVE",
"729 91 CURVE",
"669 120 LINE",
"632 80 OFFCURVE",
"601 60 OFFCURVE",
"559 60 CURVE SMOOTH",
"486 60 OFFCURVE",
"449 107 OFFCURVE",
"449 183 CURVE SMOOTH",
"449 205 OFFCURVE",
"450 219 OFFCURVE",
"452 233 CURVE",
"737 232 LINE",
"766 274 LINE",
"789 389 OFFCURVE",
"762 510 OFFCURVE",
"616 510 CURVE SMOOTH"
);
},
{
closed = 1;
nodes = (
"155 60 OFFCURVE",
"126 116 OFFCURVE",
"126 177 CURVE SMOOTH",
"126 230 OFFCURVE",
"137 304 OFFCURVE",
"154 345 CURVE SMOOTH",
"178 406 OFFCURVE",
"216 440 OFFCURVE",
"281 440 CURVE SMOOTH",
"355 440 OFFCURVE",
"384 384 OFFCURVE",
"384 323 CURVE SMOOTH",
"384 274 OFFCURVE",
"373 193 OFFCURVE",
"356 155 CURVE",
"332 94 OFFCURVE",
"294 60 OFFCURVE",
"228 60 CURVE SMOOTH"
);
},
{
closed = 1;
nodes = (
"465 302 LINE",
"492 395 OFFCURVE",
"555 440 OFFCURVE",
"615 440 CURVE SMOOTH",
"683 440 OFFCURVE",
"714 391 OFFCURVE",
"693 304 CURVE"
);
}
);
width = 805;
}
);
leftKerningGroup = o;
leftMetricsKey = o;
rightKerningGroup = e;
rightMetricsKey = e;
unicode = 0153;
userData = {
com.schriftgestaltung.Glyphs.leftMetricsKey = o;
com.schriftgestaltung.Glyphs.rightMetricsKey = e;
};
},
{
color = 5;
glyphname = p;
lastChange = "2018-05-16 00:33:18 +0000";
layers = (
{
anchors = (
{
name = bottom;
position = "{252, 0}";
},
{
name = bottomleft;
position = "{-35, 0}";
},
{
name = center;
position = "{69, -104}";
},
{
name = ogonek;
position = "{13, 497}";
},
{
name = top;
position = "{324, 510}";
}
);
layerId = "6B2E1CAF-7E84-411F-9290-838331FE9C95";
leftMetricsKey = "=n";
rightMetricsKey = "=o";
paths = (
{
closed = 1;
nodes = (
"53 77 LINE",
"16 -200 LINE",
"162 -200 LINE",
"199 77 LINE"
);
},
{
closed = 1;
nodes = (
"294 519 OFFCURVE",
"277 512 OFFCURVE",
"227 493 CURVE",
"209 473 LINE SMOOTH",
"206 469 OFFCURVE",
"200 469 OFFCURVE",
"195 471 CURVE SMOOTH",
"16 559 LINE",
"135 597 LINE",
"-3 334 LINE",
"-45 435 LINE",
"166 330 LINE",
"104 453 LINE",
"35 -54 LINE",
"24 -6 LINE",
"143 7 LINE SMOOTH",
"150 8 OFFCURVE",
"154 8 OFFCURVE",
"159 6 CURVE SMOOTH",
"195 -7 LINE",
"218 -10 OFFCURVE",
"232 -11 OFFCURVE",
"247 -11 CURVE SMOOTH",
"345 -11 OFFCURVE",
"420 35 OFFCURVE",
"469 123 CURVE SMOOTH",
"499 183 OFFCURVE",
"513 261 OFFCURVE",
"513 335 CURVE SMOOTH",
"513 479 OFFCURVE",
"421 519 OFFCURVE",
"334 519 CURVE SMOOTH"
);
},
{
closed = 1;
nodes = (
"351 388 OFFCURVE",
"375 374 OFFCURVE",
"375 312 CURVE SMOOTH",
"375 261 OFFCURVE",
"367 211 OFFCURVE",
"346 168 CURVE SMOOTH",
"327 130 OFFCURVE",
"288 112 OFFCURVE",
"247 112 CURVE SMOOTH",
"218 112 OFFCURVE",
"193 115 OFFCURVE",
"124 139 CURVE",
"196 74 LINE",
"240 388 LINE",
"216 350 LINE",
"271 379 OFFCURVE",
"291 388 OFFCURVE",
"311 388 CURVE SMOOTH"
);
}
);
width = 541;
},
{
anchors = (
{
name = bottom;
position = "{231, 0}";
},
{
name = bottomleft;
position = "{-19, 0}";
},
{
name = center;
position = "{75, -111}";
},
{
name = ogonek;
position = "{95, 490}";
},
{
name = top;
position = "{301, 500}";
}
);
background = {
components = (
{
name = n;
transform = "{1, 0, 0, 1, 10, 0}";
}
);
};
layerId = "3DBDB2C8-AF6E-4CF3-B71C-7D596AD599C8";
leftMetricsKey = "=n";
rightMetricsKey = "=o";
paths = (
{
closed = 1;
nodes = (
"112 -200 LINE",
"142 0 LINE",
"171 -7 LINE",
"189 -9 OFFCURVE",
"204 -10 OFFCURVE",
"224 -10 CURVE SMOOTH",
"318 -10 OFFCURVE",
"395 44 OFFCURVE",
"435 125 CURVE SMOOTH",
"467 190 OFFCURVE",
"482 265 OFFCURVE",
"482 340 CURVE SMOOTH",
"482 483 OFFCURVE",
"400 510 OFFCURVE",
"339 510 CURVE SMOOTH",
"295 510 OFFCURVE",
"269 502 OFFCURVE",
"222 476 CURVE",
"209 463 LINE SMOOTH",
"205 459 OFFCURVE",
"199 458 OFFCURVE",
"194 461 CURVE SMOOTH",
"93 510 LINE",
"60 440 LINE",
"118 412 LINE",
"60 -4 LINE",
"32 -200 LINE"
);
},
{
closed = 1;
nodes = (
"197 60 OFFCURVE",
"178 63 OFFCURVE",
"150 70 CURVE",
"194 385 LINE",
"253 423 OFFCURVE",
"289 437 OFFCURVE",
"325 437 CURVE SMOOTH",
"362 437 OFFCURVE",
"406 423 OFFCURVE",
"406 337 CURVE SMOOTH",
"406 267 OFFCURVE",
"394 212 OFFCURVE",
"373 162 CURVE SMOOTH",
"348 103 OFFCURVE",
"294 60 OFFCURVE",
"218 60 CURVE SMOOTH"
);
}
);
width = 530;
}
);
leftKerningGroup = n;
leftMetricsKey = n;
rightKerningGroup = o;
unicode = 0070;
userData = {
com.schriftgestaltung.Glyphs.ColorIndex = 3;
com.schriftgestaltung.Glyphs.layer.leftMetricsKey = "==n";
com.schriftgestaltung.Glyphs.layer.rightMetricsKey = "==o";
com.schriftgestaltung.Glyphs.leftMetricsKey = n;
};
},
{
color = 5;
glyphname = thorn;
lastChange = "2018-08-15 16:19:09 +0000";
layers = (
{
anchors = (
{
name = bottom;
position = "{244, 0}";
},
{
name = top;
position = "{316, 510}";
}
);
background = {
anchors = (
{
name = bottom;
position = "{240, 0}";
},
{
name = bottomleft;
position = "{-47, 0}";
},
{
name = center;
position = "{57, -104}";
},
{
name = ogonek;
position = "{1, 497}";
},
{
name = top;
position = "{312, 510}";
}
);
};
layerId = "6B2E1CAF-7E84-411F-9290-838331FE9C95";
paths = (
{
closed = 1;
nodes = (
"280 700 LINE",
"130 700 LINE",
"30 -4 LINE",
"4 -200 LINE",
"150 -200 LINE",
"176 -5 LINE",
"203 -9 OFFCURVE",
"209 -11 OFFCURVE",
"235 -11 CURVE SMOOTH",
"333 -11 OFFCURVE",
"408 35 OFFCURVE",
"457 123 CURVE SMOOTH",
"487 183 OFFCURVE",
"501 261 OFFCURVE",
"501 335 CURVE SMOOTH",
"501 479 OFFCURVE",
"409 519 OFFCURVE",
"322 519 CURVE SMOOTH",
"282 519 OFFCURVE",
"256 507 OFFCURVE",
"243 502 CURVE"
);
},
{
closed = 1;
nodes = (
"315 130 OFFCURVE",
"276 112 OFFCURVE",
"235 112 CURVE SMOOTH",
"221 112 OFFCURVE",
"208 113 OFFCURVE",
"190 116 CURVE",
"224 361 LINE",
"264 381 OFFCURVE",
"282 388 OFFCURVE",
"299 388 CURVE SMOOTH",
"339 388 OFFCURVE",
"363 374 OFFCURVE",
"363 312 CURVE SMOOTH",
"363 261 OFFCURVE",
"355 211 OFFCURVE",
"334 168 CURVE SMOOTH"
);
}
);
width = 529;
},
{
anchors = (
{
name = bottom;
position = "{265, 0}";
},
{
name = bottomleft;
position = "{-29, 0}";
},
{
name = center;
position = "{65, -111}";
},
{
name = ogonek;
position = "{85, 490}";
},
{
name = top;
position = "{265, 500}";
}
);
layerId = "3DBDB2C8-AF6E-4CF3-B71C-7D596AD599C8";
paths = (
{
closed = 1;
nodes = (
"102 -200 LINE",
"132 0 LINE",
"160 -5 OFFCURVE",
"179 -10 OFFCURVE",
"214 -10 CURVE SMOOTH",
"308 -10 OFFCURVE",
"385 44 OFFCURVE",
"425 125 CURVE SMOOTH",
"457 190 OFFCURVE",
"472 265 OFFCURVE",
"472 340 CURVE SMOOTH",
"472 483 OFFCURVE",
"390 510 OFFCURVE",
"329 510 CURVE SMOOTH",
"281 510 OFFCURVE",
"237 490 OFFCURVE",
"184 461 CURVE",
"216 700 LINE",
"150 700 LINE",
"108 412 LINE",
"50 -4 LINE",
"22 -200 LINE"
);
},
{
closed = 1;
nodes = (
"187 60 OFFCURVE",
"168 63 OFFCURVE",
"140 70 CURVE",
"184 385 LINE",
"243 423 OFFCURVE",
"279 437 OFFCURVE",
"315 437 CURVE SMOOTH",
"352 437 OFFCURVE",
"396 423 OFFCURVE",
"396 337 CURVE SMOOTH",
"396 267 OFFCURVE",
"384 212 OFFCURVE",
"363 162 CURVE SMOOTH",
"338 103 OFFCURVE",
"284 60 OFFCURVE",
"208 60 CURVE SMOOTH"
);
}
);
width = 520;
}
);
leftKerningGroup = h;
leftMetricsKey = h;
rightKerningGroup = o;
rightMetricsKey = o;
unicode = 00FE;
userData = {
com.schriftgestaltung.Glyphs.leftMetricsKey = p;
com.schriftgestaltung.Glyphs.rightMetricsKey = p;
};
},
{
color = 5;
glyphname = q;
lastChange = "2018-08-15 16:19:32 +0000";
layers = (
{
anchors = (
{
name = bottom;
position = "{248, 0}";
},
{
name = ogonek;
position = "{528, 13}";
},
{
name = top;
position = "{320, 510}";
}
);
layerId = "6B2E1CAF-7E84-411F-9290-838331FE9C95";
leftMetricsKey = "=o";
rightMetricsKey = "=i";
paths = (
{
closed = 1;
nodes = (
"401 -200 LINE",
"499 514 LINE",
"398 503 LINE SMOOTH",
"391 502 OFFCURVE",
"388 502 OFFCURVE",
"382 504 CURVE SMOOTH",
"346 517 LINE",
"322 521 OFFCURVE",
"306 522 OFFCURVE",
"284 522 CURVE SMOOTH",
"190 522 OFFCURVE",
"119 475 OFFCURVE",
"72 387 CURVE SMOOTH",
"42 327 OFFCURVE",
"28 249 OFFCURVE",
"28 175 CURVE SMOOTH",
"28 31 OFFCURVE",
"119 -9 OFFCURVE",
"207 -9 CURVE SMOOTH",
"212 -9 OFFCURVE",
"216 -8 OFFCURVE",
"221 -7 CURVE",
"274 22 LINE SMOOTH",
"282 26 OFFCURVE",
"287 22 OFFCURVE",
"286 14 CURVE SMOOTH",
"256 -200 LINE"
);
},
{
closed = 1;
nodes = (
"190 122 OFFCURVE",
"166 136 OFFCURVE",
"166 198 CURVE SMOOTH",
"166 249 OFFCURVE",
"175 299 OFFCURVE",
"196 343 CURVE SMOOTH",
"213 380 OFFCURVE",
"253 398 OFFCURVE",
"294 398 CURVE SMOOTH",
"308 398 OFFCURVE",
"321 397 OFFCURVE",
"339 394 CURVE",
"305 149 LINE",
"276 130 OFFCURVE",
"255 122 OFFCURVE",
"230 122 CURVE SMOOTH"
);
}
);
width = 535;
},
{
anchors = (
{
name = bottom;
position = "{226, 0}";
},
{
name = top;
position = "{296, 500}";
}
);
background = {
components = (
{
name = a;
}
);
};
layerId = "3DBDB2C8-AF6E-4CF3-B71C-7D596AD599C8";
leftMetricsKey = "=o";
rightMetricsKey = "=i";
paths = (
{
closed = 1;
nodes = (
"372 -200 LINE",
"470 504 LINE",
"413 498 LINE",
"406 497 OFFCURVE",
"402 497 OFFCURVE",
"397 498 CURVE",
"359 507 LINE",
"344 509 OFFCURVE",
"328 510 OFFCURVE",
"306 510 CURVE SMOOTH",
"212 510 OFFCURVE",
"135 456 OFFCURVE",
"95 375 CURVE SMOOTH",
"63 310 OFFCURVE",
"48 235 OFFCURVE",
"48 158 CURVE SMOOTH",
"48 14 OFFCURVE",
"124 -10 OFFCURVE",
"197 -10 CURVE SMOOTH",
"211 -10 OFFCURVE",
"227 -8 OFFCURVE",
"241 -4 CURVE",
"309 33 LINE SMOOTH",
"320 39 OFFCURVE",
"328 35 OFFCURVE",
"326 22 CURVE SMOOTH",
"297 -200 LINE"
);
},
{
closed = 1;
nodes = (
"168 63 OFFCURVE",
"124 77 OFFCURVE",
"124 153 CURVE SMOOTH",
"124 233 OFFCURVE",
"136 288 OFFCURVE",
"157 338 CURVE SMOOTH",
"186 402 OFFCURVE",
"240 440 OFFCURVE",
"312 440 CURVE SMOOTH",
"338 440 OFFCURVE",
"356 437 OFFCURVE",
"381 430 CURVE",
"340 122 LINE",
"258 75 OFFCURVE",
"224 63 OFFCURVE",
"202 63 CURVE SMOOTH"
);
}
);
width = 520;
}
);
leftKerningGroup = o;
leftMetricsKey = o;
rightKerningGroup = q;
rightMetricsKey = i;
unicode = 0071;
userData = {
com.schriftgestaltung.Glyphs.ColorIndex = 3;
com.schriftgestaltung.Glyphs.layer.leftMetricsKey = "==o";
com.schriftgestaltung.Glyphs.layer.rightMetricsKey = "==i";
com.schriftgestaltung.Glyphs.leftMetricsKey = o;
com.schriftgestaltung.Glyphs.rightMetricsKey = n;
};
},
{
color = 5;
glyphname = r;
lastChange = "2018-05-16 08:06:47 +0000";
layers = (
{
background = {
anchors = (
{
name = bottom;
position = "{169, 0}";
},
{
name = top;
position = "{239, 500}";
}
);
components = (
{
name = n;
transform = "{1, 0, 0, 1, 24, 0}";
}
);
};
layerId = "6B2E1CAF-7E84-411F-9290-838331FE9C95";
paths = (
{
closed = 1;
nodes = (
"200 0 LINE",
"254 381 LINE SMOOTH",
"232 332 LINE",
"270 362 OFFCURVE",
"303 376 OFFCURVE",
"344 376 CURVE SMOOTH",
"360 376 OFFCURVE",
"379 374 OFFCURVE",
"399 371 CURVE",
"426 511 LINE",
"409 517 OFFCURVE",
"388 522 OFFCURVE",
"361 522 CURVE SMOOTH",
"308 522 OFFCURVE",
"270 512 OFFCURVE",
"233 488 CURVE",
"217 470 LINE SMOOTH",
"212 464 OFFCURVE",
"205 464 OFFCURVE",
"199 467 CURVE SMOOTH",
"92 520 LINE",
"30 396 LINE",
"177 323 LINE",
"115 448 LINE",
"54 0 LINE"
);
}
);
width = 400;
},
{
anchors = (
{
name = bottom;
position = "{151, 0}";
},
{
name = top;
position = "{221, 500}";
}
);
background = {
components = (
{
name = s;
transform = "{1, 0, 0, 1, 10, 0}";
}
);
};
layerId = "3DBDB2C8-AF6E-4CF3-B71C-7D596AD599C8";
paths = (
{
closed = 1;
nodes = (
"140 0 LINE",
"200 424 LINE",
"179 371 LINE",
"269 425 OFFCURVE",
"300 431 OFFCURVE",
"346 431 CURVE SMOOTH",
"363 431 OFFCURVE",
"377 428 OFFCURVE",
"390 423 CURVE",
"420 496 LINE",
"400 504 OFFCURVE",
"379 509 OFFCURVE",
"353 510 CURVE SMOOTH",
"305 511 OFFCURVE",
"273 501 OFFCURVE",
"221 475 CURVE",
"209 463 LINE SMOOTH",
"205 459 OFFCURVE",
"200 458 OFFCURVE",
"194 461 CURVE SMOOTH",
"93 510 LINE",
"60 440 LINE",
"161 391 LINE",
"122 447 LINE",
"60 0 LINE"
);
}
);
width = 407;
}
);
leftKerningGroup = n;
leftMetricsKey = n;
rightKerningGroup = r;
unicode = 0072;
userData = {
com.schriftgestaltung.Glyphs.ColorIndex = 3;
};
},
{
color = 5;
glyphname = s;
lastChange = "2018-05-16 00:33:18 +0000";
layers = (
{
anchors = (
{
name = bottom;
position = "{202, 0}";
},
{
name = top;
position = "{274, 511}";
}
);
background = {
paths = (
{
closed = 1;
nodes = (
"341 509 OFFCURVE",
"290 522 OFFCURVE",
"214 522 CURVE SMOOTH",
"92 522 OFFCURVE",
"12 450 OFFCURVE",
"12 349 CURVE SMOOTH",
"12 255 OFFCURVE",
"81 202 OFFCURVE",
"177 197 CURVE SMOOTH",
"231 194 LINE SMOOTH",
"266 192 OFFCURVE",
"277 175 OFFCURVE",
"277 154 CURVE SMOOTH",
"277 126 OFFCURVE",
"257 108 OFFCURVE",
"207 108 CURVE SMOOTH",
"155 108 OFFCURVE",
"121 110 OFFCURVE",
"54 153 CURVE",
"12 45 LINE",
"90 -2 OFFCURVE",
"127 -12 OFFCURVE",
"206 -12 CURVE SMOOTH",
"328 -12 OFFCURVE",
"408 58 OFFCURVE",
"408 164 CURVE SMOOTH",
"408 258 OFFCURVE",
"341 315 OFFCURVE",
"243 320 CURVE SMOOTH",
"188 323 LINE SMOOTH",
"156 325 OFFCURVE",
"143 338 OFFCURVE",
"143 359 CURVE SMOOTH",
"143 384 OFFCURVE",
"165 402 OFFCURVE",
"215 402 CURVE SMOOTH",
"270 402 OFFCURVE",
"309 395 OFFCURVE",
"352 367 CURVE",
"394 475 LINE"
);
}
);
};
layerId = "6B2E1CAF-7E84-411F-9290-838331FE9C95";
paths = (
{
closed = 1;
nodes = (
"321 -12 OFFCURVE",
"413 41 OFFCURVE",
"411 173 CURVE SMOOTH",
"410 258 OFFCURVE",
"356 295 OFFCURVE",
"258 323 CURVE SMOOTH",
"224 332 LINE SMOOTH",
"204 338 OFFCURVE",
"196 348 OFFCURVE",
"196 364 CURVE SMOOTH",
"196 384 OFFCURVE",
"220 402 OFFCURVE",
"271 402 CURVE SMOOTH",
"326 402 OFFCURVE",
"362 390 OFFCURVE",
"395 367 CURVE",
"437 475 LINE",
"407 498 OFFCURVE",
"354 522 OFFCURVE",
"283 522 CURVE SMOOTH",
"152 522 OFFCURVE",
"64 466 OFFCURVE",
"64 346 CURVE SMOOTH",
"64 279 OFFCURVE",
"108 229 OFFCURVE",
"203 205 CURVE SMOOTH",
"238 196 LINE SMOOTH",
"271 188 OFFCURVE",
"281 174 OFFCURVE",
"281 156 CURVE SMOOTH",
"281 130 OFFCURVE",
"252 110 OFFCURVE",
"200 110 CURVE SMOOTH",
"143 110 OFFCURVE",
"105 121 OFFCURVE",
"54 154 CURVE",
"12 46 LINE",
"64 8 OFFCURVE",
"125 -12 OFFCURVE",
"194 -12 CURVE SMOOTH"
);
}
);
width = 466;
},
{
anchors = (
{
name = bottom;
position = "{191, 0}";
},
{
name = top;
position = "{261, 500}";
}
);
background = {
paths = (
{
closed = 1;
nodes = (
"345 -12 OFFCURVE",
"420 55 OFFCURVE",
"432 141 CURVE SMOOTH",
"444 226 OFFCURVE",
"396 285 OFFCURVE",
"298 292 CURVE SMOOTH",
"240 296 LINE SMOOTH",
"201 299 OFFCURVE",
"176 318 OFFCURVE",
"181 355 CURVE SMOOTH",
"189 410 OFFCURVE",
"232 440 OFFCURVE",
"302 440 CURVE SMOOTH",
"355 440 OFFCURVE",
"397 425 OFFCURVE",
"425 404 CURVE",
"456 467 LINE",
"415 497 OFFCURVE",
"362 512 OFFCURVE",
"304 512 CURVE SMOOTH",
"195 512 OFFCURVE",
"118 451 OFFCURVE",
"106 362 CURVE SMOOTH",
"93 273 OFFCURVE",
"148 229 OFFCURVE",
"226 224 CURVE SMOOTH",
"284 220 LINE SMOOTH",
"337 216 OFFCURVE",
"362 188 OFFCURVE",
"357 151 CURVE SMOOTH",
"349 94 OFFCURVE",
"305 60 OFFCURVE",
"233 60 CURVE SMOOTH",
"181 60 OFFCURVE",
"139 77 OFFCURVE",
"96 111 CURVE",
"62 45 LINE",
"107 10 OFFCURVE",
"165 -12 OFFCURVE",
"232 -12 CURVE SMOOTH"
);
},
{
closed = 1;
nodes = (
"318 -12 OFFCURVE",
"385 57 OFFCURVE",
"385 146 CURVE SMOOTH",
"385 228 OFFCURVE",
"331 285 OFFCURVE",
"232 292 CURVE SMOOTH",
"174 296 LINE SMOOTH",
"134 299 OFFCURVE",
"104 320 OFFCURVE",
"104 360 CURVE SMOOTH",
"104 412 OFFCURVE",
"141 440 OFFCURVE",
"209 440 CURVE SMOOTH",
"264 440 OFFCURVE",
"308 424 OFFCURVE",
"339 403 CURVE",
"365 468 LINE",
"320 498 OFFCURVE",
"265 512 OFFCURVE",
"209 512 CURVE SMOOTH",
"98 512 OFFCURVE",
"28 449 OFFCURVE",
"28 357 CURVE SMOOTH",
"28 271 OFFCURVE",
"87 229 OFFCURVE",
"165 224 CURVE SMOOTH",
"224 220 LINE SMOOTH",
"277 216 OFFCURVE",
"309 186 OFFCURVE",
"309 146 CURVE SMOOTH",
"309 92 OFFCURVE",
"272 60 OFFCURVE",
"202 60 CURVE SMOOTH",
"148 60 OFFCURVE",
"103 78 OFFCURVE",
"55 112 CURVE",
"28 44 LINE",
"77 9 OFFCURVE",
"138 -12 OFFCURVE",
"202 -12 CURVE SMOOTH"
);
}
);
};
layerId = "3DBDB2C8-AF6E-4CF3-B71C-7D596AD599C8";
paths = (
{
closed = 1;
nodes = (
"315 -12 OFFCURVE",
"388 54 OFFCURVE",
"388 147 CURVE SMOOTH",
"388 218 OFFCURVE",
"343 260 OFFCURVE",
"264 289 CURVE SMOOTH",
"215 307 LINE SMOOTH",
"174 322 OFFCURVE",
"155 338 OFFCURVE",
"155 372 CURVE SMOOTH",
"155 413 OFFCURVE",
"194 439 OFFCURVE",
"251 439 CURVE SMOOTH",
"304 439 OFFCURVE",
"351 426 OFFCURVE",
"390 404 CURVE",
"415 468 LINE",
"370 496 OFFCURVE",
"312 512 OFFCURVE",
"252 512 CURVE SMOOTH",
"151 512 OFFCURVE",
"79 452 OFFCURVE",
"79 367 CURVE SMOOTH",
"79 302 OFFCURVE",
"123 265 OFFCURVE",
"200 237 CURVE SMOOTH",
"249 219 LINE SMOOTH",
"293 203 OFFCURVE",
"313 182 OFFCURVE",
"313 139 CURVE SMOOTH",
"313 91 OFFCURVE",
"272 60 OFFCURVE",
"209 60 CURVE SMOOTH",
"147 60 OFFCURVE",
"90 80 OFFCURVE",
"54 114 CURVE",
"28 44 LINE",
"62 14 OFFCURVE",
"132 -12 OFFCURVE",
"211 -12 CURVE SMOOTH"
);
}
);
width = 452;
}
);
leftKerningGroup = s;
rightKerningGroup = s;
unicode = 0073;
userData = {
com.schriftgestaltung.Glyphs.ColorIndex = 3;
com.typemytype.robofont.layerData = {
background = {
anchors = (
);
components = (
);
contours = (
{
points = (
{
segmentType = curve;
smooth = 1;
x = 246;
y = 523;
},
{
smooth = 0;
x = 124;
y = 523;
},
{
smooth = 0;
x = 44;
y = 451;
},
{
segmentType = curve;
smooth = 1;
x = 44;
y = 350;
},
{
smooth = 0;
x = 44;
y = 256;
},
{
smooth = 0;
x = 113;
y = 203;
},
{
segmentType = curve;
smooth = 1;
x = 209;
y = 198;
},
{
segmentType = line;
smooth = 1;
x = 263;
y = 195;
},
{
smooth = 0;
x = 298;
y = 193;
},
{
smooth = 0;
x = 309;
y = 176;
},
{
segmentType = curve;
smooth = 1;
x = 309;
y = 155;
},
{
smooth = 0;
x = 309;
y = 127;
},
{
smooth = 0;
x = 289;
y = 109;
},
{
segmentType = curve;
smooth = 1;
x = 239;
y = 109;
},
{
smooth = 0;
x = 187;
y = 109;
},
{
smooth = 0;
x = 153;
y = 111;
},
{
segmentType = curve;
smooth = 0;
x = 86;
y = 154;
},
{
segmentType = line;
smooth = 0;
x = 44;
y = 46;
},
{
smooth = 0;
x = 122;
y = -1;
},
{
smooth = 0;
x = 159;
y = -11;
},
{
segmentType = curve;
smooth = 1;
x = 238;
y = -11;
},
{
smooth = 0;
x = 360;
y = -11;
},
{
smooth = 0;
x = 440;
y = 59;
},
{
segmentType = curve;
smooth = 1;
x = 440;
y = 165;
},
{
smooth = 0;
x = 440;
y = 259;
},
{
smooth = 0;
x = 373;
y = 316;
},
{
segmentType = curve;
smooth = 1;
x = 275;
y = 321;
},
{
segmentType = line;
smooth = 1;
x = 220;
y = 324;
},
{
smooth = 0;
x = 188;
y = 326;
},
{
smooth = 0;
x = 175;
y = 339;
},
{
segmentType = curve;
smooth = 1;
x = 175;
y = 360;
},
{
smooth = 0;
x = 175;
y = 385;
},
{
smooth = 0;
x = 197;
y = 403;
},
{
segmentType = curve;
smooth = 1;
x = 247;
y = 403;
},
{
smooth = 0;
x = 302;
y = 403;
},
{
smooth = 0;
x = 341;
y = 396;
},
{
segmentType = curve;
smooth = 0;
x = 384;
y = 368;
},
{
segmentType = line;
smooth = 0;
x = 426;
y = 476;
},
{
smooth = 0;
x = 373;
y = 510;
},
{
smooth = 0;
x = 322;
y = 523;
}
);
}
);
lib = {
};
name = s;
unicodes = (
);
width = 452;
};
};
};
},
{
color = 5;
glyphname = germandbls;
lastChange = "2018-05-16 00:32:49 +0000";
layers = (
{
anchors = (
{
name = bottom;
position = "{333, 0}";
},
{
name = top;
position = "{405, 510}";
}
);
background = {
anchors = (
{
name = bottom;
position = "{463, 0}";
},
{
name = top;
position = "{535, 511}";
}
);
};
layerId = "6B2E1CAF-7E84-411F-9290-838331FE9C95";
paths = (
{
closed = 1;
nodes = (
"582 -12 OFFCURVE",
"674 41 OFFCURVE",
"672 163 CURVE SMOOTH",
"671 250 OFFCURVE",
"619 293 OFFCURVE",
"530 318 CURVE SMOOTH",
"481 332 LINE SMOOTH",
"462 337 OFFCURVE",
"453 349 OFFCURVE",
"453 360 CURVE SMOOTH",
"453 377 OFFCURVE",
"464 387 OFFCURVE",
"497 396 CURVE SMOOTH",
"523 403 LINE SMOOTH",
"625 431 OFFCURVE",
"678 479 OFFCURVE",
"678 567 CURVE SMOOTH",
"678 662 OFFCURVE",
"594 753 OFFCURVE",
"428 753 CURVE SMOOTH",
"250 753 OFFCURVE",
"123 658 OFFCURVE",
"100 492 CURVE SMOOTH",
"30 0 LINE",
"190 0 LINE",
"258 485 LINE SMOOTH",
"269 559 OFFCURVE",
"313 624 OFFCURVE",
"426 624 CURVE SMOOTH",
"506 624 OFFCURVE",
"537 587 OFFCURVE",
"537 561 CURVE SMOOTH",
"537 543 OFFCURVE",
"522 524 OFFCURVE",
"499 519 CURVE SMOOTH",
"465 512 LINE SMOOTH",
"374 493 OFFCURVE",
"315 441 OFFCURVE",
"315 359 CURVE SMOOTH",
"315 275 OFFCURVE",
"376 227 OFFCURVE",
"464 205 CURVE SMOOTH",
"499 196 LINE SMOOTH",
"532 188 OFFCURVE",
"542 174 OFFCURVE",
"542 156 CURVE SMOOTH",
"542 130 OFFCURVE",
"513 110 OFFCURVE",
"461 110 CURVE SMOOTH",
"404 110 OFFCURVE",
"366 121 OFFCURVE",
"315 154 CURVE",
"273 46 LINE",
"325 8 OFFCURVE",
"386 -12 OFFCURVE",
"455 -12 CURVE SMOOTH"
);
}
);
width = 728;
},
{
anchors = (
{
name = bottom;
position = "{291, 0}";
},
{
name = top;
position = "{361, 500}";
}
);
background = {
anchors = (
{
name = bottom;
position = "{391, 0}";
},
{
name = top;
position = "{461, 500}";
}
);
paths = (
{
closed = 1;
nodes = (
"515 -12 OFFCURVE",
"588 54 OFFCURVE",
"588 147 CURVE SMOOTH",
"588 218 OFFCURVE",
"543 260 OFFCURVE",
"464 289 CURVE SMOOTH",
"415 307 LINE SMOOTH",
"374 322 OFFCURVE",
"355 338 OFFCURVE",
"355 372 CURVE SMOOTH",
"355 413 OFFCURVE",
"394 439 OFFCURVE",
"451 439 CURVE SMOOTH",
"504 439 OFFCURVE",
"551 426 OFFCURVE",
"590 404 CURVE",
"615 468 LINE",
"570 496 OFFCURVE",
"512 512 OFFCURVE",
"452 512 CURVE SMOOTH",
"351 512 OFFCURVE",
"279 452 OFFCURVE",
"279 367 CURVE SMOOTH",
"279 302 OFFCURVE",
"323 265 OFFCURVE",
"400 237 CURVE SMOOTH",
"449 219 LINE SMOOTH",
"493 203 OFFCURVE",
"513 182 OFFCURVE",
"513 139 CURVE SMOOTH",
"513 91 OFFCURVE",
"472 60 OFFCURVE",
"409 60 CURVE SMOOTH",
"347 60 OFFCURVE",
"290 80 OFFCURVE",
"254 114 CURVE",
"228 44 LINE",
"262 14 OFFCURVE",
"332 -12 OFFCURVE",
"411 -12 CURVE SMOOTH"
);
}
);
};
layerId = "3DBDB2C8-AF6E-4CF3-B71C-7D596AD599C8";
paths = (
{
closed = 1;
nodes = (
"515 -12 OFFCURVE",
"588 54 OFFCURVE",
"588 147 CURVE SMOOTH",
"588 218 OFFCURVE",
"544 261 OFFCURVE",
"465 290 CURVE SMOOTH",
"416 308 LINE SMOOTH",
"375 323 OFFCURVE",
"355 339 OFFCURVE",
"355 372 CURVE SMOOTH",
"355 407 OFFCURVE",
"383 424 OFFCURVE",
"428 437 CURVE SMOOTH",
"470 449 LINE SMOOTH",
"548 471 OFFCURVE",
"606 514 OFFCURVE",
"606 597 CURVE SMOOTH",
"606 678 OFFCURVE",
"527 753 OFFCURVE",
"399 753 CURVE SMOOTH",
"229 753 OFFCURVE",
"143 659 OFFCURVE",
"126 544 CURVE SMOOTH",
"50 0 LINE",
"127 0 LINE",
"203 543 LINE SMOOTH",
"215 630 OFFCURVE",
"288 687 OFFCURVE",
"394 687 CURVE SMOOTH",
"487 687 OFFCURVE",
"531 638 OFFCURVE",
"531 591 CURVE SMOOTH",
"531 551 OFFCURVE",
"503 529 OFFCURVE",
"461 518 CURVE SMOOTH",
"427 509 LINE SMOOTH",
"333 484 OFFCURVE",
"279 444 OFFCURVE",
"279 367 CURVE SMOOTH",
"279 302 OFFCURVE",
"323 265 OFFCURVE",
"400 237 CURVE SMOOTH",
"449 219 LINE SMOOTH",
"493 203 OFFCURVE",
"513 182 OFFCURVE",
"513 139 CURVE SMOOTH",
"513 91 OFFCURVE",
"472 60 OFFCURVE",
"409 60 CURVE SMOOTH",
"347 60 OFFCURVE",
"290 80 OFFCURVE",
"254 114 CURVE",
"228 44 LINE",
"262 14 OFFCURVE",
"332 -12 OFFCURVE",
"411 -12 CURVE SMOOTH"
);
}
);
width = 652;
}
);
leftKerningGroup = h;
leftMetricsKey = l;
rightKerningGroup = germandbls;
rightMetricsKey = s;
unicode = 00DF;
userData = {
com.schriftgestaltung.Glyphs.leftMetricsKey = l;
com.schriftgestaltung.Glyphs.rightMetricsKey = s;
};
},
{
color = 5;
glyphname = t;
lastChange = "2018-05-16 00:33:18 +0000";
layers = (
{
anchors = (
{
name = bottom;
position = "{177, 0}";
},
{
name = center;
position = "{213, 255}";
},
{
name = top;
position = "{249, 510}";
},
{
name = topright;
position = "{417, 510}";
}
);
background = {
components = (
{
name = e;
transform = "{1, 0, 0, 1, 34, 0}";
}
);
};
layerId = "6B2E1CAF-7E84-411F-9290-838331FE9C95";
paths = (
{
closed = 1;
nodes = (
"313 1 LINE",
"331 130 LINE",
"248 130 LINE SMOOTH",
"233 130 OFFCURVE",
"226 133 OFFCURVE",
"229 151 CURVE SMOOTH",
"263 386 LINE",
"383 386 LINE",
"402 510 LINE",
"281 510 LINE",
"303 650 LINE",
"201 650 LINE",
"156 522 LINE",
"153 515 OFFCURVE",
"147 510 OFFCURVE",
"139 510 CURVE SMOOTH",
"46 510 LINE",
"28 386 LINE",
"118 386 LINE",
"81 124 LINE SMOOTH",
"71 52 OFFCURVE",
"117 1 OFFCURVE",
"187 1 CURVE SMOOTH"
);
}
);
width = 428;
},
{
anchors = (
{
name = bottom;
position = "{90, 0}";
},
{
name = center;
position = "{160, 250}";
},
{
name = top;
position = "{230, 500}";
},
{
name = topright;
position = "{380, 500}";
}
);
background = {
paths = (
{
closed = 1;
nodes = (
"215 116 OFFCURVE",
"206 122 OFFCURVE",
"209 143 CURVE SMOOTH",
"244 390 LINE",
"327 390 LINE",
"344 510 LINE",
"261 510 LINE",
"278 630 LINE",
"169 630 LINE",
"154 600 LINE SMOOTH",
"118 528 OFFCURVE",
"113 510 OFFCURVE",
"84 510 CURVE SMOOTH",
"36 510 LINE",
"19 390 LINE",
"98 390 LINE",
"61 124 LINE SMOOTH",
"48 34 OFFCURVE",
"107 -11 OFFCURVE",
"180 -11 CURVE SMOOTH",
"210 -11 OFFCURVE",
"242 -4 OFFCURVE",
"272 11 CURVE SMOOTH",
"339 43 LINE",
"288 147 LINE",
"232 123 LINE SMOOTH"
);
}
);
};
layerId = "3DBDB2C8-AF6E-4CF3-B71C-7D596AD599C8";
paths = (
{
closed = 1;
nodes = (
"255 0 LINE",
"265 70 LINE",
"174 70 LINE SMOOTH",
"153 70 OFFCURVE",
"143 83 OFFCURVE",
"147 106 CURVE SMOOTH",
"192 430 LINE",
"315 430 LINE",
"325 500 LINE",
"202 500 LINE",
"220 630 LINE",
"172 630 LINE",
"167 615 LINE SMOOTH",
"132 509 OFFCURVE",
"127 500 OFFCURVE",
"109 500 CURVE SMOOTH",
"35 500 LINE",
"25 430 LINE",
"112 430 LINE",
"67 110 LINE SMOOTH",
"58 44 OFFCURVE",
"99 0 OFFCURVE",
"168 0 CURVE SMOOTH"
);
}
);
width = 330;
},
{
anchors = (
{
name = bottom;
position = "{143, 0}";
},
{
name = center;
position = "{179, 255}";
},
{
name = top;
position = "{215, 510}";
},
{
name = topright;
position = "{383, 510}";
}
);
associatedMasterId = "6B2E1CAF-7E84-411F-9290-838331FE9C95";
background = {
components = (
{
name = e;
}
);
};
layerId = "E25B522A-5D6C-421F-8298-5180265A6C59";
name = "May 13 18, 16:06";
paths = (
{
closed = 1;
nodes = (
"278 124 OFFCURVE",
"256 108 OFFCURVE",
"237 108 CURVE SMOOTH",
"222 108 OFFCURVE",
"213 119 OFFCURVE",
"216 139 CURVE SMOOTH",
"254 390 LINE",
"428 390 LINE",
"445 510 LINE",
"271 510 LINE",
"288 630 LINE",
"204 630 LINE",
"141 510 LINE",
"51 510 LINE",
"29 390 LINE",
"108 390 LINE",
"74 150 LINE SMOOTH",
"59 41 OFFCURVE",
"144 -12 OFFCURVE",
"210 -12 CURVE SMOOTH",
"283 -12 OFFCURVE",
"336 10 OFFCURVE",
"412 108 CURVE",
"304 159 LINE"
);
}
);
width = 475;
}
);
leftKerningGroup = t;
rightKerningGroup = t;
unicode = 0074;
userData = {
com.schriftgestaltung.Glyphs.ColorIndex = 3;
};
},
{
color = 5;
glyphname = u;
lastChange = "2018-05-16 00:33:18 +0000";
layers = (
{
anchors = (
{
name = bottom;
position = "{250, 0}";
},
{
name = center;
position = "{359, -102}";
},
{
name = ogonek;
position = "{481, 10}";
},
{
name = top;
position = "{322, 510}";
},
{
name = topright;
position = "{588, 510}";
}
);
background = {
components = (
{
name = q;
transform = "{1, 0, 0, 1, 15, 0}";
}
);
};
layerId = "6B2E1CAF-7E84-411F-9290-838331FE9C95";
paths = (
{
closed = 1;
nodes = (
"321 147 LINE",
"295 130 OFFCURVE",
"272 120 OFFCURVE",
"248 120 CURVE SMOOTH",
"205 120 OFFCURVE",
"190 141 OFFCURVE",
"197 185 CURVE SMOOTH",
"242 510 LINE",
"96 510 LINE",
"47 165 LINE SMOOTH",
"30 43 OFFCURVE",
"87 -10 OFFCURVE",
"179 -10 CURVE SMOOTH",
"198 -10 OFFCURVE",
"215 -8 OFFCURVE",
"232 -4 CURVE",
"288 21 LINE SMOOTH",
"296 25 OFFCURVE",
"303 24 OFFCURVE",
"302 16 CURVE SMOOTH",
"300 0 LINE",
"446 0 LINE",
"518 510 LINE",
"372 510 LINE"
);
}
);
width = 552;
},
{
anchors = (
{
name = bottom;
position = "{181, -250}";
},
{
name = center;
position = "{361, -110}";
},
{
name = top;
position = "{306, 500}";
}
);
background = {
components = (
{
name = q;
}
);
};
layerId = "3DBDB2C8-AF6E-4CF3-B71C-7D596AD599C8";
paths = (
{
closed = 1;
nodes = (
"204 -11 OFFCURVE",
"222 -8 OFFCURVE",
"238 -4 CURVE",
"258 7 OFFCURVE",
"281 20 OFFCURVE",
"311 36 CURVE SMOOTH",
"322 42 OFFCURVE",
"330 37 OFFCURVE",
"328 25 CURVE SMOOTH",
"324 0 LINE",
"399 0 LINE",
"470 500 LINE",
"390 500 LINE",
"341 124 LINE",
"246 70 OFFCURVE",
"224 63 OFFCURVE",
"202 63 CURVE SMOOTH",
"155 63 OFFCURVE",
"124 85 OFFCURVE",
"131 139 CURVE SMOOTH",
"178 500 LINE",
"98 500 LINE",
"51 145 LINE SMOOTH",
"38 49 OFFCURVE",
"91 -11 OFFCURVE",
"188 -11 CURVE SMOOTH"
);
}
);
width = 520;
}
);
leftKerningGroup = u;
rightKerningGroup = u;
rightMetricsKey = i;
unicode = 0075;
userData = {
com.schriftgestaltung.Glyphs.ColorIndex = 3;
com.schriftgestaltung.Glyphs.rightMetricsKey = i;
};
},
{
color = 5;
glyphname = v;
lastChange = "2018-05-16 00:33:18 +0000";
layers = (
{
anchors = (
{
name = bottom;
position = "{211, 0}";
},
{
name = top;
position = "{283, 510}";
}
);
layerId = "6B2E1CAF-7E84-411F-9290-838331FE9C95";
paths = (
{
closed = 1;
nodes = (
"317 0 LINE",
"510 510 LINE",
"361 510 LINE",
"226 118 LINE SMOOTH",
"222 106 OFFCURVE",
"208 108 OFFCURVE",
"208 120 CURVE SMOOTH",
"211 236 LINE",
"201 510 LINE",
"56 510 LINE",
"104 0 LINE"
);
}
);
width = 494;
},
{
anchors = (
{
name = bottom;
position = "{200, 0}";
},
{
name = top;
position = "{270, 500}";
}
);
layerId = "3DBDB2C8-AF6E-4CF3-B71C-7D596AD599C8";
paths = (
{
closed = 1;
nodes = (
"255 0 LINE",
"476 500 LINE",
"391 500 LINE",
"209 73 LINE SMOOTH",
"205 64 OFFCURVE",
"197 66 OFFCURVE",
"197 73 CURVE SMOOTH",
"195 160 LINE",
"145 500 LINE",
"64 500 LINE",
"142 0 LINE"
);
}
);
width = 470;
}
);
leftKerningGroup = v;
rightKerningGroup = v;
unicode = 0076;
userData = {
com.schriftgestaltung.Glyphs.ColorIndex = 3;
};
},
{
color = 5;
glyphname = w;
lastChange = "2018-05-16 00:33:18 +0000";
layers = (
{
anchors = (
{
name = bottom;
position = "{304, 0}";
},
{
name = top;
position = "{376, 510}";
}
);
layerId = "6B2E1CAF-7E84-411F-9290-838331FE9C95";
paths = (
{
closed = 1;
nodes = (
"234 0 LINE",
"331 238 LINE SMOOTH",
"335 248 OFFCURVE",
"346 248 OFFCURVE",
"347 238 CURVE SMOOTH",
"374 0 LINE",
"524 0 LINE",
"676 510 LINE",
"535 510 LINE",
"483 328 LINE",
"462 206 LINE SMOOTH",
"459 190 OFFCURVE",
"444 190 OFFCURVE",
"443 205 CURVE SMOOTH",
"420 510 LINE",
"328 510 LINE",
"217 202 LINE SMOOTH",
"213 192 OFFCURVE",
"198 189 OFFCURVE",
"200 204 CURVE SMOOTH",
"214 326 LINE",
"215 510 LINE",
"76 510 LINE",
"84 0 LINE"
);
}
);
width = 680;
},
{
anchors = (
{
name = bottom;
position = "{255, 0}";
},
{
name = top;
position = "{325, 500}";
}
);
layerId = "3DBDB2C8-AF6E-4CF3-B71C-7D596AD599C8";
paths = (
{
closed = 1;
nodes = (
"163 3 LINE",
"294 331 LINE SMOOTH",
"300 347 OFFCURVE",
"310 347 OFFCURVE",
"312 331 CURVE SMOOTH",
"348 3 LINE",
"425 3 LINE",
"575 500 LINE",
"504 500 LINE",
"417 220 LINE",
"401 148 LINE SMOOTH",
"398 136 OFFCURVE",
"387 135 OFFCURVE",
"386 148 CURVE SMOOTH",
"353 500 LINE",
"296 500 LINE",
"162 148 LINE SMOOTH",
"157 135 OFFCURVE",
"147 136 OFFCURVE",
"148 148 CURVE SMOOTH",
"152 220 LINE",
"147 500 LINE",
"75 500 LINE",
"84 3 LINE"
);
}
);
width = 580;
}
);
leftKerningGroup = w;
rightKerningGroup = w;
unicode = 0077;
userData = {
com.schriftgestaltung.Glyphs.ColorIndex = 3;
};
},
{
color = 5;
glyphname = x;
lastChange = "2018-05-16 00:33:18 +0000";
layers = (
{
anchors = (
{
name = bottom;
position = "{218, 0}";
},
{
name = top;
position = "{290, 510}";
}
);
guideLines = (
{
position = "{226, 346}";
}
);
layerId = "6B2E1CAF-7E84-411F-9290-838331FE9C95";
leftMetricsKey = "=v";
rightMetricsKey = "=v";
paths = (
{
closed = 1;
nodes = (
"142 0 LINE",
"245 184 LINE SMOOTH",
"252 196 OFFCURVE",
"264 197 OFFCURVE",
"264 184 CURVE SMOOTH",
"266 124 LINE",
"299 0 LINE",
"450 0 LINE",
"365 255 LINE",
"524 510 LINE",
"369 510 LINE",
"263 320 LINE SMOOTH",
"256 308 OFFCURVE",
"247 308 OFFCURVE",
"246 320 CURVE SMOOTH",
"242 391 LINE",
"211 510 LINE",
"58 510 LINE",
"143 255 LINE",
"-16 0 LINE"
);
}
);
width = 508;
},
{
anchors = (
{
name = bottom;
position = "{201, 0}";
},
{
name = top;
position = "{271, 500}";
}
);
guideLines = (
{
position = "{227, 346}";
}
);
layerId = "3DBDB2C8-AF6E-4CF3-B71C-7D596AD599C8";
leftMetricsKey = "=v";
rightMetricsKey = "=v";
paths = (
{
closed = 1;
nodes = (
"90 0 LINE",
"228 194 LINE SMOOTH",
"233 201 OFFCURVE",
"241 201 OFFCURVE",
"243 194 CURVE SMOOTH",
"262 124 LINE",
"314 0 LINE",
"406 0 LINE",
"286 250 LINE",
"478 500 LINE",
"382 500 LINE",
"245 306 LINE SMOOTH",
"240 299 OFFCURVE",
"233 299 OFFCURVE",
"231 306 CURVE SMOOTH",
"215 369 LINE",
"158 500 LINE",
"66 500 LINE",
"188 250 LINE",
"-6 0 LINE"
);
}
);
width = 472;
}
);
leftKerningGroup = x;
leftMetricsKey = V;
rightKerningGroup = x;
rightMetricsKey = V;
unicode = 0078;
userData = {
com.schriftgestaltung.Glyphs.ColorIndex = 3;
com.schriftgestaltung.Glyphs.layer.leftMetricsKey = "==v";
com.schriftgestaltung.Glyphs.layer.rightMetricsKey = "==v";
com.schriftgestaltung.Glyphs.leftMetricsKey = V;
com.schriftgestaltung.Glyphs.rightMetricsKey = V;
com.typemytype.robofont.guides = (
{
angle = 0;
isGlobal = 0;
x = 200;
y = 346;
}
);
};
},
{
color = 5;
glyphname = y;
lastChange = "2018-05-16 00:33:18 +0000";
layers = (
{
anchors = (
{
name = bottom;
position = "{196, 0}";
},
{
name = top;
position = "{268, 510}";
}
);
layerId = "6B2E1CAF-7E84-411F-9290-838331FE9C95";
paths = (
{
closed = 1;
nodes = (
"111 -210 OFFCURVE",
"212 -146 OFFCURVE",
"277 8 CURVE SMOOTH",
"489 510 LINE",
"337 510 LINE",
"235 217 LINE SMOOTH",
"231 205 OFFCURVE",
"218 205 OFFCURVE",
"218 217 CURVE SMOOTH",
"217 343 LINE",
"188 510 LINE",
"37 510 LINE",
"125 8 LINE",
"118 -12 LINE SMOOTH",
"100 -63 OFFCURVE",
"42 -80 OFFCURVE",
"-29 -87 CURVE",
"-3 -214 LINE"
);
}
);
width = 483;
},
{
anchors = (
{
name = bottom;
position = "{200, 0}";
},
{
name = top;
position = "{270, 500}";
}
);
layerId = "3DBDB2C8-AF6E-4CF3-B71C-7D596AD599C8";
paths = (
{
closed = 1;
nodes = (
"123 -192 OFFCURVE",
"180 -137 OFFCURVE",
"220 -50 CURVE SMOOTH",
"475 500 LINE",
"390 500 LINE",
"225 133 LINE SMOOTH",
"220 122 OFFCURVE",
"211 122 OFFCURVE",
"210 133 CURVE SMOOTH",
"202 231 LINE",
"138 500 LINE",
"56 500 LINE",
"171 12 LINE",
"151 -29 LINE SMOOTH",
"119 -94 OFFCURVE",
"86 -127 OFFCURVE",
"15 -155 CURVE",
"37 -221 LINE"
);
}
);
width = 470;
}
);
leftKerningGroup = y;
rightKerningGroup = y;
unicode = 0079;
userData = {
com.schriftgestaltung.Glyphs.ColorIndex = 3;
com.schriftgestaltung.Glyphs.layer.rightMetricsKey = "==v";
com.schriftgestaltung.Glyphs.rightMetricsKey = v;
};
},
{
color = 5;
glyphname = z;
lastChange = "2018-05-16 00:33:18 +0000";
layers = (
{
anchors = (
{
name = bottom;
position = "{204, 0}";
},
{
name = top;
position = "{276, 510}";
}
);
layerId = "6B2E1CAF-7E84-411F-9290-838331FE9C95";
paths = (
{
closed = 1;
nodes = (
"398 0 LINE",
"415 120 LINE",
"203 120 LINE SMOOTH",
"196 120 OFFCURVE",
"194 128 OFFCURVE",
"199 133 CURVE SMOOTH",
"253 178 LINE",
"457 397 LINE",
"470 510 LINE",
"81 510 LINE",
"64 390 LINE",
"275 390 LINE SMOOTH",
"283 390 OFFCURVE",
"284 382 OFFCURVE",
"278 377 CURVE SMOOTH",
"231 339 LINE",
"23 114 LINE",
"9 0 LINE"
);
}
);
width = 479;
},
{
anchors = (
{
name = bottom;
position = "{169, 0}";
},
{
name = top;
position = "{239, 500}";
}
);
layerId = "3DBDB2C8-AF6E-4CF3-B71C-7D596AD599C8";
paths = (
{
closed = 1;
nodes = (
"341 0 LINE",
"351 70 LINE",
"112 70 LINE SMOOTH",
"106 70 OFFCURVE",
"103 76 OFFCURVE",
"108 81 CURVE SMOOTH",
"148 119 LINE",
"405 452 LINE",
"411 500 LINE",
"66 500 LINE",
"56 430 LINE",
"296 430 LINE SMOOTH",
"303 430 OFFCURVE",
"305 425 OFFCURVE",
"299 419 CURVE SMOOTH",
"259 381 LINE",
"2 48 LINE",
"-4 0 LINE"
);
}
);
width = 437;
}
);
leftKerningGroup = z;
rightKerningGroup = z;
unicode = 007A;
userData = {
com.schriftgestaltung.Glyphs.ColorIndex = 3;
};
},
{
color = 5;
glyphname = i.ss01;
lastChange = "2018-05-16 00:32:49 +0000";
layers = (
{
anchors = (
{
name = bottom;
position = "{103, 0}";
}
);
layerId = "6B2E1CAF-7E84-411F-9290-838331FE9C95";
rightMetricsKey = "=i";
paths = (
{
closed = 1;
nodes = (
"176 0 LINE",
"248 511 LINE",
"102 511 LINE",
"30 0 LINE"
);
},
{
closed = 1;
nodes = (
"257 578 LINE",
"275 700 LINE",
"129 700 LINE",
"111 578 LINE"
);
}
);
width = 282;
},
{
anchors = (
{
name = bottom;
position = "{90, 0}";
}
);
layerId = "3DBDB2C8-AF6E-4CF3-B71C-7D596AD599C8";
rightMetricsKey = "=i";
paths = (
{
closed = 1;
nodes = (
"130 0 LINE",
"200 500 LINE",
"120 500 LINE",
"50 0 LINE"
);
},
{
closed = 1;
nodes = (
"214 600 LINE",
"228 700 LINE",
"148 700 LINE",
"134 600 LINE"
);
}
);
width = 250;
}
);
leftKerningGroup = i.ss01;
leftMetricsKey = h;
rightKerningGroup = i.ss01;
rightMetricsKey = i;
userData = {
com.schriftgestaltung.Glyphs.layer.rightMetricsKey = "==i";
com.schriftgestaltung.Glyphs.leftMetricsKey = "=n";
com.schriftgestaltung.Glyphs.rightMetricsKey = i;
};
},
{
color = 5;
glyphname = idotless.ss01;
lastChange = "2018-05-16 00:32:49 +0000";
layers = (
{
anchors = (
{
name = bottom;
position = "{104, 0}";
},
{
name = ogonek;
position = "{179, 0}";
},
{
name = top;
position = "{176, 510}";
}
);
layerId = "6B2E1CAF-7E84-411F-9290-838331FE9C95";
paths = (
{
closed = 1;
nodes = (
"179 0 LINE",
"251 510 LINE",
"101 510 LINE",
"29 0 LINE"
);
}
);
width = 280;
},
{
anchors = (
{
name = bottom;
position = "{90, 0}";
},
{
name = ogonek;
position = "{130, 0}";
},
{
name = top;
position = "{160, 500}";
}
);
layerId = "3DBDB2C8-AF6E-4CF3-B71C-7D596AD599C8";
paths = (
{
closed = 1;
nodes = (
"130 0 LINE",
"200 500 LINE",
"120 500 LINE",
"50 0 LINE"
);
}
);
width = 250;
}
);
leftKerningGroup = i;
rightKerningGroup = i;
},
{
color = 5;
glyphname = j.ss01;
lastChange = "2018-05-16 00:32:49 +0000";
layers = (
{
layerId = "6B2E1CAF-7E84-411F-9290-838331FE9C95";
paths = (
{
closed = 1;
nodes = (
"34 -255 OFFCURVE",
"156 -179 OFFCURVE",
"183 10 CURVE SMOOTH",
"253 511 LINE",
"106 511 LINE",
"36 12 LINE SMOOTH",
"23 -80 OFFCURVE",
"-35 -127 OFFCURVE",
"-92 -134 CURVE",
"-72 -262 LINE"
);
},
{
closed = 1;
nodes = (
"261 578 LINE",
"279 700 LINE",
"133 700 LINE",
"115 578 LINE"
);
}
);
width = 297;
},
{
layerId = "3DBDB2C8-AF6E-4CF3-B71C-7D596AD599C8";
paths = (
{
closed = 1;
nodes = (
"62 -230 OFFCURVE",
"122 -164 OFFCURVE",
"141 -37 CURVE SMOOTH",
"217 500 LINE",
"136 500 LINE",
"61 -33 LINE SMOOTH",
"49 -122 OFFCURVE",
"3 -176 OFFCURVE",
"-54 -193 CURVE",
"-30 -263 LINE"
);
},
{
closed = 1;
nodes = (
"230 600 LINE",
"244 700 LINE",
"164 700 LINE",
"150 600 LINE"
);
}
);
width = 267;
}
);
leftKerningGroup = j.ss01;
rightKerningGroup = j.ss01;
},
{
color = 5;
glyphname = f_f;
lastChange = "2018-05-16 00:32:49 +0000";
layers = (
{
anchors = (
{
name = caret_1;
position = "{365, 0}";
}
);
background = {
paths = (
{
closed = 1;
nodes = (
"256 0 LINE",
"256 386 LINE",
"360 386 LINE",
"360 510 LINE",
"256 510 LINE",
"256 566 LINE SMOOTH",
"256 602 OFFCURVE",
"280 627 OFFCURVE",
"349 627 CURVE SMOOTH",
"380 627 OFFCURVE",
"419 616 OFFCURVE",
"453 588 CURVE",
"500 690 LINE",
"459 723 OFFCURVE",
"396 743 OFFCURVE",
"327 743 CURVE SMOOTH",
"193 743 OFFCURVE",
"106 674 OFFCURVE",
"106 556 CURVE SMOOTH",
"106 510 LINE",
"20 510 LINE",
"20 386 LINE",
"106 386 LINE",
"106 0 LINE"
);
},
{
closed = 1;
nodes = (
"596 0 LINE",
"596 386 LINE",
"700 386 LINE",
"700 510 LINE",
"596 510 LINE",
"596 576 LINE SMOOTH",
"596 612 OFFCURVE",
"620 637 OFFCURVE",
"689 637 CURVE SMOOTH",
"717 637 OFFCURVE",
"752 629 OFFCURVE",
"783 608 CURVE",
"830 700 LINE",
"791 733 OFFCURVE",
"732 753 OFFCURVE",
"667 753 CURVE SMOOTH",
"533 753 OFFCURVE",
"446 688 OFFCURVE",
"446 576 CURVE SMOOTH",
"446 510 LINE",
"360 510 LINE",
"360 386 LINE",
"446 386 LINE",
"446 0 LINE"
);
}
);
};
layerId = "6B2E1CAF-7E84-411F-9290-838331FE9C95";
rightMetricsKey = "=f";
paths = (
{
closed = 1;
nodes = (
"210 0 LINE",
"264 386 LINE",
"368 386 LINE",
"387 510 LINE",
"282 510 LINE",
"287 553 LINE SMOOTH",
"293 604 OFFCURVE",
"323 632 OFFCURVE",
"384 632 CURVE SMOOTH",
"415 632 OFFCURVE",
"459 623 OFFCURVE",
"495 597 CURVE",
"536 706 LINE",
"501 734 OFFCURVE",
"446 753 OFFCURVE",
"380 753 CURVE SMOOTH",
"249 753 OFFCURVE",
"157 688 OFFCURVE",
"140 570 CURVE SMOOTH",
"132 510 LINE",
"47 510 LINE",
"28 386 LINE",
"114 386 LINE",
"60 0 LINE"
);
},
{
closed = 1;
nodes = (
"528 0 LINE",
"582 386 LINE",
"686 386 LINE",
"705 510 LINE",
"600 510 LINE",
"605 553 LINE SMOOTH",
"611 604 OFFCURVE",
"641 632 OFFCURVE",
"702 632 CURVE SMOOTH",
"733 632 OFFCURVE",
"777 623 OFFCURVE",
"813 597 CURVE",
"854 706 LINE",
"819 734 OFFCURVE",
"764 753 OFFCURVE",
"698 753 CURVE SMOOTH",
"567 753 OFFCURVE",
"474 688 OFFCURVE",
"458 570 CURVE SMOOTH",
"450 510 LINE",
"365 510 LINE",
"346 386 LINE",
"432 386 LINE",
"378 0 LINE"
);
}
);
width = 721;
},
{
anchors = (
{
name = caret_1;
position = "{313, 0}";
}
);
background = {
paths = (
{
closed = 1;
nodes = (
"489 0 LINE",
"489 430 LINE",
"610 430 LINE",
"610 500 LINE",
"489 500 LINE",
"489 585 LINE SMOOTH",
"489 647 OFFCURVE",
"536 684 OFFCURVE",
"614 684 CURVE SMOOTH",
"659 684 OFFCURVE",
"696 669 OFFCURVE",
"726 640 CURVE",
"760 703 LINE",
"725 732 OFFCURVE",
"672 753 OFFCURVE",
"610 753 CURVE SMOOTH",
"471 753 OFFCURVE",
"412 671 OFFCURVE",
"412 585 CURVE SMOOTH",
"412 500 LINE",
"310 500 LINE",
"310 430 LINE",
"412 430 LINE",
"412 0 LINE"
);
},
{
closed = 1;
nodes = (
"189 0 LINE",
"189 430 LINE",
"310 430 LINE",
"310 500 LINE",
"189 500 LINE",
"189 575 LINE SMOOTH",
"189 637 OFFCURVE",
"236 674 OFFCURVE",
"314 674 CURVE SMOOTH",
"363 674 OFFCURVE",
"403 656 OFFCURVE",
"436 620 CURVE",
"460 693 LINE",
"425 722 OFFCURVE",
"372 743 OFFCURVE",
"310 743 CURVE SMOOTH",
"171 743 OFFCURVE",
"112 661 OFFCURVE",
"112 575 CURVE SMOOTH",
"112 500 LINE",
"10 500 LINE",
"10 430 LINE",
"112 430 LINE",
"112 0 LINE"
);
}
);
};
layerId = "3DBDB2C8-AF6E-4CF3-B71C-7D596AD599C8";
rightMetricsKey = "=f";
paths = (
{
closed = 1;
nodes = (
"154 0 LINE",
"214 430 LINE",
"345 430 LINE",
"355 500 LINE",
"224 500 LINE",
"233 563 LINE SMOOTH",
"242 640 OFFCURVE",
"289 681 OFFCURVE",
"352 681 CURVE SMOOTH",
"392 681 OFFCURVE",
"426 671 OFFCURVE",
"470 646 CURVE",
"496 710 LINE",
"455 735 OFFCURVE",
"404 753 OFFCURVE",
"355 753 CURVE SMOOTH",
"231 753 OFFCURVE",
"171 676 OFFCURVE",
"159 584 CURVE SMOOTH",
"147 500 LINE",
"45 500 LINE",
"35 430 LINE",
"137 430 LINE",
"77 0 LINE"
);
},
{
closed = 1;
nodes = (
"426 0 LINE",
"486 430 LINE",
"617 430 LINE",
"627 500 LINE",
"496 500 LINE",
"505 563 LINE SMOOTH",
"516 640 OFFCURVE",
"561 681 OFFCURVE",
"624 681 CURVE SMOOTH",
"664 681 OFFCURVE",
"698 671 OFFCURVE",
"742 646 CURVE",
"768 710 LINE",
"727 735 OFFCURVE",
"676 753 OFFCURVE",
"627 753 CURVE SMOOTH",
"503 753 OFFCURVE",
"444 676 OFFCURVE",
"431 584 CURVE SMOOTH",
"419 500 LINE",
"317 500 LINE",
"307 430 LINE",
"409 430 LINE",
"349 0 LINE"
);
}
);
width = 627;
}
);
leftKerningGroup = f;
leftMetricsKey = f;
rightKerningGroup = f;
rightMetricsKey = f;
userData = {
com.schriftgestaltung.Glyphs.layer.rightMetricsKey = "==f";
com.schriftgestaltung.Glyphs.leftMetricsKey = f;
com.schriftgestaltung.Glyphs.rightMetricsKey = f;
};
},
{
color = 5;
glyphname = f_f_i;
lastChange = "2018-05-16 00:32:49 +0000";
layers = (
{
anchors = (
{
name = caret_1;
position = "{329, 0}";
},
{
name = caret_2;
position = "{657, 0}";
}
);
background = {
paths = (
{
closed = 1;
nodes = (
"256 0 LINE",
"256 386 LINE",
"360 386 LINE",
"360 510 LINE",
"256 510 LINE",
"256 566 LINE SMOOTH",
"256 602 OFFCURVE",
"280 627 OFFCURVE",
"349 627 CURVE SMOOTH",
"380 627 OFFCURVE",
"419 616 OFFCURVE",
"453 588 CURVE",
"500 690 LINE",
"459 723 OFFCURVE",
"396 743 OFFCURVE",
"327 743 CURVE SMOOTH",
"193 743 OFFCURVE",
"106 674 OFFCURVE",
"106 556 CURVE SMOOTH",
"106 510 LINE",
"20 510 LINE",
"20 386 LINE",
"106 386 LINE",
"106 0 LINE"
);
},
{
closed = 1;
nodes = (
"596 0 LINE",
"596 386 LINE",
"700 386 LINE",
"700 510 LINE",
"596 510 LINE",
"596 576 LINE SMOOTH",
"596 612 OFFCURVE",
"620 637 OFFCURVE",
"689 637 CURVE SMOOTH",
"717 637 OFFCURVE",
"752 629 OFFCURVE",
"783 608 CURVE",
"830 700 LINE",
"791 733 OFFCURVE",
"732 753 OFFCURVE",
"667 753 CURVE SMOOTH",
"533 753 OFFCURVE",
"446 694 OFFCURVE",
"446 576 CURVE SMOOTH",
"446 510 LINE",
"360 510 LINE",
"360 386 LINE",
"446 386 LINE",
"446 0 LINE"
);
},
{
closed = 1;
nodes = (
"916 0 LINE",
"916 510 LINE",
"676 510 LINE",
"676 386 LINE",
"766 386 LINE",
"766 0 LINE"
);
},
{
closed = 1;
nodes = (
"916 578 LINE",
"916 700 LINE",
"766 700 LINE",
"766 578 LINE"
);
}
);
};
layerId = "6B2E1CAF-7E84-411F-9290-838331FE9C95";
rightMetricsKey = "=i";
paths = (
{
closed = 1;
nodes = (
"210 0 LINE",
"264 386 LINE",
"368 386 LINE",
"387 510 LINE",
"282 510 LINE",
"287 553 LINE SMOOTH",
"293 604 OFFCURVE",
"323 632 OFFCURVE",
"384 632 CURVE SMOOTH",
"415 632 OFFCURVE",
"459 623 OFFCURVE",
"495 597 CURVE",
"536 706 LINE",
"501 734 OFFCURVE",
"446 753 OFFCURVE",
"380 753 CURVE SMOOTH",
"249 753 OFFCURVE",
"157 688 OFFCURVE",
"140 570 CURVE SMOOTH",
"132 510 LINE",
"47 510 LINE",
"28 386 LINE",
"114 386 LINE",
"60 0 LINE"
);
},
{
closed = 1;
nodes = (
"858 0 LINE",
"930 510 LINE",
"690 510 LINE",
"672 386 LINE",
"762 386 LINE",
"708 0 LINE"
);
},
{
closed = 1;
nodes = (
"939 578 LINE",
"957 700 LINE",
"807 700 LINE",
"789 578 LINE"
);
},
{
closed = 1;
nodes = (
"528 0 LINE",
"582 386 LINE",
"686 386 LINE",
"705 510 LINE",
"600 510 LINE",
"605 553 LINE SMOOTH",
"611 604 OFFCURVE",
"641 632 OFFCURVE",
"712 632 CURVE SMOOTH",
"753 632 OFFCURVE",
"777 623 OFFCURVE",
"813 597 CURVE",
"867 701 LINE",
"829 732 OFFCURVE",
"769 753 OFFCURVE",
"698 753 CURVE SMOOTH",
"567 753 OFFCURVE",
"474 688 OFFCURVE",
"458 570 CURVE SMOOTH",
"450 510 LINE",
"365 510 LINE",
"346 386 LINE",
"432 386 LINE",
"378 0 LINE"
);
}
);
width = 964;
},
{
anchors = (
{
name = bottom;
position = "{650, 0}";
},
{
name = caret_1;
position = "{277, 0}";
},
{
name = caret_2;
position = "{575, 0}";
}
);
background = {
paths = (
{
closed = 1;
nodes = (
"189 0 LINE",
"189 430 LINE",
"310 430 LINE",
"310 500 LINE",
"189 500 LINE",
"189 575 LINE SMOOTH",
"189 637 OFFCURVE",
"236 674 OFFCURVE",
"314 674 CURVE SMOOTH",
"363 674 OFFCURVE",
"403 656 OFFCURVE",
"436 620 CURVE",
"460 693 LINE",
"425 722 OFFCURVE",
"372 743 OFFCURVE",
"310 743 CURVE SMOOTH",
"171 743 OFFCURVE",
"112 661 OFFCURVE",
"112 575 CURVE SMOOTH",
"112 500 LINE",
"10 500 LINE",
"10 430 LINE",
"112 430 LINE",
"112 0 LINE"
);
},
{
closed = 1;
nodes = (
"489 0 LINE",
"489 430 LINE",
"610 430 LINE",
"610 500 LINE",
"489 500 LINE",
"489 585 LINE SMOOTH",
"489 647 OFFCURVE",
"536 684 OFFCURVE",
"614 684 CURVE SMOOTH",
"655 684 OFFCURVE",
"689 669 OFFCURVE",
"716 640 CURVE",
"750 700 LINE",
"717 732 OFFCURVE",
"668 753 OFFCURVE",
"610 753 CURVE SMOOTH",
"471 753 OFFCURVE",
"412 671 OFFCURVE",
"412 585 CURVE SMOOTH",
"412 500 LINE",
"310 500 LINE",
"310 430 LINE",
"412 430 LINE",
"412 0 LINE"
);
},
{
closed = 1;
nodes = (
"782 0 LINE",
"782 500 LINE",
"582 500 LINE",
"582 430 LINE",
"702 430 LINE",
"702 0 LINE"
);
},
{
closed = 1;
nodes = (
"782 600 LINE",
"782 700 LINE",
"702 700 LINE",
"702 600 LINE"
);
}
);
};
layerId = "3DBDB2C8-AF6E-4CF3-B71C-7D596AD599C8";
rightMetricsKey = "=i";
paths = (
{
closed = 1;
nodes = (
"154 0 LINE",
"214 430 LINE",
"345 430 LINE",
"355 500 LINE",
"224 500 LINE",
"233 563 LINE SMOOTH",
"242 640 OFFCURVE",
"289 681 OFFCURVE",
"352 681 CURVE SMOOTH",
"392 681 OFFCURVE",
"426 671 OFFCURVE",
"470 646 CURVE",
"496 710 LINE",
"455 735 OFFCURVE",
"404 753 OFFCURVE",
"355 753 CURVE SMOOTH",
"231 753 OFFCURVE",
"171 676 OFFCURVE",
"159 584 CURVE SMOOTH",
"147 500 LINE",
"45 500 LINE",
"35 430 LINE",
"137 430 LINE",
"77 0 LINE"
);
},
{
closed = 1;
nodes = (
"707 0 LINE",
"777 500 LINE",
"627 500 LINE",
"617 430 LINE",
"687 430 LINE",
"627 0 LINE"
);
},
{
closed = 1;
nodes = (
"791 600 LINE",
"805 700 LINE",
"725 700 LINE",
"711 600 LINE"
);
},
{
closed = 1;
nodes = (
"426 0 LINE",
"486 430 LINE",
"617 430 LINE",
"627 500 LINE",
"496 500 LINE",
"505 563 LINE SMOOTH",
"516 640 OFFCURVE",
"561 681 OFFCURVE",
"624 681 CURVE SMOOTH",
"667 681 OFFCURVE",
"701 675 OFFCURVE",
"751 636 CURVE",
"777 700 LINE",
"730 738 OFFCURVE",
"679 753 OFFCURVE",
"627 753 CURVE SMOOTH",
"503 753 OFFCURVE",
"444 676 OFFCURVE",
"431 584 CURVE SMOOTH",
"419 500 LINE",
"317 500 LINE",
"307 430 LINE",
"409 430 LINE",
"349 0 LINE"
);
}
);
width = 827;
}
);
leftKerningGroup = f;
leftMetricsKey = f;
rightKerningGroup = i;
rightMetricsKey = i;
userData = {
com.schriftgestaltung.Glyphs.layer.rightMetricsKey = "==i";
com.schriftgestaltung.Glyphs.leftMetricsKey = f;
com.schriftgestaltung.Glyphs.rightMetricsKey = i;
};
},
{
color = 5;
glyphname = f_f_l;
lastChange = "2018-05-16 00:32:49 +0000";
layers = (
{
anchors = (
{
name = caret_1;
position = "{314.333, 0}";
},
{
name = caret_2;
position = "{628.667, 0}";
}
);
background = {
paths = (
{
closed = 1;
nodes = (
"256 0 LINE",
"256 386 LINE",
"360 386 LINE",
"360 510 LINE",
"256 510 LINE",
"256 566 LINE SMOOTH",
"256 602 OFFCURVE",
"280 627 OFFCURVE",
"349 627 CURVE SMOOTH",
"380 627 OFFCURVE",
"419 616 OFFCURVE",
"453 588 CURVE",
"500 690 LINE",
"459 723 OFFCURVE",
"396 743 OFFCURVE",
"327 743 CURVE SMOOTH",
"193 743 OFFCURVE",
"106 674 OFFCURVE",
"106 556 CURVE SMOOTH",
"106 510 LINE",
"20 510 LINE",
"20 386 LINE",
"106 386 LINE",
"106 0 LINE"
);
},
{
closed = 1;
nodes = (
"596 0 LINE",
"596 386 LINE",
"720 386 LINE",
"720 510 LINE",
"596 510 LINE",
"596 576 LINE SMOOTH",
"596 612 OFFCURVE",
"614 637 OFFCURVE",
"669 637 CURVE SMOOTH",
"703 637 OFFCURVE",
"746 626 OFFCURVE",
"783 598 CURVE",
"820 690 LINE",
"781 729 OFFCURVE",
"719 753 OFFCURVE",
"654 753 CURVE SMOOTH",
"529 753 OFFCURVE",
"446 694 OFFCURVE",
"446 576 CURVE SMOOTH",
"446 510 LINE",
"360 510 LINE",
"360 386 LINE",
"446 386 LINE",
"446 0 LINE"
);
},
{
closed = 1;
nodes = (
"991 1 LINE",
"991 130 LINE",
"937 130 LINE SMOOTH",
"928 130 OFFCURVE",
"921 137 OFFCURVE",
"921 146 CURVE SMOOTH",
"921 750 LINE",
"775 750 LINE",
"775 120 LINE SMOOTH",
"775 50 OFFCURVE",
"825 1 OFFCURVE",
"895 1 CURVE SMOOTH"
);
}
);
};
layerId = "6B2E1CAF-7E84-411F-9290-838331FE9C95";
leftMetricsKey = "=f";
paths = (
{
closed = 1;
nodes = (
"210 0 LINE",
"264 386 LINE",
"368 386 LINE",
"387 510 LINE",
"282 510 LINE",
"287 553 LINE SMOOTH",
"293 604 OFFCURVE",
"323 632 OFFCURVE",
"384 632 CURVE SMOOTH",
"415 632 OFFCURVE",
"459 623 OFFCURVE",
"495 597 CURVE",
"536 706 LINE",
"501 734 OFFCURVE",
"446 753 OFFCURVE",
"380 753 CURVE SMOOTH",
"249 753 OFFCURVE",
"157 688 OFFCURVE",
"140 570 CURVE SMOOTH",
"132 510 LINE",
"47 510 LINE",
"28 386 LINE",
"114 386 LINE",
"60 0 LINE"
);
},
{
closed = 1;
nodes = (
"528 0 LINE",
"582 386 LINE",
"686 386 LINE",
"705 510 LINE",
"600 510 LINE",
"605 553 LINE SMOOTH",
"611 604 OFFCURVE",
"641 632 OFFCURVE",
"702 632 CURVE SMOOTH",
"733 632 OFFCURVE",
"777 623 OFFCURVE",
"813 597 CURVE",
"823 674 LINE",
"795 721 OFFCURVE",
"751 753 OFFCURVE",
"679 753 CURVE SMOOTH",
"567 753 OFFCURVE",
"474 688 OFFCURVE",
"458 570 CURVE SMOOTH",
"450 510 LINE",
"365 510 LINE",
"346 386 LINE",
"432 386 LINE",
"378 0 LINE"
);
},
{
closed = 1;
nodes = (
"887 1 LINE",
"905 130 LINE",
"856 130 LINE SMOOTH",
"841 130 OFFCURVE",
"834 133 OFFCURVE",
"837 151 CURVE SMOOTH",
"923 750 LINE",
"778 750 LINE",
"689 124 LINE SMOOTH",
"679 53 OFFCURVE",
"725 1 OFFCURVE",
"795 1 CURVE SMOOTH"
);
}
);
width = 943;
},
{
anchors = (
{
name = caret_1;
position = "{278, 0}";
},
{
name = caret_2;
position = "{577, 0}";
}
);
layerId = "3DBDB2C8-AF6E-4CF3-B71C-7D596AD599C8";
paths = (
{
closed = 1;
nodes = (
"154 0 LINE",
"214 430 LINE",
"345 430 LINE",
"355 500 LINE",
"224 500 LINE",
"233 563 LINE SMOOTH",
"242 640 OFFCURVE",
"289 681 OFFCURVE",
"352 681 CURVE SMOOTH",
"392 681 OFFCURVE",
"426 671 OFFCURVE",
"470 646 CURVE",
"496 710 LINE",
"455 735 OFFCURVE",
"404 753 OFFCURVE",
"355 753 CURVE SMOOTH",
"231 753 OFFCURVE",
"171 676 OFFCURVE",
"159 584 CURVE SMOOTH",
"147 500 LINE",
"45 500 LINE",
"35 430 LINE",
"137 430 LINE",
"77 0 LINE"
);
},
{
closed = 1;
nodes = (
"426 0 LINE",
"486 430 LINE",
"617 430 LINE",
"627 500 LINE",
"496 500 LINE",
"505 563 LINE SMOOTH",
"516 640 OFFCURVE",
"561 681 OFFCURVE",
"624 681 CURVE SMOOTH",
"664 681 OFFCURVE",
"698 671 OFFCURVE",
"742 646 CURVE",
"768 710 LINE",
"727 735 OFFCURVE",
"676 753 OFFCURVE",
"627 753 CURVE SMOOTH",
"503 753 OFFCURVE",
"444 676 OFFCURVE",
"431 584 CURVE SMOOTH",
"419 500 LINE",
"317 500 LINE",
"307 430 LINE",
"409 430 LINE",
"349 0 LINE"
);
},
{
closed = 1;
nodes = (
"775 0 LINE",
"785 70 LINE",
"742 70 LINE SMOOTH",
"721 70 OFFCURVE",
"712 83 OFFCURVE",
"715 106 CURVE SMOOTH",
"805 750 LINE",
"725 750 LINE",
"635 110 LINE SMOOTH",
"626 44 OFFCURVE",
"667 0 OFFCURVE",
"736 0 CURVE SMOOTH"
);
}
);
width = 845;
}
);
leftKerningGroup = f;
leftMetricsKey = f;
rightKerningGroup = l;
rightMetricsKey = l;
userData = {
com.schriftgestaltung.Glyphs.leftMetricsKey = f;
com.schriftgestaltung.Glyphs.rightMetricsKey = l;
};
},
{
color = 5;
glyphname = fi;
lastChange = "2018-05-16 00:32:49 +0000";
layers = (
{
anchors = (
{
name = caret_1;
position = "{326, 0}";
}
);
layerId = "6B2E1CAF-7E84-411F-9290-838331FE9C95";
paths = (
{
closed = 1;
nodes = (
"540 0 LINE",
"612 510 LINE",
"372 510 LINE",
"354 386 LINE",
"444 386 LINE",
"390 0 LINE"
);
},
{
closed = 1;
nodes = (
"621 578 LINE",
"639 700 LINE",
"489 700 LINE",
"471 578 LINE"
);
},
{
closed = 1;
nodes = (
"210 0 LINE",
"264 386 LINE",
"368 386 LINE",
"387 510 LINE",
"282 510 LINE",
"287 553 LINE SMOOTH",
"293 604 OFFCURVE",
"323 632 OFFCURVE",
"394 632 CURVE SMOOTH",
"435 632 OFFCURVE",
"459 623 OFFCURVE",
"495 597 CURVE",
"549 701 LINE",
"511 732 OFFCURVE",
"451 753 OFFCURVE",
"380 753 CURVE SMOOTH",
"249 753 OFFCURVE",
"156 688 OFFCURVE",
"140 570 CURVE SMOOTH",
"132 510 LINE",
"47 510 LINE",
"28 386 LINE",
"114 386 LINE",
"60 0 LINE"
);
}
);
width = 646;
},
{
anchors = (
{
name = caret_1;
position = "{265, 0}";
}
);
layerId = "3DBDB2C8-AF6E-4CF3-B71C-7D596AD599C8";
paths = (
{
closed = 1;
nodes = (
"154 0 LINE",
"214 430 LINE",
"345 430 LINE",
"355 500 LINE",
"224 500 LINE",
"233 563 LINE SMOOTH",
"244 640 OFFCURVE",
"289 681 OFFCURVE",
"352 681 CURVE SMOOTH",
"395 681 OFFCURVE",
"429 675 OFFCURVE",
"479 636 CURVE",
"505 700 LINE",
"458 738 OFFCURVE",
"407 753 OFFCURVE",
"355 753 CURVE SMOOTH",
"231 753 OFFCURVE",
"172 676 OFFCURVE",
"159 584 CURVE SMOOTH",
"147 500 LINE",
"45 500 LINE",
"35 430 LINE",
"137 430 LINE",
"77 0 LINE"
);
},
{
closed = 1;
nodes = (
"435 0 LINE",
"505 500 LINE",
"355 500 LINE",
"345 430 LINE",
"415 430 LINE",
"355 0 LINE"
);
},
{
closed = 1;
nodes = (
"519 600 LINE",
"533 700 LINE",
"453 700 LINE",
"439 600 LINE"
);
}
);
width = 555;
}
);
leftKerningGroup = f;
leftMetricsKey = f;
rightKerningGroup = i;
rightMetricsKey = i;
unicode = FB01;
userData = {
com.schriftgestaltung.Glyphs.leftMetricsKey = f;
com.schriftgestaltung.Glyphs.rightMetricsKey = i;
};
},
{
color = 5;
glyphname = fl;
lastChange = "2018-05-16 00:32:49 +0000";
layers = (
{
anchors = (
{
name = caret_1;
position = "{313, 0}";
}
);
layerId = "6B2E1CAF-7E84-411F-9290-838331FE9C95";
paths = (
{
closed = 1;
nodes = (
"210 0 LINE",
"264 386 LINE",
"368 386 LINE",
"387 510 LINE",
"282 510 LINE",
"287 553 LINE SMOOTH",
"293 604 OFFCURVE",
"323 632 OFFCURVE",
"384 632 CURVE SMOOTH",
"415 632 OFFCURVE",
"459 623 OFFCURVE",
"495 597 CURVE",
"536 706 LINE",
"501 734 OFFCURVE",
"446 753 OFFCURVE",
"380 753 CURVE SMOOTH",
"249 753 OFFCURVE",
"156 688 OFFCURVE",
"140 570 CURVE SMOOTH",
"132 510 LINE",
"47 510 LINE",
"28 386 LINE",
"114 386 LINE",
"60 0 LINE"
);
},
{
closed = 1;
nodes = (
"569 1 LINE",
"587 130 LINE",
"538 130 LINE SMOOTH",
"523 130 OFFCURVE",
"516 133 OFFCURVE",
"519 151 CURVE SMOOTH",
"605 750 LINE",
"460 750 LINE",
"371 124 LINE SMOOTH",
"361 53 OFFCURVE",
"407 1 OFFCURVE",
"477 1 CURVE SMOOTH"
);
}
);
width = 625;
},
{
anchors = (
{
name = caret_1;
position = "{292, 0}";
}
);
layerId = "3DBDB2C8-AF6E-4CF3-B71C-7D596AD599C8";
paths = (
{
closed = 1;
nodes = (
"154 0 LINE",
"214 430 LINE",
"345 430 LINE",
"355 500 LINE",
"224 500 LINE",
"233 563 LINE SMOOTH",
"244 640 OFFCURVE",
"289 681 OFFCURVE",
"352 681 CURVE SMOOTH",
"392 681 OFFCURVE",
"426 671 OFFCURVE",
"470 646 CURVE",
"496 710 LINE",
"455 735 OFFCURVE",
"404 753 OFFCURVE",
"355 753 CURVE SMOOTH",
"231 753 OFFCURVE",
"172 676 OFFCURVE",
"159 584 CURVE SMOOTH",
"147 500 LINE",
"45 500 LINE",
"35 430 LINE",
"137 430 LINE",
"77 0 LINE"
);
},
{
closed = 1;
nodes = (
"503 0 LINE",
"513 70 LINE",
"470 70 LINE SMOOTH",
"449 70 OFFCURVE",
"440 83 OFFCURVE",
"443 106 CURVE SMOOTH",
"533 750 LINE",
"453 750 LINE",
"363 110 LINE SMOOTH",
"354 44 OFFCURVE",
"395 0 OFFCURVE",
"464 0 CURVE SMOOTH"
);
}
);
width = 573;
}
);
leftKerningGroup = f;
leftMetricsKey = f;
rightKerningGroup = l;
rightMetricsKey = l;
unicode = FB02;
userData = {
com.schriftgestaltung.Glyphs.leftMetricsKey = f;
com.schriftgestaltung.Glyphs.rightMetricsKey = l;
};
},
{
color = 5;
glyphname = ordfeminine;
lastChange = "2018-05-16 00:32:49 +0000";
layers = (
{
background = {
anchors = (
{
name = bottom;
position = "{246, 0}";
},
{
name = ogonek;
position = "{528, 13}";
},
{
name = top;
position = "{318, 510}";
}
);
paths = (
{
closed = 1;
nodes = (
"426 407 LINE",
"384 476 LINE",
"384 649 LINE SMOOTH",
"384 742 OFFCURVE",
"325 810 OFFCURVE",
"198 810 CURVE SMOOTH",
"140 810 OFFCURVE",
"88 793 OFFCURVE",
"43 768 CURVE",
"81 665 LINE",
"115 684 OFFCURVE",
"151 698 OFFCURVE",
"187 698 CURVE SMOOTH",
"235 698 OFFCURVE",
"259 682 OFFCURVE",
"259 649 CURVE SMOOTH",
"259 611 LINE",
"192 611 LINE SMOOTH",
"108 611 OFFCURVE",
"40 567 OFFCURVE",
"40 484 CURVE SMOOTH",
"40 409 OFFCURVE",
"90 354 OFFCURVE",
"173 354 CURVE SMOOTH",
"218 354 OFFCURVE",
"251 369 OFFCURVE",
"277 389 CURVE SMOOTH",
"285 395 OFFCURVE",
"292 394 OFFCURVE",
"298 386 CURVE SMOOTH",
"325 350 LINE"
);
},
{
closed = 1;
nodes = (
"179 450 OFFCURVE",
"160 466 OFFCURVE",
"160 485 CURVE SMOOTH",
"160 504 OFFCURVE",
"170 515 OFFCURVE",
"193 515 CURVE SMOOTH",
"218 515 LINE",
"244 524 LINE SMOOTH",
"253 527 OFFCURVE",
"259 525 OFFCURVE",
"259 519 CURVE SMOOTH",
"259 513 LINE SMOOTH",
"259 476 OFFCURVE",
"239 450 OFFCURVE",
"205 450 CURVE SMOOTH"
);
}
);
};
layerId = "6B2E1CAF-7E84-411F-9290-838331FE9C95";
paths = (
{
closed = 1;
nodes = (
"202 353 OFFCURVE",
"216 359 OFFCURVE",
"258 375 CURVE",
"273 392 LINE SMOOTH",
"275 395 OFFCURVE",
"280 395 OFFCURVE",
"284 393 CURVE SMOOTH",
"433 320 LINE",
"334 288 LINE",
"449 511 LINE",
"484 426 LINE",
"308 516 LINE",
"360 413 LINE",
"418 846 LINE",
"427 806 LINE",
"328 795 LINE SMOOTH",
"322 794 OFFCURVE",
"318 794 OFFCURVE",
"314 796 CURVE SMOOTH",
"284 807 LINE",
"265 809 OFFCURVE",
"253 810 OFFCURVE",
"241 810 CURVE SMOOTH",
"159 810 OFFCURVE",
"90 772 OFFCURVE",
"49 698 CURVE SMOOTH",
"22 649 OFFCURVE",
"12 578 OFFCURVE",
"12 517 CURVE SMOOTH",
"12 400 OFFCURVE",
"102 353 OFFCURVE",
"168 353 CURVE SMOOTH"
);
},
{
closed = 1;
nodes = (
"156 475 OFFCURVE",
"137 493 OFFCURVE",
"137 531 CURVE SMOOTH",
"137 568 OFFCURVE",
"142 609 OFFCURVE",
"159 645 CURVE SMOOTH",
"174 677 OFFCURVE",
"208 689 OFFCURVE",
"242 689 CURVE SMOOTH",
"266 689 OFFCURVE",
"287 686 OFFCURVE",
"344 666 CURVE",
"284 720 LINE",
"247 475 LINE",
"267 506 LINE",
"229 482 OFFCURVE",
"204 475 OFFCURVE",
"188 475 CURVE SMOOTH"
);
}
);
width = 451;
},
{
layerId = "3DBDB2C8-AF6E-4CF3-B71C-7D596AD599C8";
paths = (
{
closed = 1;
nodes = (
"210 361 OFFCURVE",
"228 364 OFFCURVE",
"268 387 CURVE",
"284 405 LINE SMOOTH",
"287 408 OFFCURVE",
"292 409 OFFCURVE",
"296 407 CURVE SMOOTH",
"390 363 LINE",
"418 421 LINE",
"332 463 LINE",
"365 414 LINE",
"424 832 LINE",
"470 797 LINE",
"370 786 LINE SMOOTH",
"364 785 OFFCURVE",
"361 785 OFFCURVE",
"357 786 CURVE SMOOTH",
"319 794 LINE",
"304 795 OFFCURVE",
"292 796 OFFCURVE",
"275 796 CURVE SMOOTH",
"197 796 OFFCURVE",
"129 751 OFFCURVE",
"94 684 CURVE SMOOTH",
"66 630 OFFCURVE",
"50 567 OFFCURVE",
"50 503 CURVE SMOOTH",
"50 387 OFFCURVE",
"131 361 OFFCURVE",
"185 361 CURVE SMOOTH"
);
},
{
closed = 1;
nodes = (
"162 430 OFFCURVE",
"119 447 OFFCURVE",
"119 505 CURVE SMOOTH",
"119 571 OFFCURVE",
"133 611 OFFCURVE",
"151 653 CURVE SMOOTH",
"172 702 OFFCURVE",
"217 732 OFFCURVE",
"280 732 CURVE SMOOTH",
"302 732 OFFCURVE",
"320 729 OFFCURVE",
"354 719 CURVE",
"341 752 LINE",
"299 441 LINE",
"316 485 LINE",
"252 436 OFFCURVE",
"217 430 OFFCURVE",
"194 430 CURVE SMOOTH"
);
}
);
width = 443;
}
);
leftKerningGroup = ordfeminine;
rightKerningGroup = ordfeminine;
unicode = 00AA;
},
{
color = 5;
glyphname = ordmasculine;
lastChange = "2018-05-16 00:32:49 +0000";
layers = (
{
background = {
paths = (
{
closed = 1;
nodes = (
"346 344 OFFCURVE",
"413 413 OFFCURVE",
"425 499 CURVE SMOOTH",
"429 527 OFFCURVE",
"429 553 OFFCURVE",
"429 577 CURVE SMOOTH",
"429 604 OFFCURVE",
"427 629 OFFCURVE",
"425 657 CURVE SMOOTH",
"419 747 OFFCURVE",
"346 813 OFFCURVE",
"237 813 CURVE SMOOTH",
"127 813 OFFCURVE",
"61 746 OFFCURVE",
"49 657 CURVE SMOOTH",
"46 628 OFFCURVE",
"45 604 OFFCURVE",
"45 577 CURVE SMOOTH",
"45 553 OFFCURVE",
"47 527 OFFCURVE",
"49 499 CURVE SMOOTH",
"56 410 OFFCURVE",
"127 344 OFFCURVE",
"237 344 CURVE SMOOTH"
);
},
{
closed = 1;
nodes = (
"204 462 OFFCURVE",
"187 489 OFFCURVE",
"185 524 CURVE SMOOTH",
"183 564 OFFCURVE",
"180 594 OFFCURVE",
"184 635 CURVE SMOOTH",
"188 669 OFFCURVE",
"204 698 OFFCURVE",
"237 698 CURVE SMOOTH",
"270 698 OFFCURVE",
"287 670 OFFCURVE",
"290 635 CURVE SMOOTH",
"294 594 OFFCURVE",
"295 564 OFFCURVE",
"289 523 CURVE SMOOTH",
"285 491 OFFCURVE",
"270 462 OFFCURVE",
"237 462 CURVE SMOOTH"
);
}
);
};
layerId = "6B2E1CAF-7E84-411F-9290-838331FE9C95";
paths = (
{
closed = 1;
nodes = (
"363 345 OFFCURVE",
"424 407 OFFCURVE",
"452 484 CURVE SMOOTH",
"467 526 OFFCURVE",
"480 603 OFFCURVE",
"480 646 CURVE SMOOTH",
"480 727 OFFCURVE",
"415 813 OFFCURVE",
"294 813 CURVE SMOOTH",
"158 813 OFFCURVE",
"109 746 OFFCURVE",
"82 675 CURVE SMOOTH",
"66 633 OFFCURVE",
"55 555 OFFCURVE",
"55 512 CURVE SMOOTH",
"55 432 OFFCURVE",
"118 345 OFFCURVE",
"238 345 CURVE SMOOTH"
);
},
{
closed = 1;
nodes = (
"217 463 OFFCURVE",
"193 485 OFFCURVE",
"193 528 CURVE SMOOTH",
"193 556 OFFCURVE",
"205 618 OFFCURVE",
"214 641 CURVE SMOOTH",
"229 679 OFFCURVE",
"258 695 OFFCURVE",
"284 695 CURVE SMOOTH",
"315 695 OFFCURVE",
"342 675 OFFCURVE",
"342 634 CURVE SMOOTH",
"342 601 OFFCURVE",
"332 538 OFFCURVE",
"321 516 CURVE SMOOTH",
"304 481 OFFCURVE",
"288 463 OFFCURVE",
"248 463 CURVE SMOOTH"
);
}
);
width = 474;
},
{
layerId = "3DBDB2C8-AF6E-4CF3-B71C-7D596AD599C8";
paths = (
{
closed = 1;
nodes = (
"346 354 OFFCURVE",
"410 417 OFFCURVE",
"432 498 CURVE SMOOTH",
"440 528 OFFCURVE",
"444 551 OFFCURVE",
"447 572 CURVE SMOOTH",
"451 600 OFFCURVE",
"453 621 OFFCURVE",
"453 649 CURVE SMOOTH",
"453 738 OFFCURVE",
"404 802 OFFCURVE",
"302 802 CURVE SMOOTH",
"203 802 OFFCURVE",
"139 743 OFFCURVE",
"117 659 CURVE SMOOTH",
"110 628 OFFCURVE",
"105 604 OFFCURVE",
"102 582 CURVE SMOOTH",
"98 555 OFFCURVE",
"97 533 OFFCURVE",
"97 508 CURVE SMOOTH",
"97 420 OFFCURVE",
"145 354 OFFCURVE",
"248 354 CURVE SMOOTH"
);
},
{
closed = 1;
nodes = (
"191 420 OFFCURVE",
"167 457 OFFCURVE",
"168 503 CURVE SMOOTH",
"171 556 OFFCURVE",
"176 594 OFFCURVE",
"188 643 CURVE SMOOTH",
"199 694 OFFCURVE",
"240 737 OFFCURVE",
"302 737 CURVE SMOOTH",
"359 737 OFFCURVE",
"383 698 OFFCURVE",
"381 653 CURVE SMOOTH",
"378 598 OFFCURVE",
"370 560 OFFCURVE",
"359 512 CURVE SMOOTH",
"350 461 OFFCURVE",
"310 420 OFFCURVE",
"249 420 CURVE SMOOTH"
);
}
);
width = 457;
}
);
leftKerningGroup = ordmasculine;
rightKerningGroup = ordmasculine;
unicode = 00BA;
},
